<?xml version="1.0" standalone="no"?>
<!DOCTYPE svg PUBLIC "-//W3C//DTD SVG 1.1//EN" "http://www.w3.org/Graphics/SVG/1.1/DTD/svg11.dtd" >
<svg>
<metadata>
Created by FontForge 20090622 at Sat Nov 24 10:58:14 2018
 By ffonts
Genshichi Yasui
</metadata>
<defs>
<font id="AtariFontFullVersion" horiz-adv-x="1024" vert-adv-y="1024" >
  <font-face 
    font-family="Atari Font Full Version"
    font-weight="400"
    font-stretch="normal"
    units-per-em="1024"
    panose-1="2 0 6 4 0 0 0 0 0 0"
    ascent="896"
    descent="-128"
    x-height="640"
    cap-height="896"
    bbox="0 -128 1024 896"
    underline-thickness="48"
    underline-position="-72"
    unicode-range="U+0020-U+FFEE"
  />
<missing-glyph 
d="M400 400v220h220v-220h-220z" />
    <glyph glyph-name=".notdef" 
d="M400 400v220h220v-220h-220z" />
    <glyph glyph-name="glyph1" horiz-adv-x="0" 
 />
    <glyph glyph-name="space" unicode=" " horiz-adv-x="512" 
 />
    <glyph glyph-name="exclam" unicode="!" 
d="M256 896h384v-384h-128v-256h-256v640zM256 128h256v-128h-256v128z" />
    <glyph glyph-name="quotedbl" unicode="&#x22;" 
d="M256 896h256v-256l-128 -128h-256v128h128v256zM640 896h256v-256l-128 -128h-256v128h128v256z" />
    <glyph glyph-name="numbersign" unicode="#" 
d="M128 896h256v-128h128v128h256v-128h128v-128h-128v-384h128v-128h-128v-128h-256v128h-128v-128h-256v128h-128v128h128v384h-128v128h128v128zM384 640v-384h128v384h-128z" />
    <glyph glyph-name="dollar" unicode="$" 
d="M128 768h256v128h128v-128h256v-128h-256v-128h256l128 -128v-128l-128 -128h-256v-128h-128v128h-384v128h384v128h-256l-128 128v128zM256 512h128v128h-128v-128zM512 256h128v128h-128v-128z" />
    <glyph glyph-name="percent" unicode="%" 
d="M0 0v128l768 768h128v-128l-768 -768h-128zM0 768l128 128h256v-256l-128 -128h-256v256zM128 640h128v128h-128v-128zM512 0v256l128 128h256v-256l-128 -128h-256zM640 128h128v128h-128v-128z" />
    <glyph glyph-name="ampersand" unicode="&#x26;" 
d="M0 768l128 128h384l128 -128v-256l-64 -64l128 -128l64 64h128v-128l-64 -64l64 -64v-128h-768l-128 128v256l64 64l-64 64v256zM256 512h128v256h-128v-256zM256 128h256v128l-128 128h-128v-256z" />
    <glyph glyph-name="quotesingle" unicode="'" 
d="M256 896h256v-384l-128 -128h-256v128h128v384z" />
    <glyph glyph-name="parenleft" unicode="(" 
d="M512 896h256v-128h-128l-128 -128v-384l128 -128h128v-128h-256l-256 256v384z" />
    <glyph glyph-name="parenright" unicode=")" 
d="M512 0h-256v128h128l128 128v384l-128 128h-128v128h256l256 -256v-384z" />
    <glyph glyph-name="asterisk" unicode="*" 
d="M128 768h256l64 -64l64 64h256v-128l-128 -128h256v-128h-256l128 -128v-128h-256l-64 64l-64 -64h-256v128l128 128h-256v128h256l-128 128v128z" />
    <glyph glyph-name="plus" unicode="+" 
d="M384 768h256v-256h256v-128h-256v-256h-256v256h-256v128h256v256z" />
    <glyph glyph-name="comma" unicode="," 
d="M128 0v128h128v256h256v-256l-128 -128h-256z" />
    <glyph glyph-name="hyphen" unicode="-" 
d="M0 512h896v-128h-896v128z" />
    <glyph glyph-name="period" unicode="." 
d="M256 0v256h256v-256h-256z" />
    <glyph glyph-name="slash" unicode="/" 
d="M0 0v128l768 768h128v-128l-768 -768h-128z" />
    <glyph glyph-name="zero" unicode="0" 
d="M256 896h384l256 -256v-384l-256 -256h-384l-256 256v384zM448 768h-192v-448l192 -192h192v448z" />
    <glyph glyph-name="one" unicode="1" 
d="M256 768l128 128h256v-768h256v-128h-768v128h256v512h-128v128z" />
    <glyph glyph-name="two" unicode="2" 
d="M0 768l128 128h640l128 -128v-256l-256 -256h-256v-128h512v-128h-896v256l256 256h256l128 128v128h-320l-128 -128h-192v128z" />
    <glyph glyph-name="three" unicode="3" 
d="M128 896h768v-128l-192 -192l192 -192v-256l-128 -128h-640l-128 128v128h192l128 -128h320v256h-384v128l256 256h-384v128z" />
    <glyph glyph-name="four" unicode="4" 
d="M768 896v-512h128v-128h-128v-256h-256v256h-512v256l384 384h384zM512 384v256h-64l-192 -192v-64h256z" />
    <glyph glyph-name="five" unicode="5" 
d="M0 896h768v-128h-512v-128h512l128 -128v-384l-128 -128h-640l-128 128v128h192l128 -128h320v384h-640v384z" />
    <glyph glyph-name="six" unicode="6" 
d="M256 896h512v-128h-320l-192 -192v-64h512l128 -128v-256l-128 -128h-640l-128 128v512zM640 128v256h-384v-256h384z" />
    <glyph glyph-name="seven" unicode="7" 
d="M0 896h896v-256l-384 -384v-256h-256v320l384 384v64h-384v-128h-256v256z" />
    <glyph glyph-name="eight" unicode="8" 
d="M128 896h512l128 -128v-256l-64 -64l192 -64v-256l-128 -128h-640l-128 128v320l64 64l-64 64v192zM640 576v128l-64 64h-320v-128l320 -128zM640 128v128l-448 192l-64 -64v-192l64 -64h448z" />
    <glyph glyph-name="nine" unicode="9" 
d="M640 0h-512v128h320l192 192v64h-512l-128 128v256l128 128h640l128 -128v-512zM256 768v-256h384v256h-384z" />
    <glyph glyph-name="colon" unicode=":" 
d="M256 768h256v-256h-256v256zM256 384h256v-256h-256v256z" />
    <glyph glyph-name="semicolon" unicode=";" 
d="M256 768h256v-256h-256v256zM256 384h256v-256h-128v-128h-256v128h128v256z" />
    <glyph glyph-name="less" unicode="&#x3c;" 
d="M128 512l384 384h256v-128h-128l-320 -320l320 -320h128v-128h-256l-384 384v128z" />
    <glyph glyph-name="equal" unicode="=" 
d="M0 640h896v-128h-896v128zM0 384h896v-128h-896v128z" />
    <glyph glyph-name="greater" unicode="&#x3e;" 
d="M128 896h256l384 -384v-128l-384 -384h-256v128h128l320 320l-320 320h-128v128z" />
    <glyph glyph-name="question" unicode="?" 
d="M0 768l128 128h640l128 -128v-256l-256 -256h-384v128h256l128 128v128h-384v-128h-256v256zM256 128h384v-128h-384v128z" />
    <glyph glyph-name="at" unicode="@" 
d="M256 896h512l256 -256v-512l-256 -256h-512l-256 256v512zM320 768l-192 -192v-384l192 -192h384l192 192v384l-192 192h-384zM384 640h256v-128h-256v-256h256v-128h-256l-128 128v256z" />
    <glyph glyph-name="A" unicode="A" 
d="M256 896h384l256 -256v-640h-256v256h-384v-256h-256v640zM640 384v256l-128 128h-128l-128 -128v-256h384z" />
    <glyph glyph-name="B" unicode="B" 
d="M0 896h768l128 -128v-256l-64 -64l64 -64v-256l-128 -128h-768v896zM640 512v256h-384v-256h384zM640 128v256h-384v-256h384z" />
    <glyph glyph-name="C" unicode="C" 
d="M256 896h512l128 -128v-128h-192l-128 128h-192l-128 -128v-384l128 -128h192l128 128h192v-128l-128 -128h-512l-256 256v384z" />
    <glyph glyph-name="D" unicode="D" 
d="M0 896h640l256 -256v-384l-256 -256h-640v896zM512 128l128 128v384l-128 128h-256v-640h256z" />
    <glyph glyph-name="E" unicode="E" 
d="M0 896h896v-128h-640v-256h512v-128h-512v-256h640v-128h-896v896z" />
    <glyph glyph-name="F" unicode="F" 
d="M0 896h896v-128h-640v-256h512v-128h-512v-384h-256v896z" />
    <glyph glyph-name="G" unicode="G" 
d="M256 896h640v-128h-512l-128 -128v-384l128 -128h256v256h-128v128h384v-512h-640l-256 256v384z" />
    <glyph glyph-name="H" unicode="H" 
d="M0 896h256v-384h384v384h256v-896h-256v384h-384v-384h-256v896z" />
    <glyph glyph-name="I" unicode="I" 
d="M128 896h768v-128h-256v-640h256v-128h-768v128h256v640h-256v128z" />
    <glyph glyph-name="J" unicode="J" 
d="M640 896h256v-768l-128 -128h-640l-128 128v128h256v-128h384v768z" />
    <glyph glyph-name="K" unicode="K" 
d="M0 896h256v-448l448 448h192v-128l-320 -320l320 -320v-128h-384l-256 256v-256h-256v896z" />
    <glyph glyph-name="L" unicode="L" 
d="M0 896h256v-768h640v-128h-896v896z" />
    <glyph glyph-name="M" unicode="M" 
d="M0 896h256l192 -192l192 192h256v-896h-256v384l-128 -128h-128l-128 128v-384h-256v896z" />
    <glyph glyph-name="N" unicode="N" 
d="M0 896h256l384 -384v384h256v-896h-256l-384 384v-384h-256v896z" />
    <glyph glyph-name="O" unicode="O" 
d="M128 896h640l128 -128v-640l-128 -128h-640l-128 128v640zM640 128v640h-384v-640h384z" />
    <glyph glyph-name="P" unicode="P" 
d="M0 896h768l128 -128v-384l-128 -128h-512v-256h-256v896zM640 384v384h-384v-384h384z" />
    <glyph glyph-name="Q" unicode="Q" 
d="M128 896h640l128 -128v-512l-64 -64l64 -64v-128h-192l-64 64l-64 -64h-448l-128 128v640zM640 768h-384v-640h256l-128 128v128h256v384z" />
    <glyph glyph-name="R" unicode="R" 
d="M0 896h768l128 -128v-256l-192 -192l192 -192v-128h-256l-256 256h-128v-256h-256v896zM512 384l128 128v192l-64 64h-320v-384h256z" />
    <glyph glyph-name="S" unicode="S" 
d="M128 896h512l128 -128v-128h-256v128h-256v-256h512l128 -128v-256l-128 -128h-640l-128 128v128h256v-128h384v256h-512l-128 128v256z" />
    <glyph glyph-name="T" unicode="T" 
d="M128 896h768v-128h-256v-768h-256v768h-256v128z" />
    <glyph glyph-name="U" unicode="U" 
d="M0 896h256v-768h384v768h256v-768l-128 -128h-640l-128 128v768z" />
    <glyph glyph-name="V" unicode="V" 
d="M0 896h256v-384l192 -192l192 192v384h256v-512l-384 -384h-128l-384 384v512z" />
    <glyph glyph-name="W" unicode="W" 
d="M0 896h256v-384l128 128h128l128 -128v384h256v-896h-256l-192 192l-192 -192h-256v896z" />
    <glyph glyph-name="X" unicode="X" 
d="M0 896h192l256 -256l256 256h192v-192l-256 -256l256 -256v-192h-192l-256 256l-256 -256h-192v192l256 256l-256 256v192z" />
    <glyph glyph-name="Y" unicode="Y" 
d="M128 896h256v-320l128 -128l128 128v320h256v-384l-256 -256v-256h-256v256l-256 256v384z" />
    <glyph glyph-name="Z" unicode="Z" 
d="M0 896h896v-256l-512 -512h512v-128h-896v256l512 512h-512v128z" />
    <glyph glyph-name="bracketleft" unicode="[" 
d="M256 896h384v-128h-128v-640h128v-128h-384v896z" />
    <glyph glyph-name="backslash" unicode="\" horiz-adv-x="512" 
 />
    <glyph glyph-name="bracketright" unicode="]" 
d="M128 896h384v-896h-384v128h128v640h-128v128z" />
    <glyph glyph-name="asciicircum" unicode="^" 
d="M128 768l128 128h384l128 -128v-128h-192l-128 128l-128 -128h-192v128z" />
    <glyph glyph-name="underscore" unicode="_" 
d="M128 512h640v-128h-640v128z" />
    <glyph glyph-name="grave" unicode="`" 
d="M128 128h256v128h512v-256h-768v128z" />
    <glyph glyph-name="a" unicode="a" 
d="M128 640h640l128 -128v-512h-768l-128 128v128l128 128h512v128h-512v128zM640 128v128h-384v-128h384z" />
    <glyph glyph-name="b" unicode="b" 
d="M0 896h256v-256h512l128 -128v-384l-128 -128h-640l-128 128v768zM640 128v384h-384v-384h384z" />
    <glyph glyph-name="c" unicode="c" 
d="M128 640h768v-128h-640v-384h640v-128h-768l-128 128v384z" />
    <glyph glyph-name="d" unicode="d" 
d="M128 640h512v256h256v-896h-768l-128 128v384zM640 128v384h-384v-384h384z" />
    <glyph glyph-name="e" unicode="e" 
d="M128 640h640l128 -128v-256h-640v-128h512v-128h-640l-128 128v384zM640 384v128h-384v-128h384z" />
    <glyph glyph-name="f" unicode="f" 
d="M896 896v-128h-256v-128h256v-128h-256v-512h-256v512h-256v128h256v128l128 128h384z" />
    <glyph glyph-name="g" unicode="g" 
d="M896 640v-640l-128 -128h-640v128h512v128h-512l-128 128v256l128 128h768zM256 256h384v256h-384v-256z" />
    <glyph glyph-name="h" unicode="h" 
d="M0 896h256v-256h512l128 -128v-512h-256v512h-384v-512h-256v896z" />
    <glyph glyph-name="i" unicode="i" 
d="M384 896h256v-128h-256v128zM256 640h384v-512h256v-128h-768v128h256v384h-128v128z" />
    <glyph glyph-name="j" unicode="j" 
d="M896 896v-128h-256v128h256zM512 640h384v-512l-128 -128h-640v128h512v384h-128v128z" />
    <glyph glyph-name="k" unicode="k" 
d="M0 896h256v-384h192l128 128h320v-128h-128l-128 -128l256 -256v-128h-384v128l-128 128h-128v-256h-256v896z" />
    <glyph glyph-name="l" unicode="l" 
d="M256 896h384v-768h256v-128h-768v128h256v640h-128v128z" />
    <glyph glyph-name="m" unicode="m" 
d="M0 640h768l128 -128v-512h-256v512h-128v-512h-256v512h-128v-512h-128v640z" />
    <glyph glyph-name="n" unicode="n" 
d="M0 640h768l128 -128v-512h-256v512h-384v-512h-256v640z" />
    <glyph glyph-name="o" unicode="o" 
d="M128 640h640l128 -128v-384l-128 -128h-640l-128 128v384zM640 128v384h-384v-384h384z" />
    <glyph glyph-name="p" unicode="p" 
d="M0 640h768l128 -128v-256l-128 -128h-512v-256h-256v768zM256 256h384v256h-384v-256z" />
    <glyph glyph-name="q" unicode="q" 
d="M128 640h768v-768h-256v256h-512l-128 128v256zM256 256h384v256h-384v-256z" />
    <glyph glyph-name="r" unicode="r" 
d="M128 640h256v-128l128 128h384v-128h-320l-192 -192v-320h-256v640z" />
    <glyph glyph-name="s" unicode="s" 
d="M128 640h640v-128h-512v-128h512l128 -128v-128l-128 -128h-768v128h640v128h-512l-128 128v128z" />
    <glyph glyph-name="t" unicode="t" 
d="M128 640h256v256h256v-256h256v-128h-256v-512h-256v512h-256v128z" />
    <glyph glyph-name="u" unicode="u" 
d="M0 640h256v-512h384v512h256v-640h-768l-128 128v512z" />
    <glyph glyph-name="v" unicode="v" 
d="M128 640h256v-384h256v384h256v-384l-256 -256h-256l-256 256v384z" />
    <glyph glyph-name="w" unicode="w" 
d="M0 640h128v-512h128v512h256v-512h128v512h256v-640h-768l-128 128v512z" />
    <glyph glyph-name="x" unicode="x" 
d="M128 640h192l128 -128h128l128 128h192v-192l-128 -128l128 -128v-192h-192l-128 128h-128l-128 -128h-192v192l128 128l-128 128v192z" />
    <glyph glyph-name="y" unicode="y" 
d="M0 640h256v-384h384v384h256v-640l-128 -128h-640v128h512v128h-512l-128 128v384z" />
    <glyph glyph-name="z" unicode="z" 
d="M0 640h896v-128l-384 -384h384v-128h-896v128l384 384h-384v128z" />
    <glyph glyph-name="braceleft" unicode="{" 
d="M512 896h256v-128h-128v-256l-64 -64l64 -64v-256h128v-128h-256l-128 128v256h-128v128h128v256z" />
    <glyph glyph-name="bar" unicode="|" 
d="M384 896h256v-384h-256v384zM384 384h256v-384h-256v384z" />
    <glyph glyph-name="braceright" unicode="}" 
d="M256 896h256l128 -128v-256h128v-128h-128v-256l-128 -128h-256v128h128v256l64 64l-64 64v256h-128v128z" />
    <glyph glyph-name="asciitilde" unicode="~" 
d="M0 512l128 128h384l192 -192l64 64h128v-128l-128 -128h-384l-192 192l-64 -64h-128v128z" />
    <glyph glyph-name="uni00A0" unicode="&#xa0;" horiz-adv-x="512" 
 />
    <glyph glyph-name="exclamdown" unicode="&#xa1;" horiz-adv-x="512" 
 />
    <glyph glyph-name="cent" unicode="&#xa2;" horiz-adv-x="512" 
 />
    <glyph glyph-name="sterling" unicode="&#xa3;" horiz-adv-x="512" 
 />
    <glyph glyph-name="currency" unicode="&#xa4;" horiz-adv-x="512" 
 />
    <glyph glyph-name="yen" unicode="&#xa5;" horiz-adv-x="512" 
 />
    <glyph glyph-name="brokenbar" unicode="&#xa6;" horiz-adv-x="512" 
 />
    <glyph glyph-name="section" unicode="&#xa7;" 
 />
    <glyph glyph-name="dieresis" unicode="&#xa8;" 
 />
    <glyph glyph-name="copyright" unicode="&#xa9;" horiz-adv-x="512" 
 />
    <glyph glyph-name="ordfeminine" unicode="&#xaa;" horiz-adv-x="512" 
 />
    <glyph glyph-name="guillemotleft" unicode="&#xab;" horiz-adv-x="512" 
 />
    <glyph glyph-name="logicalnot" unicode="&#xac;" horiz-adv-x="512" 
 />
    <glyph glyph-name="uni00AD" unicode="&#xad;" horiz-adv-x="512" 
 />
    <glyph glyph-name="registered" unicode="&#xae;" horiz-adv-x="512" 
 />
    <glyph glyph-name="macron" unicode="&#xaf;" horiz-adv-x="512" 
 />
    <glyph glyph-name="degree" unicode="&#xb0;" 
 />
    <glyph glyph-name="plusminus" unicode="&#xb1;" 
 />
    <glyph glyph-name="uni00B2" unicode="&#xb2;" horiz-adv-x="512" 
 />
    <glyph glyph-name="uni00B3" unicode="&#xb3;" horiz-adv-x="512" 
 />
    <glyph glyph-name="acute" unicode="&#xb4;" 
 />
    <glyph glyph-name="uni00B5" unicode="&#xb5;" horiz-adv-x="512" 
 />
    <glyph glyph-name="paragraph" unicode="&#xb6;" 
 />
    <glyph glyph-name="periodcentered" unicode="&#xb7;" horiz-adv-x="512" 
 />
    <glyph glyph-name="cedilla" unicode="&#xb8;" horiz-adv-x="512" 
 />
    <glyph glyph-name="uni00B9" unicode="&#xb9;" horiz-adv-x="512" 
 />
    <glyph glyph-name="ordmasculine" unicode="&#xba;" horiz-adv-x="512" 
 />
    <glyph glyph-name="guillemotright" unicode="&#xbb;" horiz-adv-x="512" 
 />
    <glyph glyph-name="onequarter" unicode="&#xbc;" horiz-adv-x="512" 
 />
    <glyph glyph-name="onehalf" unicode="&#xbd;" horiz-adv-x="512" 
 />
    <glyph glyph-name="threequarters" unicode="&#xbe;" horiz-adv-x="512" 
 />
    <glyph glyph-name="questiondown" unicode="&#xbf;" horiz-adv-x="512" 
 />
    <glyph glyph-name="Agrave" unicode="&#xc0;" horiz-adv-x="512" 
 />
    <glyph glyph-name="Aacute" unicode="&#xc1;" horiz-adv-x="512" 
 />
    <glyph glyph-name="Acircumflex" unicode="&#xc2;" horiz-adv-x="512" 
 />
    <glyph glyph-name="Atilde" unicode="&#xc3;" horiz-adv-x="512" 
 />
    <glyph glyph-name="Adieresis" unicode="&#xc4;" horiz-adv-x="512" 
 />
    <glyph glyph-name="Aring" unicode="&#xc5;" horiz-adv-x="512" 
 />
    <glyph glyph-name="AE" unicode="&#xc6;" horiz-adv-x="512" 
 />
    <glyph glyph-name="Ccedilla" unicode="&#xc7;" horiz-adv-x="512" 
 />
    <glyph glyph-name="Egrave" unicode="&#xc8;" horiz-adv-x="512" 
 />
    <glyph glyph-name="Eacute" unicode="&#xc9;" horiz-adv-x="512" 
 />
    <glyph glyph-name="Ecircumflex" unicode="&#xca;" horiz-adv-x="512" 
 />
    <glyph glyph-name="Edieresis" unicode="&#xcb;" horiz-adv-x="512" 
 />
    <glyph glyph-name="Igrave" unicode="&#xcc;" horiz-adv-x="512" 
 />
    <glyph glyph-name="Iacute" unicode="&#xcd;" horiz-adv-x="512" 
 />
    <glyph glyph-name="Icircumflex" unicode="&#xce;" horiz-adv-x="512" 
 />
    <glyph glyph-name="Idieresis" unicode="&#xcf;" horiz-adv-x="512" 
 />
    <glyph glyph-name="Eth" unicode="&#xd0;" horiz-adv-x="512" 
 />
    <glyph glyph-name="Ntilde" unicode="&#xd1;" horiz-adv-x="512" 
 />
    <glyph glyph-name="Ograve" unicode="&#xd2;" horiz-adv-x="512" 
 />
    <glyph glyph-name="Oacute" unicode="&#xd3;" horiz-adv-x="512" 
 />
    <glyph glyph-name="Ocircumflex" unicode="&#xd4;" horiz-adv-x="512" 
 />
    <glyph glyph-name="Otilde" unicode="&#xd5;" horiz-adv-x="512" 
 />
    <glyph glyph-name="Odieresis" unicode="&#xd6;" horiz-adv-x="512" 
 />
    <glyph glyph-name="multiply" unicode="&#xd7;" 
 />
    <glyph glyph-name="Oslash" unicode="&#xd8;" horiz-adv-x="512" 
 />
    <glyph glyph-name="Ugrave" unicode="&#xd9;" horiz-adv-x="512" 
 />
    <glyph glyph-name="Uacute" unicode="&#xda;" horiz-adv-x="512" 
 />
    <glyph glyph-name="Ucircumflex" unicode="&#xdb;" horiz-adv-x="512" 
 />
    <glyph glyph-name="Udieresis" unicode="&#xdc;" horiz-adv-x="512" 
 />
    <glyph glyph-name="Yacute" unicode="&#xdd;" horiz-adv-x="512" 
 />
    <glyph glyph-name="Thorn" unicode="&#xde;" horiz-adv-x="512" 
 />
    <glyph glyph-name="germandbls" unicode="&#xdf;" horiz-adv-x="512" 
 />
    <glyph glyph-name="agrave" unicode="&#xe0;" horiz-adv-x="512" 
 />
    <glyph glyph-name="aacute" unicode="&#xe1;" horiz-adv-x="512" 
 />
    <glyph glyph-name="acircumflex" unicode="&#xe2;" horiz-adv-x="512" 
 />
    <glyph glyph-name="atilde" unicode="&#xe3;" horiz-adv-x="512" 
 />
    <glyph glyph-name="adieresis" unicode="&#xe4;" horiz-adv-x="512" 
 />
    <glyph glyph-name="aring" unicode="&#xe5;" horiz-adv-x="512" 
 />
    <glyph glyph-name="ae" unicode="&#xe6;" horiz-adv-x="512" 
 />
    <glyph glyph-name="ccedilla" unicode="&#xe7;" horiz-adv-x="512" 
 />
    <glyph glyph-name="egrave" unicode="&#xe8;" horiz-adv-x="512" 
 />
    <glyph glyph-name="eacute" unicode="&#xe9;" horiz-adv-x="512" 
 />
    <glyph glyph-name="ecircumflex" unicode="&#xea;" horiz-adv-x="512" 
 />
    <glyph glyph-name="edieresis" unicode="&#xeb;" horiz-adv-x="512" 
 />
    <glyph glyph-name="igrave" unicode="&#xec;" horiz-adv-x="512" 
 />
    <glyph glyph-name="iacute" unicode="&#xed;" horiz-adv-x="512" 
 />
    <glyph glyph-name="icircumflex" unicode="&#xee;" horiz-adv-x="512" 
 />
    <glyph glyph-name="idieresis" unicode="&#xef;" horiz-adv-x="512" 
 />
    <glyph glyph-name="eth" unicode="&#xf0;" horiz-adv-x="512" 
 />
    <glyph glyph-name="ntilde" unicode="&#xf1;" horiz-adv-x="512" 
 />
    <glyph glyph-name="ograve" unicode="&#xf2;" horiz-adv-x="512" 
 />
    <glyph glyph-name="oacute" unicode="&#xf3;" horiz-adv-x="512" 
 />
    <glyph glyph-name="ocircumflex" unicode="&#xf4;" horiz-adv-x="512" 
 />
    <glyph glyph-name="otilde" unicode="&#xf5;" horiz-adv-x="512" 
 />
    <glyph glyph-name="odieresis" unicode="&#xf6;" horiz-adv-x="512" 
 />
    <glyph glyph-name="divide" unicode="&#xf7;" 
 />
    <glyph glyph-name="oslash" unicode="&#xf8;" horiz-adv-x="512" 
 />
    <glyph glyph-name="ugrave" unicode="&#xf9;" horiz-adv-x="512" 
 />
    <glyph glyph-name="uacute" unicode="&#xfa;" horiz-adv-x="512" 
 />
    <glyph glyph-name="ucircumflex" unicode="&#xfb;" horiz-adv-x="512" 
 />
    <glyph glyph-name="udieresis" unicode="&#xfc;" horiz-adv-x="512" 
 />
    <glyph glyph-name="yacute" unicode="&#xfd;" horiz-adv-x="512" 
 />
    <glyph glyph-name="thorn" unicode="&#xfe;" horiz-adv-x="512" 
 />
    <glyph glyph-name="ydieresis" unicode="&#xff;" horiz-adv-x="512" 
 />
    <glyph glyph-name="Amacron" unicode="&#x100;" horiz-adv-x="512" 
 />
    <glyph glyph-name="amacron" unicode="&#x101;" horiz-adv-x="512" 
 />
    <glyph glyph-name="Abreve" unicode="&#x102;" horiz-adv-x="512" 
 />
    <glyph glyph-name="abreve" unicode="&#x103;" horiz-adv-x="512" 
 />
    <glyph glyph-name="Aogonek" unicode="&#x104;" horiz-adv-x="512" 
 />
    <glyph glyph-name="aogonek" unicode="&#x105;" horiz-adv-x="512" 
 />
    <glyph glyph-name="Cacute" unicode="&#x106;" horiz-adv-x="512" 
 />
    <glyph glyph-name="cacute" unicode="&#x107;" horiz-adv-x="512" 
 />
    <glyph glyph-name="Ccircumflex" unicode="&#x108;" horiz-adv-x="512" 
 />
    <glyph glyph-name="ccircumflex" unicode="&#x109;" horiz-adv-x="512" 
 />
    <glyph glyph-name="Cdotaccent" unicode="&#x10a;" horiz-adv-x="512" 
 />
    <glyph glyph-name="cdotaccent" unicode="&#x10b;" horiz-adv-x="512" 
 />
    <glyph glyph-name="Ccaron" unicode="&#x10c;" horiz-adv-x="512" 
 />
    <glyph glyph-name="ccaron" unicode="&#x10d;" horiz-adv-x="512" 
 />
    <glyph glyph-name="Dcaron" unicode="&#x10e;" horiz-adv-x="512" 
 />
    <glyph glyph-name="dcaron" unicode="&#x10f;" horiz-adv-x="512" 
 />
    <glyph glyph-name="Dcroat" unicode="&#x110;" horiz-adv-x="512" 
 />
    <glyph glyph-name="dcroat" unicode="&#x111;" horiz-adv-x="512" 
 />
    <glyph glyph-name="Emacron" unicode="&#x112;" horiz-adv-x="512" 
 />
    <glyph glyph-name="emacron" unicode="&#x113;" horiz-adv-x="512" 
 />
    <glyph glyph-name="Ebreve" unicode="&#x114;" horiz-adv-x="512" 
 />
    <glyph glyph-name="ebreve" unicode="&#x115;" horiz-adv-x="512" 
 />
    <glyph glyph-name="Edotaccent" unicode="&#x116;" horiz-adv-x="512" 
 />
    <glyph glyph-name="edotaccent" unicode="&#x117;" horiz-adv-x="512" 
 />
    <glyph glyph-name="Eogonek" unicode="&#x118;" horiz-adv-x="512" 
 />
    <glyph glyph-name="eogonek" unicode="&#x119;" horiz-adv-x="512" 
 />
    <glyph glyph-name="Ecaron" unicode="&#x11a;" horiz-adv-x="512" 
 />
    <glyph glyph-name="ecaron" unicode="&#x11b;" horiz-adv-x="512" 
 />
    <glyph glyph-name="Gcircumflex" unicode="&#x11c;" horiz-adv-x="512" 
 />
    <glyph glyph-name="gcircumflex" unicode="&#x11d;" horiz-adv-x="512" 
 />
    <glyph glyph-name="Gbreve" unicode="&#x11e;" horiz-adv-x="512" 
 />
    <glyph glyph-name="gbreve" unicode="&#x11f;" horiz-adv-x="512" 
 />
    <glyph glyph-name="Gdotaccent" unicode="&#x120;" horiz-adv-x="512" 
 />
    <glyph glyph-name="gdotaccent" unicode="&#x121;" horiz-adv-x="512" 
 />
    <glyph glyph-name="Gcommaaccent" unicode="&#x122;" horiz-adv-x="512" 
 />
    <glyph glyph-name="gcommaaccent" unicode="&#x123;" horiz-adv-x="512" 
 />
    <glyph glyph-name="Hcircumflex" unicode="&#x124;" horiz-adv-x="512" 
 />
    <glyph glyph-name="hcircumflex" unicode="&#x125;" horiz-adv-x="512" 
 />
    <glyph glyph-name="Hbar" unicode="&#x126;" horiz-adv-x="512" 
 />
    <glyph glyph-name="hbar" unicode="&#x127;" horiz-adv-x="512" 
 />
    <glyph glyph-name="Itilde" unicode="&#x128;" horiz-adv-x="512" 
 />
    <glyph glyph-name="itilde" unicode="&#x129;" horiz-adv-x="512" 
 />
    <glyph glyph-name="Imacron" unicode="&#x12a;" horiz-adv-x="512" 
 />
    <glyph glyph-name="imacron" unicode="&#x12b;" horiz-adv-x="512" 
 />
    <glyph glyph-name="Ibreve" unicode="&#x12c;" horiz-adv-x="512" 
 />
    <glyph glyph-name="ibreve" unicode="&#x12d;" horiz-adv-x="512" 
 />
    <glyph glyph-name="Iogonek" unicode="&#x12e;" horiz-adv-x="512" 
 />
    <glyph glyph-name="iogonek" unicode="&#x12f;" horiz-adv-x="512" 
 />
    <glyph glyph-name="Idotaccent" unicode="&#x130;" horiz-adv-x="512" 
 />
    <glyph glyph-name="dotlessi" unicode="&#x131;" horiz-adv-x="512" 
 />
    <glyph glyph-name="IJ" unicode="&#x132;" horiz-adv-x="512" 
 />
    <glyph glyph-name="ij" unicode="&#x133;" horiz-adv-x="512" 
 />
    <glyph glyph-name="Jcircumflex" unicode="&#x134;" horiz-adv-x="512" 
 />
    <glyph glyph-name="jcircumflex" unicode="&#x135;" horiz-adv-x="512" 
 />
    <glyph glyph-name="Kcommaaccent" unicode="&#x136;" horiz-adv-x="512" 
 />
    <glyph glyph-name="kcommaaccent" unicode="&#x137;" horiz-adv-x="512" 
 />
    <glyph glyph-name="kgreenlandic" unicode="&#x138;" horiz-adv-x="512" 
 />
    <glyph glyph-name="Lacute" unicode="&#x139;" horiz-adv-x="512" 
 />
    <glyph glyph-name="lacute" unicode="&#x13a;" horiz-adv-x="512" 
 />
    <glyph glyph-name="Lcommaaccent" unicode="&#x13b;" horiz-adv-x="512" 
 />
    <glyph glyph-name="lcommaaccent" unicode="&#x13c;" horiz-adv-x="512" 
 />
    <glyph glyph-name="Lcaron" unicode="&#x13d;" horiz-adv-x="512" 
 />
    <glyph glyph-name="lcaron" unicode="&#x13e;" horiz-adv-x="512" 
 />
    <glyph glyph-name="Ldot" unicode="&#x13f;" horiz-adv-x="512" 
 />
    <glyph glyph-name="ldot" unicode="&#x140;" horiz-adv-x="512" 
 />
    <glyph glyph-name="Lslash" unicode="&#x141;" horiz-adv-x="512" 
 />
    <glyph glyph-name="lslash" unicode="&#x142;" horiz-adv-x="512" 
 />
    <glyph glyph-name="Nacute" unicode="&#x143;" horiz-adv-x="512" 
 />
    <glyph glyph-name="nacute" unicode="&#x144;" horiz-adv-x="512" 
 />
    <glyph glyph-name="Ncommaaccent" unicode="&#x145;" horiz-adv-x="512" 
 />
    <glyph glyph-name="ncommaaccent" unicode="&#x146;" horiz-adv-x="512" 
 />
    <glyph glyph-name="Ncaron" unicode="&#x147;" horiz-adv-x="512" 
 />
    <glyph glyph-name="ncaron" unicode="&#x148;" horiz-adv-x="512" 
 />
    <glyph glyph-name="napostrophe" unicode="&#x149;" horiz-adv-x="512" 
 />
    <glyph glyph-name="Eng" unicode="&#x14a;" horiz-adv-x="512" 
 />
    <glyph glyph-name="eng" unicode="&#x14b;" horiz-adv-x="512" 
 />
    <glyph glyph-name="Omacron" unicode="&#x14c;" horiz-adv-x="512" 
 />
    <glyph glyph-name="omacron" unicode="&#x14d;" horiz-adv-x="512" 
 />
    <glyph glyph-name="Obreve" unicode="&#x14e;" horiz-adv-x="512" 
 />
    <glyph glyph-name="obreve" unicode="&#x14f;" horiz-adv-x="512" 
 />
    <glyph glyph-name="Ohungarumlaut" unicode="&#x150;" horiz-adv-x="512" 
 />
    <glyph glyph-name="ohungarumlaut" unicode="&#x151;" horiz-adv-x="512" 
 />
    <glyph glyph-name="OE" unicode="&#x152;" horiz-adv-x="512" 
 />
    <glyph glyph-name="oe" unicode="&#x153;" horiz-adv-x="512" 
 />
    <glyph glyph-name="Racute" unicode="&#x154;" horiz-adv-x="512" 
 />
    <glyph glyph-name="racute" unicode="&#x155;" horiz-adv-x="512" 
 />
    <glyph glyph-name="Rcommaaccent" unicode="&#x156;" horiz-adv-x="512" 
 />
    <glyph glyph-name="rcommaaccent" unicode="&#x157;" horiz-adv-x="512" 
 />
    <glyph glyph-name="Rcaron" unicode="&#x158;" horiz-adv-x="512" 
 />
    <glyph glyph-name="rcaron" unicode="&#x159;" horiz-adv-x="512" 
 />
    <glyph glyph-name="Sacute" unicode="&#x15a;" horiz-adv-x="512" 
 />
    <glyph glyph-name="sacute" unicode="&#x15b;" horiz-adv-x="512" 
 />
    <glyph glyph-name="Scircumflex" unicode="&#x15c;" horiz-adv-x="512" 
 />
    <glyph glyph-name="scircumflex" unicode="&#x15d;" horiz-adv-x="512" 
 />
    <glyph glyph-name="Scedilla" unicode="&#x15e;" horiz-adv-x="512" 
 />
    <glyph glyph-name="scedilla" unicode="&#x15f;" horiz-adv-x="512" 
 />
    <glyph glyph-name="Scaron" unicode="&#x160;" horiz-adv-x="512" 
 />
    <glyph glyph-name="scaron" unicode="&#x161;" horiz-adv-x="512" 
 />
    <glyph glyph-name="Tcommaaccent" unicode="&#x162;" horiz-adv-x="512" 
 />
    <glyph glyph-name="tcommaaccent" unicode="&#x163;" horiz-adv-x="512" 
 />
    <glyph glyph-name="Tcaron" unicode="&#x164;" horiz-adv-x="512" 
 />
    <glyph glyph-name="tcaron" unicode="&#x165;" horiz-adv-x="512" 
 />
    <glyph glyph-name="Tbar" unicode="&#x166;" horiz-adv-x="512" 
 />
    <glyph glyph-name="tbar" unicode="&#x167;" horiz-adv-x="512" 
 />
    <glyph glyph-name="Utilde" unicode="&#x168;" horiz-adv-x="512" 
 />
    <glyph glyph-name="utilde" unicode="&#x169;" horiz-adv-x="512" 
 />
    <glyph glyph-name="Umacron" unicode="&#x16a;" horiz-adv-x="512" 
 />
    <glyph glyph-name="umacron" unicode="&#x16b;" horiz-adv-x="512" 
 />
    <glyph glyph-name="Ubreve" unicode="&#x16c;" horiz-adv-x="512" 
 />
    <glyph glyph-name="ubreve" unicode="&#x16d;" horiz-adv-x="512" 
 />
    <glyph glyph-name="Uring" unicode="&#x16e;" horiz-adv-x="512" 
 />
    <glyph glyph-name="uring" unicode="&#x16f;" horiz-adv-x="512" 
 />
    <glyph glyph-name="Uhungarumlaut" unicode="&#x170;" horiz-adv-x="512" 
 />
    <glyph glyph-name="uhungarumlaut" unicode="&#x171;" horiz-adv-x="512" 
 />
    <glyph glyph-name="Uogonek" unicode="&#x172;" horiz-adv-x="512" 
 />
    <glyph glyph-name="uogonek" unicode="&#x173;" horiz-adv-x="512" 
 />
    <glyph glyph-name="Wcircumflex" unicode="&#x174;" horiz-adv-x="512" 
 />
    <glyph glyph-name="wcircumflex" unicode="&#x175;" horiz-adv-x="512" 
 />
    <glyph glyph-name="Ycircumflex" unicode="&#x176;" horiz-adv-x="512" 
 />
    <glyph glyph-name="ycircumflex" unicode="&#x177;" horiz-adv-x="512" 
 />
    <glyph glyph-name="Ydieresis" unicode="&#x178;" horiz-adv-x="512" 
 />
    <glyph glyph-name="Zacute" unicode="&#x179;" horiz-adv-x="512" 
 />
    <glyph glyph-name="zacute" unicode="&#x17a;" horiz-adv-x="512" 
 />
    <glyph glyph-name="Zdotaccent" unicode="&#x17b;" horiz-adv-x="512" 
 />
    <glyph glyph-name="zdotaccent" unicode="&#x17c;" horiz-adv-x="512" 
 />
    <glyph glyph-name="Zcaron" unicode="&#x17d;" horiz-adv-x="512" 
 />
    <glyph glyph-name="zcaron" unicode="&#x17e;" horiz-adv-x="512" 
 />
    <glyph glyph-name="longs" unicode="&#x17f;" horiz-adv-x="512" 
 />
    <glyph glyph-name="florin" unicode="&#x192;" horiz-adv-x="512" 
 />
    <glyph glyph-name="uni01CD" unicode="&#x1cd;" 
 />
    <glyph glyph-name="uni01CE" unicode="&#x1ce;" 
 />
    <glyph glyph-name="uni01CF" unicode="&#x1cf;" 
 />
    <glyph glyph-name="uni01D0" unicode="&#x1d0;" 
 />
    <glyph glyph-name="uni01D1" unicode="&#x1d1;" 
 />
    <glyph glyph-name="uni01D2" unicode="&#x1d2;" 
 />
    <glyph glyph-name="uni01D3" unicode="&#x1d3;" 
 />
    <glyph glyph-name="uni01D4" unicode="&#x1d4;" 
 />
    <glyph glyph-name="uni01D5" unicode="&#x1d5;" 
 />
    <glyph glyph-name="uni01D6" unicode="&#x1d6;" 
 />
    <glyph glyph-name="uni01D7" unicode="&#x1d7;" 
 />
    <glyph glyph-name="uni01D8" unicode="&#x1d8;" 
 />
    <glyph glyph-name="uni01D9" unicode="&#x1d9;" 
 />
    <glyph glyph-name="uni01DA" unicode="&#x1da;" 
 />
    <glyph glyph-name="uni01DB" unicode="&#x1db;" 
 />
    <glyph glyph-name="uni01DC" unicode="&#x1dc;" 
 />
    <glyph glyph-name="uni01F5" unicode="&#x1f5;" 
 />
    <glyph glyph-name="Aringacute" unicode="&#x1fa;" horiz-adv-x="512" 
 />
    <glyph glyph-name="aringacute" unicode="&#x1fb;" horiz-adv-x="512" 
 />
    <glyph glyph-name="AEacute" unicode="&#x1fc;" horiz-adv-x="512" 
 />
    <glyph glyph-name="aeacute" unicode="&#x1fd;" horiz-adv-x="512" 
 />
    <glyph glyph-name="Oslashacute" unicode="&#x1fe;" horiz-adv-x="512" 
 />
    <glyph glyph-name="oslashacute" unicode="&#x1ff;" horiz-adv-x="512" 
 />
    <glyph glyph-name="uni0250" unicode="&#x250;" horiz-adv-x="512" 
 />
    <glyph glyph-name="uni0251" unicode="&#x251;" horiz-adv-x="512" 
 />
    <glyph glyph-name="uni0252" unicode="&#x252;" horiz-adv-x="512" 
 />
    <glyph glyph-name="uni0253" unicode="&#x253;" horiz-adv-x="512" 
 />
    <glyph glyph-name="uni0254" unicode="&#x254;" horiz-adv-x="512" 
 />
    <glyph glyph-name="uni0255" unicode="&#x255;" horiz-adv-x="512" 
 />
    <glyph glyph-name="uni0256" unicode="&#x256;" horiz-adv-x="512" 
 />
    <glyph glyph-name="uni0257" unicode="&#x257;" horiz-adv-x="512" 
 />
    <glyph glyph-name="uni0258" unicode="&#x258;" horiz-adv-x="512" 
 />
    <glyph glyph-name="uni0259" unicode="&#x259;" horiz-adv-x="512" 
 />
    <glyph glyph-name="uni025A" unicode="&#x25a;" horiz-adv-x="512" 
 />
    <glyph glyph-name="uni025B" unicode="&#x25b;" horiz-adv-x="512" 
 />
    <glyph glyph-name="uni025C" unicode="&#x25c;" horiz-adv-x="512" 
 />
    <glyph glyph-name="uni025D" unicode="&#x25d;" horiz-adv-x="512" 
 />
    <glyph glyph-name="uni025E" unicode="&#x25e;" horiz-adv-x="512" 
 />
    <glyph glyph-name="uni025F" unicode="&#x25f;" horiz-adv-x="512" 
 />
    <glyph glyph-name="uni0260" unicode="&#x260;" horiz-adv-x="512" 
 />
    <glyph glyph-name="uni0261" unicode="&#x261;" horiz-adv-x="512" 
 />
    <glyph glyph-name="uni0262" unicode="&#x262;" horiz-adv-x="512" 
 />
    <glyph glyph-name="uni0263" unicode="&#x263;" horiz-adv-x="512" 
 />
    <glyph glyph-name="uni0264" unicode="&#x264;" horiz-adv-x="512" 
 />
    <glyph glyph-name="uni0265" unicode="&#x265;" horiz-adv-x="512" 
 />
    <glyph glyph-name="uni0266" unicode="&#x266;" horiz-adv-x="512" 
 />
    <glyph glyph-name="uni0267" unicode="&#x267;" horiz-adv-x="512" 
 />
    <glyph glyph-name="uni0268" unicode="&#x268;" horiz-adv-x="512" 
 />
    <glyph glyph-name="uni0269" unicode="&#x269;" horiz-adv-x="512" 
 />
    <glyph glyph-name="uni026A" unicode="&#x26a;" horiz-adv-x="512" 
 />
    <glyph glyph-name="uni026B" unicode="&#x26b;" horiz-adv-x="512" 
 />
    <glyph glyph-name="uni026C" unicode="&#x26c;" horiz-adv-x="512" 
 />
    <glyph glyph-name="uni026D" unicode="&#x26d;" horiz-adv-x="512" 
 />
    <glyph glyph-name="uni026E" unicode="&#x26e;" horiz-adv-x="512" 
 />
    <glyph glyph-name="uni026F" unicode="&#x26f;" horiz-adv-x="512" 
 />
    <glyph glyph-name="uni0270" unicode="&#x270;" horiz-adv-x="512" 
 />
    <glyph glyph-name="uni0271" unicode="&#x271;" horiz-adv-x="512" 
 />
    <glyph glyph-name="uni0272" unicode="&#x272;" horiz-adv-x="512" 
 />
    <glyph glyph-name="uni0273" unicode="&#x273;" horiz-adv-x="512" 
 />
    <glyph glyph-name="uni0274" unicode="&#x274;" horiz-adv-x="512" 
 />
    <glyph glyph-name="uni0275" unicode="&#x275;" horiz-adv-x="512" 
 />
    <glyph glyph-name="uni0276" unicode="&#x276;" horiz-adv-x="512" 
 />
    <glyph glyph-name="uni0277" unicode="&#x277;" horiz-adv-x="512" 
 />
    <glyph glyph-name="uni0278" unicode="&#x278;" horiz-adv-x="512" 
 />
    <glyph glyph-name="uni0279" unicode="&#x279;" horiz-adv-x="512" 
 />
    <glyph glyph-name="uni027A" unicode="&#x27a;" horiz-adv-x="512" 
 />
    <glyph glyph-name="uni027B" unicode="&#x27b;" horiz-adv-x="512" 
 />
    <glyph glyph-name="uni027C" unicode="&#x27c;" horiz-adv-x="512" 
 />
    <glyph glyph-name="uni027D" unicode="&#x27d;" horiz-adv-x="512" 
 />
    <glyph glyph-name="uni027E" unicode="&#x27e;" horiz-adv-x="512" 
 />
    <glyph glyph-name="uni027F" unicode="&#x27f;" horiz-adv-x="512" 
 />
    <glyph glyph-name="uni0280" unicode="&#x280;" horiz-adv-x="512" 
 />
    <glyph glyph-name="uni0281" unicode="&#x281;" horiz-adv-x="512" 
 />
    <glyph glyph-name="uni0282" unicode="&#x282;" horiz-adv-x="512" 
 />
    <glyph glyph-name="uni0283" unicode="&#x283;" horiz-adv-x="512" 
 />
    <glyph glyph-name="uni0284" unicode="&#x284;" horiz-adv-x="512" 
 />
    <glyph glyph-name="uni0285" unicode="&#x285;" horiz-adv-x="512" 
 />
    <glyph glyph-name="uni0286" unicode="&#x286;" horiz-adv-x="512" 
 />
    <glyph glyph-name="uni0287" unicode="&#x287;" horiz-adv-x="512" 
 />
    <glyph glyph-name="uni0288" unicode="&#x288;" horiz-adv-x="512" 
 />
    <glyph glyph-name="uni0289" unicode="&#x289;" horiz-adv-x="512" 
 />
    <glyph glyph-name="uni028A" unicode="&#x28a;" horiz-adv-x="512" 
 />
    <glyph glyph-name="uni028B" unicode="&#x28b;" horiz-adv-x="512" 
 />
    <glyph glyph-name="uni028C" unicode="&#x28c;" horiz-adv-x="512" 
 />
    <glyph glyph-name="uni028D" unicode="&#x28d;" horiz-adv-x="512" 
 />
    <glyph glyph-name="uni028E" unicode="&#x28e;" horiz-adv-x="512" 
 />
    <glyph glyph-name="uni028F" unicode="&#x28f;" horiz-adv-x="512" 
 />
    <glyph glyph-name="uni0290" unicode="&#x290;" horiz-adv-x="512" 
 />
    <glyph glyph-name="uni0291" unicode="&#x291;" horiz-adv-x="512" 
 />
    <glyph glyph-name="uni0292" unicode="&#x292;" horiz-adv-x="512" 
 />
    <glyph glyph-name="uni0293" unicode="&#x293;" horiz-adv-x="512" 
 />
    <glyph glyph-name="uni0294" unicode="&#x294;" horiz-adv-x="512" 
 />
    <glyph glyph-name="uni0295" unicode="&#x295;" horiz-adv-x="512" 
 />
    <glyph glyph-name="uni0296" unicode="&#x296;" horiz-adv-x="512" 
 />
    <glyph glyph-name="uni0297" unicode="&#x297;" horiz-adv-x="512" 
 />
    <glyph glyph-name="uni0298" unicode="&#x298;" horiz-adv-x="512" 
 />
    <glyph glyph-name="uni0299" unicode="&#x299;" horiz-adv-x="512" 
 />
    <glyph glyph-name="uni029A" unicode="&#x29a;" horiz-adv-x="512" 
 />
    <glyph glyph-name="uni029B" unicode="&#x29b;" horiz-adv-x="512" 
 />
    <glyph glyph-name="uni029C" unicode="&#x29c;" horiz-adv-x="512" 
 />
    <glyph glyph-name="uni029D" unicode="&#x29d;" horiz-adv-x="512" 
 />
    <glyph glyph-name="uni029E" unicode="&#x29e;" horiz-adv-x="512" 
 />
    <glyph glyph-name="uni029F" unicode="&#x29f;" horiz-adv-x="512" 
 />
    <glyph glyph-name="uni02A0" unicode="&#x2a0;" horiz-adv-x="512" 
 />
    <glyph glyph-name="uni02A1" unicode="&#x2a1;" horiz-adv-x="512" 
 />
    <glyph glyph-name="uni02A2" unicode="&#x2a2;" horiz-adv-x="512" 
 />
    <glyph glyph-name="uni02A3" unicode="&#x2a3;" horiz-adv-x="512" 
 />
    <glyph glyph-name="uni02A4" unicode="&#x2a4;" horiz-adv-x="512" 
 />
    <glyph glyph-name="uni02A5" unicode="&#x2a5;" horiz-adv-x="512" 
 />
    <glyph glyph-name="uni02A6" unicode="&#x2a6;" horiz-adv-x="512" 
 />
    <glyph glyph-name="uni02A7" unicode="&#x2a7;" horiz-adv-x="512" 
 />
    <glyph glyph-name="uni02A8" unicode="&#x2a8;" horiz-adv-x="512" 
 />
    <glyph glyph-name="circumflex" unicode="&#x2c6;" horiz-adv-x="512" 
 />
    <glyph glyph-name="caron" unicode="&#x2c7;" horiz-adv-x="512" 
 />
    <glyph glyph-name="uni02C9" unicode="&#x2c9;" horiz-adv-x="512" 
 />
    <glyph glyph-name="breve" unicode="&#x2d8;" horiz-adv-x="512" 
 />
    <glyph glyph-name="dotaccent" unicode="&#x2d9;" horiz-adv-x="512" 
 />
    <glyph glyph-name="ring" unicode="&#x2da;" horiz-adv-x="512" 
 />
    <glyph glyph-name="ogonek" unicode="&#x2db;" horiz-adv-x="512" 
 />
    <glyph glyph-name="tilde" unicode="&#x2dc;" horiz-adv-x="512" 
 />
    <glyph glyph-name="hungarumlaut" unicode="&#x2dd;" horiz-adv-x="512" 
 />
    <glyph glyph-name="uni0374" unicode="&#x374;" horiz-adv-x="512" 
 />
    <glyph glyph-name="uni0375" unicode="&#x375;" horiz-adv-x="512" 
 />
    <glyph glyph-name="uni037A" unicode="&#x37a;" horiz-adv-x="512" 
 />
    <glyph glyph-name="uni037E" unicode="&#x37e;" horiz-adv-x="512" 
 />
    <glyph glyph-name="tonos" unicode="&#x384;" horiz-adv-x="512" 
 />
    <glyph glyph-name="dieresistonos" unicode="&#x385;" horiz-adv-x="512" 
 />
    <glyph glyph-name="Alphatonos" unicode="&#x386;" horiz-adv-x="512" 
 />
    <glyph glyph-name="anoteleia" unicode="&#x387;" horiz-adv-x="512" 
 />
    <glyph glyph-name="Epsilontonos" unicode="&#x388;" horiz-adv-x="512" 
 />
    <glyph glyph-name="Etatonos" unicode="&#x389;" horiz-adv-x="512" 
 />
    <glyph glyph-name="Iotatonos" unicode="&#x38a;" horiz-adv-x="512" 
 />
    <glyph glyph-name="Omicrontonos" unicode="&#x38c;" horiz-adv-x="512" 
 />
    <glyph glyph-name="Upsilontonos" unicode="&#x38e;" horiz-adv-x="512" 
 />
    <glyph glyph-name="Omegatonos" unicode="&#x38f;" horiz-adv-x="512" 
 />
    <glyph glyph-name="iotadieresistonos" unicode="&#x390;" horiz-adv-x="512" 
 />
    <glyph glyph-name="Alpha" unicode="&#x391;" 
 />
    <glyph glyph-name="Beta" unicode="&#x392;" 
 />
    <glyph glyph-name="Gamma" unicode="&#x393;" 
 />
    <glyph glyph-name="Delta" unicode="&#x394;" 
 />
    <glyph glyph-name="Epsilon" unicode="&#x395;" 
 />
    <glyph glyph-name="Zeta" unicode="&#x396;" 
 />
    <glyph glyph-name="Eta" unicode="&#x397;" 
 />
    <glyph glyph-name="Theta" unicode="&#x398;" 
 />
    <glyph glyph-name="Iota" unicode="&#x399;" 
 />
    <glyph glyph-name="Kappa" unicode="&#x39a;" 
 />
    <glyph glyph-name="Lambda" unicode="&#x39b;" 
 />
    <glyph glyph-name="Mu" unicode="&#x39c;" 
 />
    <glyph glyph-name="Nu" unicode="&#x39d;" 
 />
    <glyph glyph-name="Xi" unicode="&#x39e;" 
 />
    <glyph glyph-name="Omicron" unicode="&#x39f;" 
 />
    <glyph glyph-name="Pi" unicode="&#x3a0;" 
 />
    <glyph glyph-name="Rho" unicode="&#x3a1;" 
 />
    <glyph glyph-name="Sigma" unicode="&#x3a3;" 
 />
    <glyph glyph-name="Tau" unicode="&#x3a4;" 
 />
    <glyph glyph-name="Upsilon" unicode="&#x3a5;" 
 />
    <glyph glyph-name="Phi" unicode="&#x3a6;" 
 />
    <glyph glyph-name="Chi" unicode="&#x3a7;" 
 />
    <glyph glyph-name="Psi" unicode="&#x3a8;" 
 />
    <glyph glyph-name="Omega" unicode="&#x3a9;" 
 />
    <glyph glyph-name="Iotadieresis" unicode="&#x3aa;" horiz-adv-x="512" 
 />
    <glyph glyph-name="Upsilondieresis" unicode="&#x3ab;" horiz-adv-x="512" 
 />
    <glyph glyph-name="alphatonos" unicode="&#x3ac;" horiz-adv-x="512" 
 />
    <glyph glyph-name="epsilontonos" unicode="&#x3ad;" horiz-adv-x="512" 
 />
    <glyph glyph-name="etatonos" unicode="&#x3ae;" horiz-adv-x="512" 
 />
    <glyph glyph-name="iotatonos" unicode="&#x3af;" horiz-adv-x="512" 
 />
    <glyph glyph-name="upsilondieresistonos" unicode="&#x3b0;" horiz-adv-x="512" 
 />
    <glyph glyph-name="alpha" unicode="&#x3b1;" 
 />
    <glyph glyph-name="beta" unicode="&#x3b2;" 
 />
    <glyph glyph-name="gamma" unicode="&#x3b3;" 
 />
    <glyph glyph-name="delta" unicode="&#x3b4;" 
 />
    <glyph glyph-name="epsilon" unicode="&#x3b5;" 
 />
    <glyph glyph-name="zeta" unicode="&#x3b6;" 
 />
    <glyph glyph-name="eta" unicode="&#x3b7;" 
 />
    <glyph glyph-name="theta" unicode="&#x3b8;" 
 />
    <glyph glyph-name="iota" unicode="&#x3b9;" 
 />
    <glyph glyph-name="kappa" unicode="&#x3ba;" 
 />
    <glyph glyph-name="lambda" unicode="&#x3bb;" 
 />
    <glyph glyph-name="mu" unicode="&#x3bc;" 
 />
    <glyph glyph-name="nu" unicode="&#x3bd;" 
 />
    <glyph glyph-name="xi" unicode="&#x3be;" 
 />
    <glyph glyph-name="omicron" unicode="&#x3bf;" 
 />
    <glyph glyph-name="pi" unicode="&#x3c0;" 
 />
    <glyph glyph-name="rho" unicode="&#x3c1;" 
 />
    <glyph glyph-name="sigma1" unicode="&#x3c2;" horiz-adv-x="512" 
 />
    <glyph glyph-name="sigma" unicode="&#x3c3;" 
 />
    <glyph glyph-name="tau" unicode="&#x3c4;" 
 />
    <glyph glyph-name="upsilon" unicode="&#x3c5;" 
 />
    <glyph glyph-name="phi" unicode="&#x3c6;" 
 />
    <glyph glyph-name="chi" unicode="&#x3c7;" 
 />
    <glyph glyph-name="psi" unicode="&#x3c8;" 
 />
    <glyph glyph-name="omega" unicode="&#x3c9;" 
 />
    <glyph glyph-name="iotadieresis" unicode="&#x3ca;" horiz-adv-x="512" 
 />
    <glyph glyph-name="upsilondieresis" unicode="&#x3cb;" horiz-adv-x="512" 
 />
    <glyph glyph-name="omicrontonos" unicode="&#x3cc;" horiz-adv-x="512" 
 />
    <glyph glyph-name="upsilontonos" unicode="&#x3cd;" horiz-adv-x="512" 
 />
    <glyph glyph-name="omegatonos" unicode="&#x3ce;" horiz-adv-x="512" 
 />
    <glyph glyph-name="afii10023" unicode="&#x401;" 
 />
    <glyph glyph-name="afii10051" unicode="&#x402;" horiz-adv-x="512" 
 />
    <glyph glyph-name="afii10052" unicode="&#x403;" horiz-adv-x="512" 
 />
    <glyph glyph-name="afii10053" unicode="&#x404;" horiz-adv-x="512" 
 />
    <glyph glyph-name="afii10054" unicode="&#x405;" horiz-adv-x="512" 
 />
    <glyph glyph-name="afii10055" unicode="&#x406;" horiz-adv-x="512" 
 />
    <glyph glyph-name="afii10056" unicode="&#x407;" horiz-adv-x="512" 
 />
    <glyph glyph-name="afii10057" unicode="&#x408;" horiz-adv-x="512" 
 />
    <glyph glyph-name="afii10058" unicode="&#x409;" horiz-adv-x="512" 
 />
    <glyph glyph-name="afii10059" unicode="&#x40a;" horiz-adv-x="512" 
 />
    <glyph glyph-name="afii10060" unicode="&#x40b;" horiz-adv-x="512" 
 />
    <glyph glyph-name="afii10061" unicode="&#x40c;" horiz-adv-x="512" 
 />
    <glyph glyph-name="afii10062" unicode="&#x40e;" horiz-adv-x="512" 
 />
    <glyph glyph-name="afii10145" unicode="&#x40f;" horiz-adv-x="512" 
 />
    <glyph glyph-name="afii10017" unicode="&#x410;" 
 />
    <glyph glyph-name="afii10018" unicode="&#x411;" 
 />
    <glyph glyph-name="afii10019" unicode="&#x412;" 
 />
    <glyph glyph-name="afii10020" unicode="&#x413;" 
 />
    <glyph glyph-name="afii10021" unicode="&#x414;" 
 />
    <glyph glyph-name="afii10022" unicode="&#x415;" 
 />
    <glyph glyph-name="afii10024" unicode="&#x416;" 
 />
    <glyph glyph-name="afii10025" unicode="&#x417;" 
 />
    <glyph glyph-name="afii10026" unicode="&#x418;" 
 />
    <glyph glyph-name="afii10027" unicode="&#x419;" 
 />
    <glyph glyph-name="afii10028" unicode="&#x41a;" 
 />
    <glyph glyph-name="afii10029" unicode="&#x41b;" 
 />
    <glyph glyph-name="afii10030" unicode="&#x41c;" 
 />
    <glyph glyph-name="afii10031" unicode="&#x41d;" 
 />
    <glyph glyph-name="afii10032" unicode="&#x41e;" 
 />
    <glyph glyph-name="afii10033" unicode="&#x41f;" 
 />
    <glyph glyph-name="afii10034" unicode="&#x420;" 
 />
    <glyph glyph-name="afii10035" unicode="&#x421;" 
 />
    <glyph glyph-name="afii10036" unicode="&#x422;" 
 />
    <glyph glyph-name="afii10037" unicode="&#x423;" 
 />
    <glyph glyph-name="afii10038" unicode="&#x424;" 
 />
    <glyph glyph-name="afii10039" unicode="&#x425;" 
 />
    <glyph glyph-name="afii10040" unicode="&#x426;" 
 />
    <glyph glyph-name="afii10041" unicode="&#x427;" 
 />
    <glyph glyph-name="afii10042" unicode="&#x428;" 
 />
    <glyph glyph-name="afii10043" unicode="&#x429;" 
 />
    <glyph glyph-name="afii10044" unicode="&#x42a;" 
 />
    <glyph glyph-name="afii10045" unicode="&#x42b;" 
 />
    <glyph glyph-name="afii10046" unicode="&#x42c;" 
 />
    <glyph glyph-name="afii10047" unicode="&#x42d;" 
 />
    <glyph glyph-name="afii10048" unicode="&#x42e;" 
 />
    <glyph glyph-name="afii10049" unicode="&#x42f;" 
 />
    <glyph glyph-name="afii10065" unicode="&#x430;" 
 />
    <glyph glyph-name="afii10066" unicode="&#x431;" 
 />
    <glyph glyph-name="afii10067" unicode="&#x432;" 
 />
    <glyph glyph-name="afii10068" unicode="&#x433;" 
 />
    <glyph glyph-name="afii10069" unicode="&#x434;" 
 />
    <glyph glyph-name="afii10070" unicode="&#x435;" 
 />
    <glyph glyph-name="afii10072" unicode="&#x436;" 
 />
    <glyph glyph-name="afii10073" unicode="&#x437;" 
 />
    <glyph glyph-name="afii10074" unicode="&#x438;" 
 />
    <glyph glyph-name="afii10075" unicode="&#x439;" 
 />
    <glyph glyph-name="afii10076" unicode="&#x43a;" 
 />
    <glyph glyph-name="afii10077" unicode="&#x43b;" 
 />
    <glyph glyph-name="afii10078" unicode="&#x43c;" 
 />
    <glyph glyph-name="afii10079" unicode="&#x43d;" 
 />
    <glyph glyph-name="afii10080" unicode="&#x43e;" 
 />
    <glyph glyph-name="afii10081" unicode="&#x43f;" 
 />
    <glyph glyph-name="afii10082" unicode="&#x440;" 
 />
    <glyph glyph-name="afii10083" unicode="&#x441;" 
 />
    <glyph glyph-name="afii10084" unicode="&#x442;" 
 />
    <glyph glyph-name="afii10085" unicode="&#x443;" 
 />
    <glyph glyph-name="afii10086" unicode="&#x444;" 
 />
    <glyph glyph-name="afii10087" unicode="&#x445;" 
 />
    <glyph glyph-name="afii10088" unicode="&#x446;" 
 />
    <glyph glyph-name="afii10089" unicode="&#x447;" 
 />
    <glyph glyph-name="afii10090" unicode="&#x448;" 
 />
    <glyph glyph-name="afii10091" unicode="&#x449;" 
 />
    <glyph glyph-name="afii10092" unicode="&#x44a;" 
 />
    <glyph glyph-name="afii10093" unicode="&#x44b;" 
 />
    <glyph glyph-name="afii10094" unicode="&#x44c;" 
 />
    <glyph glyph-name="afii10095" unicode="&#x44d;" 
 />
    <glyph glyph-name="afii10096" unicode="&#x44e;" 
 />
    <glyph glyph-name="afii10097" unicode="&#x44f;" 
 />
    <glyph glyph-name="afii10071" unicode="&#x451;" 
 />
    <glyph glyph-name="afii10099" unicode="&#x452;" horiz-adv-x="512" 
 />
    <glyph glyph-name="afii10100" unicode="&#x453;" horiz-adv-x="512" 
 />
    <glyph glyph-name="afii10101" unicode="&#x454;" horiz-adv-x="512" 
 />
    <glyph glyph-name="afii10102" unicode="&#x455;" horiz-adv-x="512" 
 />
    <glyph glyph-name="afii10103" unicode="&#x456;" horiz-adv-x="512" 
 />
    <glyph glyph-name="afii10104" unicode="&#x457;" horiz-adv-x="512" 
 />
    <glyph glyph-name="afii10105" unicode="&#x458;" horiz-adv-x="512" 
 />
    <glyph glyph-name="afii10106" unicode="&#x459;" horiz-adv-x="512" 
 />
    <glyph glyph-name="afii10107" unicode="&#x45a;" horiz-adv-x="512" 
 />
    <glyph glyph-name="afii10108" unicode="&#x45b;" horiz-adv-x="512" 
 />
    <glyph glyph-name="afii10109" unicode="&#x45c;" horiz-adv-x="512" 
 />
    <glyph glyph-name="afii10110" unicode="&#x45e;" horiz-adv-x="512" 
 />
    <glyph glyph-name="afii10193" unicode="&#x45f;" horiz-adv-x="512" 
 />
    <glyph glyph-name="uni0460" unicode="&#x460;" horiz-adv-x="512" 
 />
    <glyph glyph-name="uni0461" unicode="&#x461;" horiz-adv-x="512" 
 />
    <glyph glyph-name="afii10146" unicode="&#x462;" horiz-adv-x="512" 
 />
    <glyph glyph-name="afii10194" unicode="&#x463;" horiz-adv-x="512" 
 />
    <glyph glyph-name="uni0464" unicode="&#x464;" horiz-adv-x="512" 
 />
    <glyph glyph-name="uni0465" unicode="&#x465;" horiz-adv-x="512" 
 />
    <glyph glyph-name="uni0466" unicode="&#x466;" horiz-adv-x="512" 
 />
    <glyph glyph-name="uni0467" unicode="&#x467;" horiz-adv-x="512" 
 />
    <glyph glyph-name="uni0468" unicode="&#x468;" horiz-adv-x="512" 
 />
    <glyph glyph-name="uni0469" unicode="&#x469;" horiz-adv-x="512" 
 />
    <glyph glyph-name="uni046A" unicode="&#x46a;" horiz-adv-x="512" 
 />
    <glyph glyph-name="uni046B" unicode="&#x46b;" horiz-adv-x="512" 
 />
    <glyph glyph-name="uni046C" unicode="&#x46c;" horiz-adv-x="512" 
 />
    <glyph glyph-name="uni046D" unicode="&#x46d;" horiz-adv-x="512" 
 />
    <glyph glyph-name="uni046E" unicode="&#x46e;" horiz-adv-x="512" 
 />
    <glyph glyph-name="uni046F" unicode="&#x46f;" horiz-adv-x="512" 
 />
    <glyph glyph-name="uni0470" unicode="&#x470;" horiz-adv-x="512" 
 />
    <glyph glyph-name="uni0471" unicode="&#x471;" horiz-adv-x="512" 
 />
    <glyph glyph-name="afii10147" unicode="&#x472;" horiz-adv-x="512" 
 />
    <glyph glyph-name="afii10195" unicode="&#x473;" horiz-adv-x="512" 
 />
    <glyph glyph-name="afii10148" unicode="&#x474;" horiz-adv-x="512" 
 />
    <glyph glyph-name="afii10196" unicode="&#x475;" horiz-adv-x="512" 
 />
    <glyph glyph-name="uni0476" unicode="&#x476;" horiz-adv-x="512" 
 />
    <glyph glyph-name="uni0477" unicode="&#x477;" horiz-adv-x="512" 
 />
    <glyph glyph-name="uni0478" unicode="&#x478;" horiz-adv-x="512" 
 />
    <glyph glyph-name="uni0479" unicode="&#x479;" horiz-adv-x="512" 
 />
    <glyph glyph-name="uni047A" unicode="&#x47a;" horiz-adv-x="512" 
 />
    <glyph glyph-name="uni047B" unicode="&#x47b;" horiz-adv-x="512" 
 />
    <glyph glyph-name="uni047C" unicode="&#x47c;" horiz-adv-x="512" 
 />
    <glyph glyph-name="uni047D" unicode="&#x47d;" horiz-adv-x="512" 
 />
    <glyph glyph-name="uni047E" unicode="&#x47e;" horiz-adv-x="512" 
 />
    <glyph glyph-name="uni047F" unicode="&#x47f;" horiz-adv-x="512" 
 />
    <glyph glyph-name="uni0480" unicode="&#x480;" horiz-adv-x="512" 
 />
    <glyph glyph-name="uni0481" unicode="&#x481;" horiz-adv-x="512" 
 />
    <glyph glyph-name="uni0482" unicode="&#x482;" horiz-adv-x="512" 
 />
    <glyph glyph-name="uni0483" unicode="&#x483;" horiz-adv-x="512" 
 />
    <glyph glyph-name="uni0484" unicode="&#x484;" horiz-adv-x="512" 
 />
    <glyph glyph-name="uni0485" unicode="&#x485;" horiz-adv-x="512" 
 />
    <glyph glyph-name="uni0486" unicode="&#x486;" horiz-adv-x="512" 
 />
    <glyph glyph-name="afii10050" unicode="&#x490;" horiz-adv-x="512" 
 />
    <glyph glyph-name="afii10098" unicode="&#x491;" horiz-adv-x="512" 
 />
    <glyph glyph-name="uni0492" unicode="&#x492;" horiz-adv-x="512" 
 />
    <glyph glyph-name="uni0493" unicode="&#x493;" horiz-adv-x="512" 
 />
    <glyph glyph-name="uni0494" unicode="&#x494;" horiz-adv-x="512" 
 />
    <glyph glyph-name="uni0495" unicode="&#x495;" horiz-adv-x="512" 
 />
    <glyph glyph-name="uni0496" unicode="&#x496;" horiz-adv-x="512" 
 />
    <glyph glyph-name="uni0497" unicode="&#x497;" horiz-adv-x="512" 
 />
    <glyph glyph-name="uni0498" unicode="&#x498;" horiz-adv-x="512" 
 />
    <glyph glyph-name="uni0499" unicode="&#x499;" horiz-adv-x="512" 
 />
    <glyph glyph-name="uni049A" unicode="&#x49a;" horiz-adv-x="512" 
 />
    <glyph glyph-name="uni049B" unicode="&#x49b;" horiz-adv-x="512" 
 />
    <glyph glyph-name="uni049C" unicode="&#x49c;" horiz-adv-x="512" 
 />
    <glyph glyph-name="uni049D" unicode="&#x49d;" horiz-adv-x="512" 
 />
    <glyph glyph-name="uni049E" unicode="&#x49e;" horiz-adv-x="512" 
 />
    <glyph glyph-name="uni049F" unicode="&#x49f;" horiz-adv-x="512" 
 />
    <glyph glyph-name="uni04A0" unicode="&#x4a0;" horiz-adv-x="512" 
 />
    <glyph glyph-name="uni04A1" unicode="&#x4a1;" horiz-adv-x="512" 
 />
    <glyph glyph-name="uni04A2" unicode="&#x4a2;" horiz-adv-x="512" 
 />
    <glyph glyph-name="uni04A3" unicode="&#x4a3;" horiz-adv-x="512" 
 />
    <glyph glyph-name="uni04A4" unicode="&#x4a4;" horiz-adv-x="512" 
 />
    <glyph glyph-name="uni04A5" unicode="&#x4a5;" horiz-adv-x="512" 
 />
    <glyph glyph-name="uni04A6" unicode="&#x4a6;" horiz-adv-x="512" 
 />
    <glyph glyph-name="uni04A7" unicode="&#x4a7;" horiz-adv-x="512" 
 />
    <glyph glyph-name="uni04A8" unicode="&#x4a8;" horiz-adv-x="512" 
 />
    <glyph glyph-name="uni04A9" unicode="&#x4a9;" horiz-adv-x="512" 
 />
    <glyph glyph-name="uni04AA" unicode="&#x4aa;" horiz-adv-x="512" 
 />
    <glyph glyph-name="uni04AB" unicode="&#x4ab;" horiz-adv-x="512" 
 />
    <glyph glyph-name="uni04AC" unicode="&#x4ac;" horiz-adv-x="512" 
 />
    <glyph glyph-name="uni04AD" unicode="&#x4ad;" horiz-adv-x="512" 
 />
    <glyph glyph-name="uni04AE" unicode="&#x4ae;" horiz-adv-x="512" 
 />
    <glyph glyph-name="uni04AF" unicode="&#x4af;" horiz-adv-x="512" 
 />
    <glyph glyph-name="uni04B0" unicode="&#x4b0;" horiz-adv-x="512" 
 />
    <glyph glyph-name="uni04B1" unicode="&#x4b1;" horiz-adv-x="512" 
 />
    <glyph glyph-name="uni04B2" unicode="&#x4b2;" horiz-adv-x="512" 
 />
    <glyph glyph-name="uni04B3" unicode="&#x4b3;" horiz-adv-x="512" 
 />
    <glyph glyph-name="uni04B4" unicode="&#x4b4;" horiz-adv-x="512" 
 />
    <glyph glyph-name="uni04B5" unicode="&#x4b5;" horiz-adv-x="512" 
 />
    <glyph glyph-name="uni04B6" unicode="&#x4b6;" horiz-adv-x="512" 
 />
    <glyph glyph-name="uni04B7" unicode="&#x4b7;" horiz-adv-x="512" 
 />
    <glyph glyph-name="uni04B8" unicode="&#x4b8;" horiz-adv-x="512" 
 />
    <glyph glyph-name="uni04B9" unicode="&#x4b9;" horiz-adv-x="512" 
 />
    <glyph glyph-name="uni04BA" unicode="&#x4ba;" horiz-adv-x="512" 
 />
    <glyph glyph-name="uni04BB" unicode="&#x4bb;" horiz-adv-x="512" 
 />
    <glyph glyph-name="uni04BC" unicode="&#x4bc;" horiz-adv-x="512" 
 />
    <glyph glyph-name="uni04BD" unicode="&#x4bd;" horiz-adv-x="512" 
 />
    <glyph glyph-name="uni04BE" unicode="&#x4be;" horiz-adv-x="512" 
 />
    <glyph glyph-name="uni04BF" unicode="&#x4bf;" horiz-adv-x="512" 
 />
    <glyph glyph-name="uni04C0" unicode="&#x4c0;" horiz-adv-x="512" 
 />
    <glyph glyph-name="uni04C1" unicode="&#x4c1;" horiz-adv-x="512" 
 />
    <glyph glyph-name="uni04C2" unicode="&#x4c2;" horiz-adv-x="512" 
 />
    <glyph glyph-name="uni04C3" unicode="&#x4c3;" horiz-adv-x="512" 
 />
    <glyph glyph-name="uni04C4" unicode="&#x4c4;" horiz-adv-x="512" 
 />
    <glyph glyph-name="uni04C7" unicode="&#x4c7;" horiz-adv-x="512" 
 />
    <glyph glyph-name="uni04C8" unicode="&#x4c8;" horiz-adv-x="512" 
 />
    <glyph glyph-name="uni04CB" unicode="&#x4cb;" horiz-adv-x="512" 
 />
    <glyph glyph-name="uni04CC" unicode="&#x4cc;" horiz-adv-x="512" 
 />
    <glyph glyph-name="uni04D0" unicode="&#x4d0;" horiz-adv-x="512" 
 />
    <glyph glyph-name="uni04D1" unicode="&#x4d1;" horiz-adv-x="512" 
 />
    <glyph glyph-name="uni04D2" unicode="&#x4d2;" horiz-adv-x="512" 
 />
    <glyph glyph-name="uni04D3" unicode="&#x4d3;" horiz-adv-x="512" 
 />
    <glyph glyph-name="uni04D4" unicode="&#x4d4;" horiz-adv-x="512" 
 />
    <glyph glyph-name="uni04D5" unicode="&#x4d5;" horiz-adv-x="512" 
 />
    <glyph glyph-name="uni04D6" unicode="&#x4d6;" horiz-adv-x="512" 
 />
    <glyph glyph-name="uni04D7" unicode="&#x4d7;" horiz-adv-x="512" 
 />
    <glyph glyph-name="uni04D8" unicode="&#x4d8;" horiz-adv-x="512" 
 />
    <glyph glyph-name="afii10846" unicode="&#x4d9;" horiz-adv-x="512" 
 />
    <glyph glyph-name="uni04DA" unicode="&#x4da;" horiz-adv-x="512" 
 />
    <glyph glyph-name="uni04DB" unicode="&#x4db;" horiz-adv-x="512" 
 />
    <glyph glyph-name="uni04DC" unicode="&#x4dc;" horiz-adv-x="512" 
 />
    <glyph glyph-name="uni04DD" unicode="&#x4dd;" horiz-adv-x="512" 
 />
    <glyph glyph-name="uni04DE" unicode="&#x4de;" horiz-adv-x="512" 
 />
    <glyph glyph-name="uni04DF" unicode="&#x4df;" horiz-adv-x="512" 
 />
    <glyph glyph-name="uni04E0" unicode="&#x4e0;" horiz-adv-x="512" 
 />
    <glyph glyph-name="uni04E1" unicode="&#x4e1;" horiz-adv-x="512" 
 />
    <glyph glyph-name="uni04E2" unicode="&#x4e2;" horiz-adv-x="512" 
 />
    <glyph glyph-name="uni04E3" unicode="&#x4e3;" horiz-adv-x="512" 
 />
    <glyph glyph-name="uni04E4" unicode="&#x4e4;" horiz-adv-x="512" 
 />
    <glyph glyph-name="uni04E5" unicode="&#x4e5;" horiz-adv-x="512" 
 />
    <glyph glyph-name="uni04E6" unicode="&#x4e6;" horiz-adv-x="512" 
 />
    <glyph glyph-name="uni04E7" unicode="&#x4e7;" horiz-adv-x="512" 
 />
    <glyph glyph-name="uni04E8" unicode="&#x4e8;" horiz-adv-x="512" 
 />
    <glyph glyph-name="uni04E9" unicode="&#x4e9;" horiz-adv-x="512" 
 />
    <glyph glyph-name="uni04EA" unicode="&#x4ea;" horiz-adv-x="512" 
 />
    <glyph glyph-name="uni04EB" unicode="&#x4eb;" horiz-adv-x="512" 
 />
    <glyph glyph-name="uni04EE" unicode="&#x4ee;" horiz-adv-x="512" 
 />
    <glyph glyph-name="uni04EF" unicode="&#x4ef;" horiz-adv-x="512" 
 />
    <glyph glyph-name="uni04F0" unicode="&#x4f0;" horiz-adv-x="512" 
 />
    <glyph glyph-name="uni04F1" unicode="&#x4f1;" horiz-adv-x="512" 
 />
    <glyph glyph-name="uni04F2" unicode="&#x4f2;" horiz-adv-x="512" 
 />
    <glyph glyph-name="uni04F3" unicode="&#x4f3;" horiz-adv-x="512" 
 />
    <glyph glyph-name="uni04F4" unicode="&#x4f4;" horiz-adv-x="512" 
 />
    <glyph glyph-name="uni04F5" unicode="&#x4f5;" horiz-adv-x="512" 
 />
    <glyph glyph-name="uni04F8" unicode="&#x4f8;" horiz-adv-x="512" 
 />
    <glyph glyph-name="uni04F9" unicode="&#x4f9;" horiz-adv-x="512" 
 />
    <glyph glyph-name="Wgrave" unicode="&#x1e80;" horiz-adv-x="512" 
 />
    <glyph glyph-name="wgrave" unicode="&#x1e81;" horiz-adv-x="512" 
 />
    <glyph glyph-name="Wacute" unicode="&#x1e82;" horiz-adv-x="512" 
 />
    <glyph glyph-name="wacute" unicode="&#x1e83;" horiz-adv-x="512" 
 />
    <glyph glyph-name="Wdieresis" unicode="&#x1e84;" horiz-adv-x="512" 
 />
    <glyph glyph-name="wdieresis" unicode="&#x1e85;" horiz-adv-x="512" 
 />
    <glyph glyph-name="Ygrave" unicode="&#x1ef2;" horiz-adv-x="512" 
 />
    <glyph glyph-name="ygrave" unicode="&#x1ef3;" horiz-adv-x="512" 
 />
    <glyph glyph-name="uni2000" unicode="&#x2000;" horiz-adv-x="512" 
 />
    <glyph glyph-name="uni2001" unicode="&#x2001;" 
 />
    <glyph glyph-name="uni2002" unicode="&#x2002;" horiz-adv-x="512" 
 />
    <glyph glyph-name="uni2003" unicode="&#x2003;" 
 />
    <glyph glyph-name="uni2004" unicode="&#x2004;" horiz-adv-x="512" 
 />
    <glyph glyph-name="uni2005" unicode="&#x2005;" horiz-adv-x="512" 
 />
    <glyph glyph-name="uni2006" unicode="&#x2006;" horiz-adv-x="512" 
 />
    <glyph glyph-name="uni2007" unicode="&#x2007;" horiz-adv-x="512" 
 />
    <glyph glyph-name="uni2008" unicode="&#x2008;" horiz-adv-x="512" 
 />
    <glyph glyph-name="uni2009" unicode="&#x2009;" horiz-adv-x="512" 
 />
    <glyph glyph-name="uni200A" unicode="&#x200a;" horiz-adv-x="512" 
 />
    <glyph glyph-name="uni200B" unicode="&#x200b;" horiz-adv-x="512" 
 />
    <glyph glyph-name="afii61664" unicode="&#x200c;" horiz-adv-x="512" 
 />
    <glyph glyph-name="afii301" unicode="&#x200d;" horiz-adv-x="512" 
 />
    <glyph glyph-name="afii299" unicode="&#x200e;" horiz-adv-x="512" 
 />
    <glyph glyph-name="afii300" unicode="&#x200f;" horiz-adv-x="512" 
 />
    <glyph glyph-name="uni2010" unicode="&#x2010;" 
 />
    <glyph glyph-name="uni2011" unicode="&#x2011;" horiz-adv-x="512" 
 />
    <glyph glyph-name="figuredash" unicode="&#x2012;" horiz-adv-x="512" 
 />
    <glyph glyph-name="endash" unicode="&#x2013;" horiz-adv-x="512" 
 />
    <glyph glyph-name="emdash" unicode="&#x2014;" horiz-adv-x="512" 
 />
    <glyph glyph-name="afii00208" unicode="&#x2015;" 
d="M0 512h896v-128h-896v128z" />
    <glyph glyph-name="underscoredbl" unicode="&#x2017;" horiz-adv-x="512" 
 />
    <glyph glyph-name="quoteleft" unicode="&#x2018;" 
 />
    <glyph glyph-name="quoteright" unicode="&#x2019;" 
d="M256 896h256v-384h-128v-128h-256v128h128v384z" />
    <glyph glyph-name="quotesinglbase" unicode="&#x201a;" horiz-adv-x="512" 
 />
    <glyph glyph-name="quotereversed" unicode="&#x201b;" horiz-adv-x="512" 
 />
    <glyph glyph-name="quotedblleft" unicode="&#x201c;" 
 />
    <glyph glyph-name="quotedblright" unicode="&#x201d;" 
d="M256 896h256v-256h-128v-128h-256v128h128v256zM640 896h256v-256h-128v-128h-256v128h128v256z" />
    <glyph glyph-name="quotedblbase" unicode="&#x201e;" horiz-adv-x="512" 
 />
    <glyph glyph-name="uni201F" unicode="&#x201f;" horiz-adv-x="512" 
 />
    <glyph glyph-name="dagger" unicode="&#x2020;" 
 />
    <glyph glyph-name="daggerdbl" unicode="&#x2021;" 
 />
    <glyph glyph-name="bullet" unicode="&#x2022;" horiz-adv-x="512" 
 />
    <glyph glyph-name="uni2023" unicode="&#x2023;" horiz-adv-x="512" 
 />
    <glyph glyph-name="onedotenleader" unicode="&#x2024;" horiz-adv-x="512" 
 />
    <glyph glyph-name="twodotenleader" unicode="&#x2025;" 
 />
    <glyph glyph-name="ellipsis" unicode="&#x2026;" 
 />
    <glyph glyph-name="uni2027" unicode="&#x2027;" horiz-adv-x="512" 
 />
    <glyph glyph-name="uni2028" unicode="&#x2028;" horiz-adv-x="512" 
 />
    <glyph glyph-name="uni2029" unicode="&#x2029;" horiz-adv-x="512" 
 />
    <glyph glyph-name="uni202A" unicode="&#x202a;" horiz-adv-x="512" 
 />
    <glyph glyph-name="uni202B" unicode="&#x202b;" horiz-adv-x="512" 
 />
    <glyph glyph-name="afii61573" unicode="&#x202c;" horiz-adv-x="512" 
 />
    <glyph glyph-name="afii61574" unicode="&#x202d;" horiz-adv-x="512" 
 />
    <glyph glyph-name="afii61575" unicode="&#x202e;" horiz-adv-x="512" 
 />
    <glyph glyph-name="perthousand" unicode="&#x2030;" 
 />
    <glyph glyph-name="uni2031" unicode="&#x2031;" horiz-adv-x="512" 
 />
    <glyph glyph-name="minute" unicode="&#x2032;" 
 />
    <glyph glyph-name="second" unicode="&#x2033;" 
 />
    <glyph glyph-name="uni2034" unicode="&#x2034;" horiz-adv-x="512" 
 />
    <glyph glyph-name="uni2035" unicode="&#x2035;" horiz-adv-x="512" 
 />
    <glyph glyph-name="uni2036" unicode="&#x2036;" horiz-adv-x="512" 
 />
    <glyph glyph-name="uni2037" unicode="&#x2037;" horiz-adv-x="512" 
 />
    <glyph glyph-name="uni2038" unicode="&#x2038;" horiz-adv-x="512" 
 />
    <glyph glyph-name="guilsinglleft" unicode="&#x2039;" horiz-adv-x="512" 
 />
    <glyph glyph-name="guilsinglright" unicode="&#x203a;" horiz-adv-x="512" 
 />
    <glyph glyph-name="uni203B" unicode="&#x203b;" 
 />
    <glyph glyph-name="exclamdbl" unicode="&#x203c;" horiz-adv-x="512" 
 />
    <glyph glyph-name="uni203D" unicode="&#x203d;" horiz-adv-x="512" 
 />
    <glyph glyph-name="uni203E" unicode="&#x203e;" horiz-adv-x="512" 
 />
    <glyph glyph-name="uni203F" unicode="&#x203f;" horiz-adv-x="512" 
 />
    <glyph glyph-name="uni2040" unicode="&#x2040;" horiz-adv-x="512" 
 />
    <glyph glyph-name="uni2041" unicode="&#x2041;" horiz-adv-x="512" 
 />
    <glyph glyph-name="uni2042" unicode="&#x2042;" horiz-adv-x="512" 
 />
    <glyph glyph-name="uni2043" unicode="&#x2043;" horiz-adv-x="512" 
 />
    <glyph glyph-name="fraction" unicode="&#x2044;" horiz-adv-x="512" 
 />
    <glyph glyph-name="uni2045" unicode="&#x2045;" horiz-adv-x="512" 
 />
    <glyph glyph-name="uni2046" unicode="&#x2046;" horiz-adv-x="512" 
 />
    <glyph glyph-name="uni2070" unicode="&#x2070;" horiz-adv-x="512" 
 />
    <glyph glyph-name="uni2074" unicode="&#x2074;" horiz-adv-x="512" 
 />
    <glyph glyph-name="uni2075" unicode="&#x2075;" horiz-adv-x="512" 
 />
    <glyph glyph-name="uni2076" unicode="&#x2076;" horiz-adv-x="512" 
 />
    <glyph glyph-name="uni2077" unicode="&#x2077;" horiz-adv-x="512" 
 />
    <glyph glyph-name="uni2078" unicode="&#x2078;" horiz-adv-x="512" 
 />
    <glyph glyph-name="uni2079" unicode="&#x2079;" horiz-adv-x="512" 
 />
    <glyph glyph-name="uni207A" unicode="&#x207a;" horiz-adv-x="512" 
 />
    <glyph glyph-name="uni207B" unicode="&#x207b;" horiz-adv-x="512" 
 />
    <glyph glyph-name="uni207C" unicode="&#x207c;" horiz-adv-x="512" 
 />
    <glyph glyph-name="uni207D" unicode="&#x207d;" horiz-adv-x="512" 
 />
    <glyph glyph-name="uni207E" unicode="&#x207e;" horiz-adv-x="512" 
 />
    <glyph glyph-name="uni207F" unicode="&#x207f;" horiz-adv-x="512" 
 />
    <glyph glyph-name="uni2080" unicode="&#x2080;" horiz-adv-x="512" 
 />
    <glyph glyph-name="uni2081" unicode="&#x2081;" horiz-adv-x="512" 
 />
    <glyph glyph-name="uni2082" unicode="&#x2082;" horiz-adv-x="512" 
 />
    <glyph glyph-name="uni2083" unicode="&#x2083;" horiz-adv-x="512" 
 />
    <glyph glyph-name="uni2084" unicode="&#x2084;" horiz-adv-x="512" 
 />
    <glyph glyph-name="uni2085" unicode="&#x2085;" horiz-adv-x="512" 
 />
    <glyph glyph-name="uni2086" unicode="&#x2086;" horiz-adv-x="512" 
 />
    <glyph glyph-name="uni2087" unicode="&#x2087;" horiz-adv-x="512" 
 />
    <glyph glyph-name="uni2088" unicode="&#x2088;" horiz-adv-x="512" 
 />
    <glyph glyph-name="uni2089" unicode="&#x2089;" horiz-adv-x="512" 
 />
    <glyph glyph-name="uni208A" unicode="&#x208a;" horiz-adv-x="512" 
 />
    <glyph glyph-name="uni208B" unicode="&#x208b;" horiz-adv-x="512" 
 />
    <glyph glyph-name="uni208C" unicode="&#x208c;" horiz-adv-x="512" 
 />
    <glyph glyph-name="uni208D" unicode="&#x208d;" horiz-adv-x="512" 
 />
    <glyph glyph-name="uni208E" unicode="&#x208e;" horiz-adv-x="512" 
 />
    <glyph glyph-name="uni20A0" unicode="&#x20a0;" horiz-adv-x="512" 
 />
    <glyph glyph-name="colonmonetary" unicode="&#x20a1;" horiz-adv-x="512" 
 />
    <glyph glyph-name="uni20A2" unicode="&#x20a2;" horiz-adv-x="512" 
 />
    <glyph glyph-name="franc" unicode="&#x20a3;" horiz-adv-x="512" 
 />
    <glyph glyph-name="lira" unicode="&#x20a4;" horiz-adv-x="512" 
 />
    <glyph glyph-name="uni20A5" unicode="&#x20a5;" horiz-adv-x="512" 
 />
    <glyph glyph-name="uni20A6" unicode="&#x20a6;" horiz-adv-x="512" 
 />
    <glyph glyph-name="peseta" unicode="&#x20a7;" horiz-adv-x="512" 
 />
    <glyph glyph-name="uni20A8" unicode="&#x20a8;" horiz-adv-x="512" 
 />
    <glyph glyph-name="uni20A9" unicode="&#x20a9;" horiz-adv-x="512" 
 />
    <glyph glyph-name="afii57636" unicode="&#x20aa;" horiz-adv-x="512" 
 />
    <glyph glyph-name="uni2100" unicode="&#x2100;" horiz-adv-x="512" 
 />
    <glyph glyph-name="uni2101" unicode="&#x2101;" horiz-adv-x="512" 
 />
    <glyph glyph-name="uni2102" unicode="&#x2102;" horiz-adv-x="512" 
 />
    <glyph glyph-name="uni2103" unicode="&#x2103;" 
 />
    <glyph glyph-name="uni2104" unicode="&#x2104;" horiz-adv-x="512" 
 />
    <glyph glyph-name="afii61248" unicode="&#x2105;" horiz-adv-x="512" 
 />
    <glyph glyph-name="uni2106" unicode="&#x2106;" horiz-adv-x="512" 
 />
    <glyph glyph-name="uni2107" unicode="&#x2107;" horiz-adv-x="512" 
 />
    <glyph glyph-name="uni2108" unicode="&#x2108;" horiz-adv-x="512" 
 />
    <glyph glyph-name="uni2109" unicode="&#x2109;" horiz-adv-x="512" 
 />
    <glyph glyph-name="uni210A" unicode="&#x210a;" horiz-adv-x="512" 
 />
    <glyph glyph-name="uni210B" unicode="&#x210b;" horiz-adv-x="512" 
 />
    <glyph glyph-name="uni210C" unicode="&#x210c;" horiz-adv-x="512" 
 />
    <glyph glyph-name="uni210D" unicode="&#x210d;" horiz-adv-x="512" 
 />
    <glyph glyph-name="uni210E" unicode="&#x210e;" horiz-adv-x="512" 
 />
    <glyph glyph-name="uni210F" unicode="&#x210f;" horiz-adv-x="512" 
 />
    <glyph glyph-name="uni2110" unicode="&#x2110;" horiz-adv-x="512" 
 />
    <glyph glyph-name="Ifraktur" unicode="&#x2111;" horiz-adv-x="512" 
 />
    <glyph glyph-name="uni2112" unicode="&#x2112;" horiz-adv-x="512" 
 />
    <glyph glyph-name="afii61289" unicode="&#x2113;" horiz-adv-x="512" 
 />
    <glyph glyph-name="uni2114" unicode="&#x2114;" horiz-adv-x="512" 
 />
    <glyph glyph-name="uni2115" unicode="&#x2115;" horiz-adv-x="512" 
 />
    <glyph glyph-name="afii61352" unicode="&#x2116;" 
 />
    <glyph glyph-name="uni2117" unicode="&#x2117;" horiz-adv-x="512" 
 />
    <glyph glyph-name="weierstrass" unicode="&#x2118;" horiz-adv-x="512" 
 />
    <glyph glyph-name="uni2119" unicode="&#x2119;" horiz-adv-x="512" 
 />
    <glyph glyph-name="uni211A" unicode="&#x211a;" horiz-adv-x="512" 
 />
    <glyph glyph-name="uni211B" unicode="&#x211b;" horiz-adv-x="512" 
 />
    <glyph glyph-name="Rfraktur" unicode="&#x211c;" horiz-adv-x="512" 
 />
    <glyph glyph-name="uni211D" unicode="&#x211d;" horiz-adv-x="512" 
 />
    <glyph glyph-name="prescription" unicode="&#x211e;" horiz-adv-x="512" 
 />
    <glyph glyph-name="uni211F" unicode="&#x211f;" horiz-adv-x="512" 
 />
    <glyph glyph-name="uni2120" unicode="&#x2120;" horiz-adv-x="512" 
 />
    <glyph glyph-name="uni2121" unicode="&#x2121;" 
 />
    <glyph glyph-name="trademark" unicode="&#x2122;" horiz-adv-x="512" 
 />
    <glyph glyph-name="uni2123" unicode="&#x2123;" horiz-adv-x="512" 
 />
    <glyph glyph-name="uni2124" unicode="&#x2124;" horiz-adv-x="512" 
 />
    <glyph glyph-name="uni2125" unicode="&#x2125;" horiz-adv-x="512" 
 />
    <glyph glyph-name="uni2126" unicode="&#x2126;" horiz-adv-x="512" 
 />
    <glyph glyph-name="uni2127" unicode="&#x2127;" horiz-adv-x="512" 
 />
    <glyph glyph-name="uni2128" unicode="&#x2128;" horiz-adv-x="512" 
 />
    <glyph glyph-name="uni2129" unicode="&#x2129;" horiz-adv-x="512" 
 />
    <glyph glyph-name="uni212A" unicode="&#x212a;" horiz-adv-x="512" 
 />
    <glyph glyph-name="uni212B" unicode="&#x212b;" 
 />
    <glyph glyph-name="uni212C" unicode="&#x212c;" horiz-adv-x="512" 
 />
    <glyph glyph-name="uni212D" unicode="&#x212d;" horiz-adv-x="512" 
 />
    <glyph glyph-name="estimated" unicode="&#x212e;" horiz-adv-x="512" 
 />
    <glyph glyph-name="uni212F" unicode="&#x212f;" horiz-adv-x="512" 
 />
    <glyph glyph-name="uni2130" unicode="&#x2130;" horiz-adv-x="512" 
 />
    <glyph glyph-name="uni2131" unicode="&#x2131;" horiz-adv-x="512" 
 />
    <glyph glyph-name="uni2132" unicode="&#x2132;" horiz-adv-x="512" 
 />
    <glyph glyph-name="uni2133" unicode="&#x2133;" horiz-adv-x="512" 
 />
    <glyph glyph-name="uni2134" unicode="&#x2134;" horiz-adv-x="512" 
 />
    <glyph glyph-name="aleph" unicode="&#x2135;" horiz-adv-x="512" 
 />
    <glyph glyph-name="uni2136" unicode="&#x2136;" horiz-adv-x="512" 
 />
    <glyph glyph-name="uni2137" unicode="&#x2137;" horiz-adv-x="512" 
 />
    <glyph glyph-name="uni2138" unicode="&#x2138;" horiz-adv-x="512" 
 />
    <glyph glyph-name="onethird" unicode="&#x2153;" horiz-adv-x="512" 
 />
    <glyph glyph-name="twothirds" unicode="&#x2154;" horiz-adv-x="512" 
 />
    <glyph glyph-name="uni2155" unicode="&#x2155;" horiz-adv-x="512" 
 />
    <glyph glyph-name="uni2156" unicode="&#x2156;" horiz-adv-x="512" 
 />
    <glyph glyph-name="uni2157" unicode="&#x2157;" horiz-adv-x="512" 
 />
    <glyph glyph-name="uni2158" unicode="&#x2158;" horiz-adv-x="512" 
 />
    <glyph glyph-name="uni2159" unicode="&#x2159;" horiz-adv-x="512" 
 />
    <glyph glyph-name="uni215A" unicode="&#x215a;" horiz-adv-x="512" 
 />
    <glyph glyph-name="oneeighth" unicode="&#x215b;" horiz-adv-x="512" 
 />
    <glyph glyph-name="threeeighths" unicode="&#x215c;" horiz-adv-x="512" 
 />
    <glyph glyph-name="fiveeighths" unicode="&#x215d;" horiz-adv-x="512" 
 />
    <glyph glyph-name="seveneighths" unicode="&#x215e;" horiz-adv-x="512" 
 />
    <glyph glyph-name="uni215F" unicode="&#x215f;" horiz-adv-x="512" 
 />
    <glyph glyph-name="uni2160" unicode="&#x2160;" 
 />
    <glyph glyph-name="uni2161" unicode="&#x2161;" 
 />
    <glyph glyph-name="uni2162" unicode="&#x2162;" 
 />
    <glyph glyph-name="uni2163" unicode="&#x2163;" 
 />
    <glyph glyph-name="uni2164" unicode="&#x2164;" 
 />
    <glyph glyph-name="uni2165" unicode="&#x2165;" 
 />
    <glyph glyph-name="uni2166" unicode="&#x2166;" 
 />
    <glyph glyph-name="uni2167" unicode="&#x2167;" 
 />
    <glyph glyph-name="uni2168" unicode="&#x2168;" 
 />
    <glyph glyph-name="uni2169" unicode="&#x2169;" 
 />
    <glyph glyph-name="uni216A" unicode="&#x216a;" 
 />
    <glyph glyph-name="uni216B" unicode="&#x216b;" 
 />
    <glyph glyph-name="uni216C" unicode="&#x216c;" 
 />
    <glyph glyph-name="uni216D" unicode="&#x216d;" 
 />
    <glyph glyph-name="uni216E" unicode="&#x216e;" 
 />
    <glyph glyph-name="uni216F" unicode="&#x216f;" 
 />
    <glyph glyph-name="uni2170" unicode="&#x2170;" 
 />
    <glyph glyph-name="uni2171" unicode="&#x2171;" 
 />
    <glyph glyph-name="uni2172" unicode="&#x2172;" 
 />
    <glyph glyph-name="uni2173" unicode="&#x2173;" 
 />
    <glyph glyph-name="uni2174" unicode="&#x2174;" 
 />
    <glyph glyph-name="uni2175" unicode="&#x2175;" 
 />
    <glyph glyph-name="uni2176" unicode="&#x2176;" 
 />
    <glyph glyph-name="uni2177" unicode="&#x2177;" 
 />
    <glyph glyph-name="uni2178" unicode="&#x2178;" 
 />
    <glyph glyph-name="uni2179" unicode="&#x2179;" 
 />
    <glyph glyph-name="uni217A" unicode="&#x217a;" 
 />
    <glyph glyph-name="uni217B" unicode="&#x217b;" 
 />
    <glyph glyph-name="uni217C" unicode="&#x217c;" 
 />
    <glyph glyph-name="uni217D" unicode="&#x217d;" 
 />
    <glyph glyph-name="uni217E" unicode="&#x217e;" 
 />
    <glyph glyph-name="uni217F" unicode="&#x217f;" 
 />
    <glyph glyph-name="uni2180" unicode="&#x2180;" 
 />
    <glyph glyph-name="uni2181" unicode="&#x2181;" 
 />
    <glyph glyph-name="uni2182" unicode="&#x2182;" 
 />
    <glyph glyph-name="arrowleft" unicode="&#x2190;" 
 />
    <glyph glyph-name="arrowup" unicode="&#x2191;" 
 />
    <glyph glyph-name="arrowright" unicode="&#x2192;" 
 />
    <glyph glyph-name="arrowdown" unicode="&#x2193;" 
 />
    <glyph glyph-name="arrowboth" unicode="&#x2194;" horiz-adv-x="512" 
 />
    <glyph glyph-name="arrowupdn" unicode="&#x2195;" horiz-adv-x="512" 
 />
    <glyph glyph-name="uni2196" unicode="&#x2196;" horiz-adv-x="512" 
 />
    <glyph glyph-name="uni2197" unicode="&#x2197;" horiz-adv-x="512" 
 />
    <glyph glyph-name="uni2198" unicode="&#x2198;" horiz-adv-x="512" 
 />
    <glyph glyph-name="uni2199" unicode="&#x2199;" horiz-adv-x="512" 
 />
    <glyph glyph-name="uni219A" unicode="&#x219a;" horiz-adv-x="512" 
 />
    <glyph glyph-name="uni219B" unicode="&#x219b;" horiz-adv-x="512" 
 />
    <glyph glyph-name="uni219C" unicode="&#x219c;" horiz-adv-x="512" 
 />
    <glyph glyph-name="uni219D" unicode="&#x219d;" horiz-adv-x="512" 
 />
    <glyph glyph-name="uni219E" unicode="&#x219e;" horiz-adv-x="512" 
 />
    <glyph glyph-name="uni219F" unicode="&#x219f;" horiz-adv-x="512" 
 />
    <glyph glyph-name="uni21A0" unicode="&#x21a0;" horiz-adv-x="512" 
 />
    <glyph glyph-name="uni21A1" unicode="&#x21a1;" horiz-adv-x="512" 
 />
    <glyph glyph-name="uni21A2" unicode="&#x21a2;" horiz-adv-x="512" 
 />
    <glyph glyph-name="uni21A3" unicode="&#x21a3;" horiz-adv-x="512" 
 />
    <glyph glyph-name="uni21A4" unicode="&#x21a4;" horiz-adv-x="512" 
 />
    <glyph glyph-name="uni21A5" unicode="&#x21a5;" horiz-adv-x="512" 
 />
    <glyph glyph-name="uni21A6" unicode="&#x21a6;" horiz-adv-x="512" 
 />
    <glyph glyph-name="uni21A7" unicode="&#x21a7;" horiz-adv-x="512" 
 />
    <glyph glyph-name="arrowupdnbse" unicode="&#x21a8;" horiz-adv-x="512" 
 />
    <glyph glyph-name="uni21A9" unicode="&#x21a9;" horiz-adv-x="512" 
 />
    <glyph glyph-name="uni21AA" unicode="&#x21aa;" horiz-adv-x="512" 
 />
    <glyph glyph-name="uni21AB" unicode="&#x21ab;" horiz-adv-x="512" 
 />
    <glyph glyph-name="uni21AC" unicode="&#x21ac;" horiz-adv-x="512" 
 />
    <glyph glyph-name="uni21AD" unicode="&#x21ad;" horiz-adv-x="512" 
 />
    <glyph glyph-name="uni21AE" unicode="&#x21ae;" horiz-adv-x="512" 
 />
    <glyph glyph-name="uni21AF" unicode="&#x21af;" horiz-adv-x="512" 
 />
    <glyph glyph-name="uni21B0" unicode="&#x21b0;" horiz-adv-x="512" 
 />
    <glyph glyph-name="uni21B1" unicode="&#x21b1;" horiz-adv-x="512" 
 />
    <glyph glyph-name="uni21B2" unicode="&#x21b2;" horiz-adv-x="512" 
 />
    <glyph glyph-name="uni21B3" unicode="&#x21b3;" horiz-adv-x="512" 
 />
    <glyph glyph-name="uni21B4" unicode="&#x21b4;" horiz-adv-x="512" 
 />
    <glyph glyph-name="carriagereturn" unicode="&#x21b5;" horiz-adv-x="512" 
 />
    <glyph glyph-name="uni21B6" unicode="&#x21b6;" horiz-adv-x="512" 
 />
    <glyph glyph-name="uni21B7" unicode="&#x21b7;" horiz-adv-x="512" 
 />
    <glyph glyph-name="uni21B8" unicode="&#x21b8;" horiz-adv-x="512" 
 />
    <glyph glyph-name="uni21B9" unicode="&#x21b9;" horiz-adv-x="512" 
 />
    <glyph glyph-name="uni21BA" unicode="&#x21ba;" horiz-adv-x="512" 
 />
    <glyph glyph-name="uni21BB" unicode="&#x21bb;" horiz-adv-x="512" 
 />
    <glyph glyph-name="uni21BC" unicode="&#x21bc;" horiz-adv-x="512" 
 />
    <glyph glyph-name="uni21BD" unicode="&#x21bd;" horiz-adv-x="512" 
 />
    <glyph glyph-name="uni21BE" unicode="&#x21be;" horiz-adv-x="512" 
 />
    <glyph glyph-name="uni21BF" unicode="&#x21bf;" horiz-adv-x="512" 
 />
    <glyph glyph-name="uni21C0" unicode="&#x21c0;" horiz-adv-x="512" 
 />
    <glyph glyph-name="uni21C1" unicode="&#x21c1;" horiz-adv-x="512" 
 />
    <glyph glyph-name="uni21C2" unicode="&#x21c2;" horiz-adv-x="512" 
 />
    <glyph glyph-name="uni21C3" unicode="&#x21c3;" horiz-adv-x="512" 
 />
    <glyph glyph-name="uni21C4" unicode="&#x21c4;" horiz-adv-x="512" 
 />
    <glyph glyph-name="uni21C5" unicode="&#x21c5;" horiz-adv-x="512" 
 />
    <glyph glyph-name="uni21C6" unicode="&#x21c6;" horiz-adv-x="512" 
 />
    <glyph glyph-name="uni21C7" unicode="&#x21c7;" horiz-adv-x="512" 
 />
    <glyph glyph-name="uni21C8" unicode="&#x21c8;" horiz-adv-x="512" 
 />
    <glyph glyph-name="uni21C9" unicode="&#x21c9;" horiz-adv-x="512" 
 />
    <glyph glyph-name="uni21CA" unicode="&#x21ca;" horiz-adv-x="512" 
 />
    <glyph glyph-name="uni21CB" unicode="&#x21cb;" horiz-adv-x="512" 
 />
    <glyph glyph-name="uni21CC" unicode="&#x21cc;" horiz-adv-x="512" 
 />
    <glyph glyph-name="uni21CD" unicode="&#x21cd;" horiz-adv-x="512" 
 />
    <glyph glyph-name="uni21CE" unicode="&#x21ce;" horiz-adv-x="512" 
 />
    <glyph glyph-name="uni21CF" unicode="&#x21cf;" horiz-adv-x="512" 
 />
    <glyph glyph-name="arrowdblleft" unicode="&#x21d0;" horiz-adv-x="512" 
 />
    <glyph glyph-name="arrowdblup" unicode="&#x21d1;" horiz-adv-x="512" 
 />
    <glyph glyph-name="arrowdblright" unicode="&#x21d2;" 
 />
    <glyph glyph-name="arrowdbldown" unicode="&#x21d3;" horiz-adv-x="512" 
 />
    <glyph glyph-name="arrowdblboth" unicode="&#x21d4;" 
 />
    <glyph glyph-name="uni21D5" unicode="&#x21d5;" horiz-adv-x="512" 
 />
    <glyph glyph-name="uni21D6" unicode="&#x21d6;" horiz-adv-x="512" 
 />
    <glyph glyph-name="uni21D7" unicode="&#x21d7;" horiz-adv-x="512" 
 />
    <glyph glyph-name="uni21D8" unicode="&#x21d8;" horiz-adv-x="512" 
 />
    <glyph glyph-name="uni21D9" unicode="&#x21d9;" horiz-adv-x="512" 
 />
    <glyph glyph-name="uni21DA" unicode="&#x21da;" horiz-adv-x="512" 
 />
    <glyph glyph-name="uni21DB" unicode="&#x21db;" horiz-adv-x="512" 
 />
    <glyph glyph-name="uni21DC" unicode="&#x21dc;" horiz-adv-x="512" 
 />
    <glyph glyph-name="uni21DD" unicode="&#x21dd;" horiz-adv-x="512" 
 />
    <glyph glyph-name="uni21DE" unicode="&#x21de;" horiz-adv-x="512" 
 />
    <glyph glyph-name="uni21DF" unicode="&#x21df;" horiz-adv-x="512" 
 />
    <glyph glyph-name="uni21E0" unicode="&#x21e0;" horiz-adv-x="512" 
 />
    <glyph glyph-name="uni21E1" unicode="&#x21e1;" horiz-adv-x="512" 
 />
    <glyph glyph-name="uni21E2" unicode="&#x21e2;" horiz-adv-x="512" 
 />
    <glyph glyph-name="uni21E3" unicode="&#x21e3;" horiz-adv-x="512" 
 />
    <glyph glyph-name="uni21E4" unicode="&#x21e4;" horiz-adv-x="512" 
 />
    <glyph glyph-name="uni21E5" unicode="&#x21e5;" horiz-adv-x="512" 
 />
    <glyph glyph-name="uni21E6" unicode="&#x21e6;" horiz-adv-x="512" 
 />
    <glyph glyph-name="uni21E7" unicode="&#x21e7;" horiz-adv-x="512" 
 />
    <glyph glyph-name="uni21E8" unicode="&#x21e8;" horiz-adv-x="512" 
 />
    <glyph glyph-name="uni21E9" unicode="&#x21e9;" horiz-adv-x="512" 
 />
    <glyph glyph-name="uni21EA" unicode="&#x21ea;" horiz-adv-x="512" 
 />
    <glyph glyph-name="universal" unicode="&#x2200;" 
 />
    <glyph glyph-name="uni2201" unicode="&#x2201;" horiz-adv-x="512" 
 />
    <glyph glyph-name="partialdiff" unicode="&#x2202;" 
 />
    <glyph glyph-name="existential" unicode="&#x2203;" 
 />
    <glyph glyph-name="uni2204" unicode="&#x2204;" horiz-adv-x="512" 
 />
    <glyph glyph-name="emptyset" unicode="&#x2205;" horiz-adv-x="512" 
 />
    <glyph glyph-name="uni2206" unicode="&#x2206;" horiz-adv-x="512" 
 />
    <glyph glyph-name="gradient" unicode="&#x2207;" 
 />
    <glyph glyph-name="element" unicode="&#x2208;" 
 />
    <glyph glyph-name="notelement" unicode="&#x2209;" horiz-adv-x="512" 
 />
    <glyph glyph-name="uni220A" unicode="&#x220a;" horiz-adv-x="512" 
 />
    <glyph glyph-name="suchthat" unicode="&#x220b;" 
 />
    <glyph glyph-name="uni220C" unicode="&#x220c;" horiz-adv-x="512" 
 />
    <glyph glyph-name="uni220D" unicode="&#x220d;" horiz-adv-x="512" 
 />
    <glyph glyph-name="uni220E" unicode="&#x220e;" horiz-adv-x="512" 
 />
    <glyph glyph-name="product" unicode="&#x220f;" horiz-adv-x="512" 
 />
    <glyph glyph-name="uni2210" unicode="&#x2210;" horiz-adv-x="512" 
 />
    <glyph glyph-name="summation" unicode="&#x2211;" 
 />
    <glyph glyph-name="minus" unicode="&#x2212;" horiz-adv-x="512" 
 />
    <glyph glyph-name="uni2213" unicode="&#x2213;" horiz-adv-x="512" 
 />
    <glyph glyph-name="uni2214" unicode="&#x2214;" horiz-adv-x="512" 
 />
    <glyph glyph-name="uni2215" unicode="&#x2215;" horiz-adv-x="512" 
 />
    <glyph glyph-name="uni2216" unicode="&#x2216;" horiz-adv-x="512" 
 />
    <glyph glyph-name="asteriskmath" unicode="&#x2217;" horiz-adv-x="512" 
 />
    <glyph glyph-name="uni2218" unicode="&#x2218;" horiz-adv-x="512" 
 />
    <glyph glyph-name="uni2219" unicode="&#x2219;" horiz-adv-x="512" 
 />
    <glyph glyph-name="radical" unicode="&#x221a;" 
 />
    <glyph glyph-name="uni221B" unicode="&#x221b;" horiz-adv-x="512" 
 />
    <glyph glyph-name="uni221C" unicode="&#x221c;" horiz-adv-x="512" 
 />
    <glyph glyph-name="proportional" unicode="&#x221d;" 
 />
    <glyph glyph-name="infinity" unicode="&#x221e;" 
 />
    <glyph glyph-name="orthogonal" unicode="&#x221f;" 
 />
    <glyph glyph-name="angle" unicode="&#x2220;" 
 />
    <glyph glyph-name="uni2221" unicode="&#x2221;" horiz-adv-x="512" 
 />
    <glyph glyph-name="uni2222" unicode="&#x2222;" horiz-adv-x="512" 
 />
    <glyph glyph-name="uni2223" unicode="&#x2223;" horiz-adv-x="512" 
 />
    <glyph glyph-name="uni2224" unicode="&#x2224;" horiz-adv-x="512" 
 />
    <glyph glyph-name="uni2225" unicode="&#x2225;" 
 />
    <glyph glyph-name="uni2226" unicode="&#x2226;" horiz-adv-x="512" 
 />
    <glyph glyph-name="logicaland" unicode="&#x2227;" 
 />
    <glyph glyph-name="logicalor" unicode="&#x2228;" 
 />
    <glyph glyph-name="intersection" unicode="&#x2229;" 
 />
    <glyph glyph-name="union" unicode="&#x222a;" 
 />
    <glyph glyph-name="integral" unicode="&#x222b;" 
 />
    <glyph glyph-name="uni222C" unicode="&#x222c;" 
 />
    <glyph glyph-name="uni222D" unicode="&#x222d;" horiz-adv-x="512" 
 />
    <glyph glyph-name="uni222E" unicode="&#x222e;" 
 />
    <glyph glyph-name="uni222F" unicode="&#x222f;" horiz-adv-x="512" 
 />
    <glyph glyph-name="uni2230" unicode="&#x2230;" horiz-adv-x="512" 
 />
    <glyph glyph-name="uni2231" unicode="&#x2231;" horiz-adv-x="512" 
 />
    <glyph glyph-name="uni2232" unicode="&#x2232;" horiz-adv-x="512" 
 />
    <glyph glyph-name="uni2233" unicode="&#x2233;" horiz-adv-x="512" 
 />
    <glyph glyph-name="therefore" unicode="&#x2234;" 
 />
    <glyph glyph-name="uni2235" unicode="&#x2235;" 
 />
    <glyph glyph-name="uni2236" unicode="&#x2236;" horiz-adv-x="512" 
 />
    <glyph glyph-name="uni2237" unicode="&#x2237;" horiz-adv-x="512" 
 />
    <glyph glyph-name="uni2238" unicode="&#x2238;" horiz-adv-x="512" 
 />
    <glyph glyph-name="uni2239" unicode="&#x2239;" horiz-adv-x="512" 
 />
    <glyph glyph-name="uni223A" unicode="&#x223a;" horiz-adv-x="512" 
 />
    <glyph glyph-name="uni223B" unicode="&#x223b;" horiz-adv-x="512" 
 />
    <glyph glyph-name="similar" unicode="&#x223c;" horiz-adv-x="512" 
 />
    <glyph glyph-name="uni223D" unicode="&#x223d;" 
 />
    <glyph glyph-name="uni223E" unicode="&#x223e;" horiz-adv-x="512" 
 />
    <glyph glyph-name="uni223F" unicode="&#x223f;" horiz-adv-x="512" 
 />
    <glyph glyph-name="uni2240" unicode="&#x2240;" horiz-adv-x="512" 
 />
    <glyph glyph-name="uni2241" unicode="&#x2241;" horiz-adv-x="512" 
 />
    <glyph glyph-name="uni2242" unicode="&#x2242;" horiz-adv-x="512" 
 />
    <glyph glyph-name="uni2243" unicode="&#x2243;" horiz-adv-x="512" 
 />
    <glyph glyph-name="uni2244" unicode="&#x2244;" horiz-adv-x="512" 
 />
    <glyph glyph-name="congruent" unicode="&#x2245;" horiz-adv-x="512" 
 />
    <glyph glyph-name="uni2246" unicode="&#x2246;" horiz-adv-x="512" 
 />
    <glyph glyph-name="uni2247" unicode="&#x2247;" horiz-adv-x="512" 
 />
    <glyph glyph-name="approxequal" unicode="&#x2248;" horiz-adv-x="512" 
 />
    <glyph glyph-name="uni2249" unicode="&#x2249;" horiz-adv-x="512" 
 />
    <glyph glyph-name="uni224A" unicode="&#x224a;" horiz-adv-x="512" 
 />
    <glyph glyph-name="uni224B" unicode="&#x224b;" horiz-adv-x="512" 
 />
    <glyph glyph-name="uni224C" unicode="&#x224c;" horiz-adv-x="512" 
 />
    <glyph glyph-name="uni224D" unicode="&#x224d;" horiz-adv-x="512" 
 />
    <glyph glyph-name="uni224E" unicode="&#x224e;" horiz-adv-x="512" 
 />
    <glyph glyph-name="uni224F" unicode="&#x224f;" horiz-adv-x="512" 
 />
    <glyph glyph-name="uni2250" unicode="&#x2250;" horiz-adv-x="512" 
 />
    <glyph glyph-name="uni2251" unicode="&#x2251;" horiz-adv-x="512" 
 />
    <glyph glyph-name="uni2252" unicode="&#x2252;" 
 />
    <glyph glyph-name="uni2253" unicode="&#x2253;" horiz-adv-x="512" 
 />
    <glyph glyph-name="uni2254" unicode="&#x2254;" horiz-adv-x="512" 
 />
    <glyph glyph-name="uni2255" unicode="&#x2255;" horiz-adv-x="512" 
 />
    <glyph glyph-name="uni2256" unicode="&#x2256;" horiz-adv-x="512" 
 />
    <glyph glyph-name="uni2257" unicode="&#x2257;" horiz-adv-x="512" 
 />
    <glyph glyph-name="uni2258" unicode="&#x2258;" horiz-adv-x="512" 
 />
    <glyph glyph-name="uni2259" unicode="&#x2259;" horiz-adv-x="512" 
 />
    <glyph glyph-name="uni225A" unicode="&#x225a;" horiz-adv-x="512" 
 />
    <glyph glyph-name="uni225B" unicode="&#x225b;" horiz-adv-x="512" 
 />
    <glyph glyph-name="uni225C" unicode="&#x225c;" horiz-adv-x="512" 
 />
    <glyph glyph-name="uni225D" unicode="&#x225d;" horiz-adv-x="512" 
 />
    <glyph glyph-name="uni225E" unicode="&#x225e;" horiz-adv-x="512" 
 />
    <glyph glyph-name="uni225F" unicode="&#x225f;" horiz-adv-x="512" 
 />
    <glyph glyph-name="notequal" unicode="&#x2260;" 
 />
    <glyph glyph-name="equivalence" unicode="&#x2261;" 
 />
    <glyph glyph-name="uni2262" unicode="&#x2262;" horiz-adv-x="512" 
 />
    <glyph glyph-name="uni2263" unicode="&#x2263;" horiz-adv-x="512" 
 />
    <glyph glyph-name="lessequal" unicode="&#x2264;" horiz-adv-x="512" 
 />
    <glyph glyph-name="greaterequal" unicode="&#x2265;" horiz-adv-x="512" 
 />
    <glyph glyph-name="uni2266" unicode="&#x2266;" 
 />
    <glyph glyph-name="uni2267" unicode="&#x2267;" 
 />
    <glyph glyph-name="uni2268" unicode="&#x2268;" horiz-adv-x="512" 
 />
    <glyph glyph-name="uni2269" unicode="&#x2269;" horiz-adv-x="512" 
 />
    <glyph glyph-name="uni226A" unicode="&#x226a;" 
 />
    <glyph glyph-name="uni226B" unicode="&#x226b;" 
 />
    <glyph glyph-name="uni226C" unicode="&#x226c;" horiz-adv-x="512" 
 />
    <glyph glyph-name="uni226D" unicode="&#x226d;" horiz-adv-x="512" 
 />
    <glyph glyph-name="uni226E" unicode="&#x226e;" horiz-adv-x="512" 
 />
    <glyph glyph-name="uni226F" unicode="&#x226f;" horiz-adv-x="512" 
 />
    <glyph glyph-name="uni2270" unicode="&#x2270;" horiz-adv-x="512" 
 />
    <glyph glyph-name="uni2271" unicode="&#x2271;" horiz-adv-x="512" 
 />
    <glyph glyph-name="uni2272" unicode="&#x2272;" horiz-adv-x="512" 
 />
    <glyph glyph-name="uni2273" unicode="&#x2273;" horiz-adv-x="512" 
 />
    <glyph glyph-name="uni2274" unicode="&#x2274;" horiz-adv-x="512" 
 />
    <glyph glyph-name="uni2275" unicode="&#x2275;" horiz-adv-x="512" 
 />
    <glyph glyph-name="uni2276" unicode="&#x2276;" horiz-adv-x="512" 
 />
    <glyph glyph-name="uni2277" unicode="&#x2277;" horiz-adv-x="512" 
 />
    <glyph glyph-name="uni2278" unicode="&#x2278;" horiz-adv-x="512" 
 />
    <glyph glyph-name="uni2279" unicode="&#x2279;" horiz-adv-x="512" 
 />
    <glyph glyph-name="uni227A" unicode="&#x227a;" horiz-adv-x="512" 
 />
    <glyph glyph-name="uni227B" unicode="&#x227b;" horiz-adv-x="512" 
 />
    <glyph glyph-name="uni227C" unicode="&#x227c;" horiz-adv-x="512" 
 />
    <glyph glyph-name="uni227D" unicode="&#x227d;" horiz-adv-x="512" 
 />
    <glyph glyph-name="uni227E" unicode="&#x227e;" horiz-adv-x="512" 
 />
    <glyph glyph-name="uni227F" unicode="&#x227f;" horiz-adv-x="512" 
 />
    <glyph glyph-name="uni2280" unicode="&#x2280;" horiz-adv-x="512" 
 />
    <glyph glyph-name="uni2281" unicode="&#x2281;" horiz-adv-x="512" 
 />
    <glyph glyph-name="propersubset" unicode="&#x2282;" 
 />
    <glyph glyph-name="propersuperset" unicode="&#x2283;" 
 />
    <glyph glyph-name="notsubset" unicode="&#x2284;" horiz-adv-x="512" 
 />
    <glyph glyph-name="uni2285" unicode="&#x2285;" horiz-adv-x="512" 
 />
    <glyph glyph-name="reflexsubset" unicode="&#x2286;" 
 />
    <glyph glyph-name="reflexsuperset" unicode="&#x2287;" 
 />
    <glyph glyph-name="uni2288" unicode="&#x2288;" horiz-adv-x="512" 
 />
    <glyph glyph-name="uni2289" unicode="&#x2289;" horiz-adv-x="512" 
 />
    <glyph glyph-name="uni228A" unicode="&#x228a;" horiz-adv-x="512" 
 />
    <glyph glyph-name="uni228B" unicode="&#x228b;" horiz-adv-x="512" 
 />
    <glyph glyph-name="uni228C" unicode="&#x228c;" horiz-adv-x="512" 
 />
    <glyph glyph-name="uni228D" unicode="&#x228d;" horiz-adv-x="512" 
 />
    <glyph glyph-name="uni228E" unicode="&#x228e;" horiz-adv-x="512" 
 />
    <glyph glyph-name="uni228F" unicode="&#x228f;" horiz-adv-x="512" 
 />
    <glyph glyph-name="uni2290" unicode="&#x2290;" horiz-adv-x="512" 
 />
    <glyph glyph-name="uni2291" unicode="&#x2291;" horiz-adv-x="512" 
 />
    <glyph glyph-name="uni2292" unicode="&#x2292;" horiz-adv-x="512" 
 />
    <glyph glyph-name="uni2293" unicode="&#x2293;" horiz-adv-x="512" 
 />
    <glyph glyph-name="uni2294" unicode="&#x2294;" horiz-adv-x="512" 
 />
    <glyph glyph-name="circleplus" unicode="&#x2295;" horiz-adv-x="512" 
 />
    <glyph glyph-name="uni2296" unicode="&#x2296;" horiz-adv-x="512" 
 />
    <glyph glyph-name="circlemultiply" unicode="&#x2297;" horiz-adv-x="512" 
 />
    <glyph glyph-name="uni2298" unicode="&#x2298;" horiz-adv-x="512" 
 />
    <glyph glyph-name="uni2299" unicode="&#x2299;" horiz-adv-x="512" 
 />
    <glyph glyph-name="uni229A" unicode="&#x229a;" horiz-adv-x="512" 
 />
    <glyph glyph-name="uni229B" unicode="&#x229b;" horiz-adv-x="512" 
 />
    <glyph glyph-name="uni229C" unicode="&#x229c;" horiz-adv-x="512" 
 />
    <glyph glyph-name="uni229D" unicode="&#x229d;" horiz-adv-x="512" 
 />
    <glyph glyph-name="uni229E" unicode="&#x229e;" horiz-adv-x="512" 
 />
    <glyph glyph-name="uni229F" unicode="&#x229f;" horiz-adv-x="512" 
 />
    <glyph glyph-name="uni22A0" unicode="&#x22a0;" horiz-adv-x="512" 
 />
    <glyph glyph-name="uni22A1" unicode="&#x22a1;" horiz-adv-x="512" 
 />
    <glyph glyph-name="uni22A2" unicode="&#x22a2;" horiz-adv-x="512" 
 />
    <glyph glyph-name="uni22A3" unicode="&#x22a3;" horiz-adv-x="512" 
 />
    <glyph glyph-name="uni22A4" unicode="&#x22a4;" horiz-adv-x="512" 
 />
    <glyph glyph-name="perpendicular" unicode="&#x22a5;" 
 />
    <glyph glyph-name="uni22A6" unicode="&#x22a6;" horiz-adv-x="512" 
 />
    <glyph glyph-name="uni22A7" unicode="&#x22a7;" horiz-adv-x="512" 
 />
    <glyph glyph-name="uni22A8" unicode="&#x22a8;" horiz-adv-x="512" 
 />
    <glyph glyph-name="uni22A9" unicode="&#x22a9;" horiz-adv-x="512" 
 />
    <glyph glyph-name="uni22AA" unicode="&#x22aa;" horiz-adv-x="512" 
 />
    <glyph glyph-name="uni22AB" unicode="&#x22ab;" horiz-adv-x="512" 
 />
    <glyph glyph-name="uni22AC" unicode="&#x22ac;" horiz-adv-x="512" 
 />
    <glyph glyph-name="uni22AD" unicode="&#x22ad;" horiz-adv-x="512" 
 />
    <glyph glyph-name="uni22AE" unicode="&#x22ae;" horiz-adv-x="512" 
 />
    <glyph glyph-name="uni22AF" unicode="&#x22af;" horiz-adv-x="512" 
 />
    <glyph glyph-name="uni22B0" unicode="&#x22b0;" horiz-adv-x="512" 
 />
    <glyph glyph-name="uni22B1" unicode="&#x22b1;" horiz-adv-x="512" 
 />
    <glyph glyph-name="uni22B2" unicode="&#x22b2;" horiz-adv-x="512" 
 />
    <glyph glyph-name="uni22B3" unicode="&#x22b3;" horiz-adv-x="512" 
 />
    <glyph glyph-name="uni22B4" unicode="&#x22b4;" horiz-adv-x="512" 
 />
    <glyph glyph-name="uni22B5" unicode="&#x22b5;" horiz-adv-x="512" 
 />
    <glyph glyph-name="uni22B6" unicode="&#x22b6;" horiz-adv-x="512" 
 />
    <glyph glyph-name="uni22B7" unicode="&#x22b7;" horiz-adv-x="512" 
 />
    <glyph glyph-name="uni22B8" unicode="&#x22b8;" horiz-adv-x="512" 
 />
    <glyph glyph-name="uni22B9" unicode="&#x22b9;" horiz-adv-x="512" 
 />
    <glyph glyph-name="uni22BA" unicode="&#x22ba;" horiz-adv-x="512" 
 />
    <glyph glyph-name="uni22BB" unicode="&#x22bb;" horiz-adv-x="512" 
 />
    <glyph glyph-name="uni22BC" unicode="&#x22bc;" horiz-adv-x="512" 
 />
    <glyph glyph-name="uni22BD" unicode="&#x22bd;" horiz-adv-x="512" 
 />
    <glyph glyph-name="uni22BE" unicode="&#x22be;" horiz-adv-x="512" 
 />
    <glyph glyph-name="uni22BF" unicode="&#x22bf;" 
 />
    <glyph glyph-name="uni22C0" unicode="&#x22c0;" horiz-adv-x="512" 
 />
    <glyph glyph-name="uni22C1" unicode="&#x22c1;" horiz-adv-x="512" 
 />
    <glyph glyph-name="uni22C2" unicode="&#x22c2;" horiz-adv-x="512" 
 />
    <glyph glyph-name="uni22C3" unicode="&#x22c3;" horiz-adv-x="512" 
 />
    <glyph glyph-name="uni22C4" unicode="&#x22c4;" horiz-adv-x="512" 
 />
    <glyph glyph-name="dotmath" unicode="&#x22c5;" horiz-adv-x="512" 
 />
    <glyph glyph-name="uni22C6" unicode="&#x22c6;" horiz-adv-x="512" 
 />
    <glyph glyph-name="uni22C7" unicode="&#x22c7;" horiz-adv-x="512" 
 />
    <glyph glyph-name="uni22C8" unicode="&#x22c8;" horiz-adv-x="512" 
 />
    <glyph glyph-name="uni22C9" unicode="&#x22c9;" horiz-adv-x="512" 
 />
    <glyph glyph-name="uni22CA" unicode="&#x22ca;" horiz-adv-x="512" 
 />
    <glyph glyph-name="uni22CB" unicode="&#x22cb;" horiz-adv-x="512" 
 />
    <glyph glyph-name="uni22CC" unicode="&#x22cc;" horiz-adv-x="512" 
 />
    <glyph glyph-name="uni22CD" unicode="&#x22cd;" horiz-adv-x="512" 
 />
    <glyph glyph-name="uni22CE" unicode="&#x22ce;" horiz-adv-x="512" 
 />
    <glyph glyph-name="uni22CF" unicode="&#x22cf;" horiz-adv-x="512" 
 />
    <glyph glyph-name="uni22D0" unicode="&#x22d0;" horiz-adv-x="512" 
 />
    <glyph glyph-name="uni22D1" unicode="&#x22d1;" horiz-adv-x="512" 
 />
    <glyph glyph-name="uni22D2" unicode="&#x22d2;" horiz-adv-x="512" 
 />
    <glyph glyph-name="uni22D3" unicode="&#x22d3;" horiz-adv-x="512" 
 />
    <glyph glyph-name="uni22D4" unicode="&#x22d4;" horiz-adv-x="512" 
 />
    <glyph glyph-name="uni22D5" unicode="&#x22d5;" horiz-adv-x="512" 
 />
    <glyph glyph-name="uni22D6" unicode="&#x22d6;" horiz-adv-x="512" 
 />
    <glyph glyph-name="uni22D7" unicode="&#x22d7;" horiz-adv-x="512" 
 />
    <glyph glyph-name="uni22D8" unicode="&#x22d8;" horiz-adv-x="512" 
 />
    <glyph glyph-name="uni22D9" unicode="&#x22d9;" horiz-adv-x="512" 
 />
    <glyph glyph-name="uni22DA" unicode="&#x22da;" horiz-adv-x="512" 
 />
    <glyph glyph-name="uni22DB" unicode="&#x22db;" horiz-adv-x="512" 
 />
    <glyph glyph-name="uni22DC" unicode="&#x22dc;" horiz-adv-x="512" 
 />
    <glyph glyph-name="uni22DD" unicode="&#x22dd;" horiz-adv-x="512" 
 />
    <glyph glyph-name="uni22DE" unicode="&#x22de;" horiz-adv-x="512" 
 />
    <glyph glyph-name="uni22DF" unicode="&#x22df;" horiz-adv-x="512" 
 />
    <glyph glyph-name="uni22E0" unicode="&#x22e0;" horiz-adv-x="512" 
 />
    <glyph glyph-name="uni22E1" unicode="&#x22e1;" horiz-adv-x="512" 
 />
    <glyph glyph-name="uni22E2" unicode="&#x22e2;" horiz-adv-x="512" 
 />
    <glyph glyph-name="uni22E3" unicode="&#x22e3;" horiz-adv-x="512" 
 />
    <glyph glyph-name="uni22E4" unicode="&#x22e4;" horiz-adv-x="512" 
 />
    <glyph glyph-name="uni22E5" unicode="&#x22e5;" horiz-adv-x="512" 
 />
    <glyph glyph-name="uni22E6" unicode="&#x22e6;" horiz-adv-x="512" 
 />
    <glyph glyph-name="uni22E7" unicode="&#x22e7;" horiz-adv-x="512" 
 />
    <glyph glyph-name="uni22E8" unicode="&#x22e8;" horiz-adv-x="512" 
 />
    <glyph glyph-name="uni22E9" unicode="&#x22e9;" horiz-adv-x="512" 
 />
    <glyph glyph-name="uni22EA" unicode="&#x22ea;" horiz-adv-x="512" 
 />
    <glyph glyph-name="uni22EB" unicode="&#x22eb;" horiz-adv-x="512" 
 />
    <glyph glyph-name="uni22EC" unicode="&#x22ec;" horiz-adv-x="512" 
 />
    <glyph glyph-name="uni22ED" unicode="&#x22ed;" horiz-adv-x="512" 
 />
    <glyph glyph-name="uni22EE" unicode="&#x22ee;" horiz-adv-x="512" 
 />
    <glyph glyph-name="uni22EF" unicode="&#x22ef;" horiz-adv-x="512" 
 />
    <glyph glyph-name="uni22F0" unicode="&#x22f0;" horiz-adv-x="512" 
 />
    <glyph glyph-name="uni22F1" unicode="&#x22f1;" horiz-adv-x="512" 
 />
    <glyph glyph-name="house" unicode="&#x2302;" horiz-adv-x="512" 
 />
    <glyph glyph-name="revlogicalnot" unicode="&#x2310;" horiz-adv-x="512" 
 />
    <glyph glyph-name="uni2312" unicode="&#x2312;" 
 />
    <glyph glyph-name="integraltp" unicode="&#x2320;" horiz-adv-x="512" 
 />
    <glyph glyph-name="integralbt" unicode="&#x2321;" horiz-adv-x="512" 
 />
    <glyph glyph-name="uni2460" unicode="&#x2460;" 
 />
    <glyph glyph-name="uni2461" unicode="&#x2461;" 
 />
    <glyph glyph-name="uni2462" unicode="&#x2462;" 
 />
    <glyph glyph-name="uni2463" unicode="&#x2463;" 
 />
    <glyph glyph-name="uni2464" unicode="&#x2464;" 
 />
    <glyph glyph-name="uni2465" unicode="&#x2465;" 
 />
    <glyph glyph-name="uni2466" unicode="&#x2466;" 
 />
    <glyph glyph-name="uni2467" unicode="&#x2467;" 
 />
    <glyph glyph-name="uni2468" unicode="&#x2468;" 
 />
    <glyph glyph-name="uni2469" unicode="&#x2469;" 
 />
    <glyph glyph-name="uni246A" unicode="&#x246a;" 
 />
    <glyph glyph-name="uni246B" unicode="&#x246b;" 
 />
    <glyph glyph-name="uni246C" unicode="&#x246c;" 
 />
    <glyph glyph-name="uni246D" unicode="&#x246d;" 
 />
    <glyph glyph-name="uni246E" unicode="&#x246e;" 
 />
    <glyph glyph-name="uni246F" unicode="&#x246f;" 
 />
    <glyph glyph-name="uni2470" unicode="&#x2470;" 
 />
    <glyph glyph-name="uni2471" unicode="&#x2471;" 
 />
    <glyph glyph-name="uni2472" unicode="&#x2472;" 
 />
    <glyph glyph-name="uni2473" unicode="&#x2473;" 
 />
    <glyph glyph-name="uni2474" unicode="&#x2474;" 
 />
    <glyph glyph-name="uni2475" unicode="&#x2475;" 
 />
    <glyph glyph-name="uni2476" unicode="&#x2476;" 
 />
    <glyph glyph-name="uni2477" unicode="&#x2477;" 
 />
    <glyph glyph-name="uni2478" unicode="&#x2478;" 
 />
    <glyph glyph-name="uni2479" unicode="&#x2479;" 
 />
    <glyph glyph-name="uni247A" unicode="&#x247a;" 
 />
    <glyph glyph-name="uni247B" unicode="&#x247b;" 
 />
    <glyph glyph-name="uni247C" unicode="&#x247c;" 
 />
    <glyph glyph-name="uni247D" unicode="&#x247d;" 
 />
    <glyph glyph-name="uni247E" unicode="&#x247e;" 
 />
    <glyph glyph-name="uni247F" unicode="&#x247f;" 
 />
    <glyph glyph-name="uni2480" unicode="&#x2480;" 
 />
    <glyph glyph-name="uni2481" unicode="&#x2481;" 
 />
    <glyph glyph-name="uni2482" unicode="&#x2482;" 
 />
    <glyph glyph-name="uni2483" unicode="&#x2483;" 
 />
    <glyph glyph-name="uni2484" unicode="&#x2484;" 
 />
    <glyph glyph-name="uni2485" unicode="&#x2485;" 
 />
    <glyph glyph-name="uni2486" unicode="&#x2486;" 
 />
    <glyph glyph-name="uni2487" unicode="&#x2487;" 
 />
    <glyph glyph-name="uni2488" unicode="&#x2488;" 
 />
    <glyph glyph-name="uni2489" unicode="&#x2489;" 
 />
    <glyph glyph-name="uni248A" unicode="&#x248a;" 
 />
    <glyph glyph-name="uni248B" unicode="&#x248b;" 
 />
    <glyph glyph-name="uni248C" unicode="&#x248c;" 
 />
    <glyph glyph-name="uni248D" unicode="&#x248d;" 
 />
    <glyph glyph-name="uni248E" unicode="&#x248e;" 
 />
    <glyph glyph-name="uni248F" unicode="&#x248f;" 
 />
    <glyph glyph-name="uni2490" unicode="&#x2490;" 
 />
    <glyph glyph-name="uni2491" unicode="&#x2491;" 
 />
    <glyph glyph-name="uni2492" unicode="&#x2492;" 
 />
    <glyph glyph-name="uni2493" unicode="&#x2493;" 
 />
    <glyph glyph-name="uni2494" unicode="&#x2494;" 
 />
    <glyph glyph-name="uni2495" unicode="&#x2495;" 
 />
    <glyph glyph-name="uni2496" unicode="&#x2496;" 
 />
    <glyph glyph-name="uni2497" unicode="&#x2497;" 
 />
    <glyph glyph-name="uni2498" unicode="&#x2498;" 
 />
    <glyph glyph-name="uni2499" unicode="&#x2499;" 
 />
    <glyph glyph-name="uni249A" unicode="&#x249a;" 
 />
    <glyph glyph-name="uni249B" unicode="&#x249b;" 
 />
    <glyph glyph-name="uni249C" unicode="&#x249c;" 
 />
    <glyph glyph-name="uni249D" unicode="&#x249d;" 
 />
    <glyph glyph-name="uni249E" unicode="&#x249e;" 
 />
    <glyph glyph-name="uni249F" unicode="&#x249f;" 
 />
    <glyph glyph-name="uni24A0" unicode="&#x24a0;" 
 />
    <glyph glyph-name="uni24A1" unicode="&#x24a1;" 
 />
    <glyph glyph-name="uni24A2" unicode="&#x24a2;" 
 />
    <glyph glyph-name="uni24A3" unicode="&#x24a3;" 
 />
    <glyph glyph-name="uni24A4" unicode="&#x24a4;" 
 />
    <glyph glyph-name="uni24A5" unicode="&#x24a5;" 
 />
    <glyph glyph-name="uni24A6" unicode="&#x24a6;" 
 />
    <glyph glyph-name="uni24A7" unicode="&#x24a7;" 
 />
    <glyph glyph-name="uni24A8" unicode="&#x24a8;" 
 />
    <glyph glyph-name="uni24A9" unicode="&#x24a9;" 
 />
    <glyph glyph-name="uni24AA" unicode="&#x24aa;" 
 />
    <glyph glyph-name="uni24AB" unicode="&#x24ab;" 
 />
    <glyph glyph-name="uni24AC" unicode="&#x24ac;" 
 />
    <glyph glyph-name="uni24AD" unicode="&#x24ad;" 
 />
    <glyph glyph-name="uni24AE" unicode="&#x24ae;" 
 />
    <glyph glyph-name="uni24AF" unicode="&#x24af;" 
 />
    <glyph glyph-name="uni24B0" unicode="&#x24b0;" 
 />
    <glyph glyph-name="uni24B1" unicode="&#x24b1;" 
 />
    <glyph glyph-name="uni24B2" unicode="&#x24b2;" 
 />
    <glyph glyph-name="uni24B3" unicode="&#x24b3;" 
 />
    <glyph glyph-name="uni24B4" unicode="&#x24b4;" 
 />
    <glyph glyph-name="uni24B5" unicode="&#x24b5;" 
 />
    <glyph glyph-name="uni24B6" unicode="&#x24b6;" 
 />
    <glyph glyph-name="uni24B7" unicode="&#x24b7;" 
 />
    <glyph glyph-name="uni24B8" unicode="&#x24b8;" 
 />
    <glyph glyph-name="uni24B9" unicode="&#x24b9;" 
 />
    <glyph glyph-name="uni24BA" unicode="&#x24ba;" 
 />
    <glyph glyph-name="uni24BB" unicode="&#x24bb;" 
 />
    <glyph glyph-name="uni24BC" unicode="&#x24bc;" 
 />
    <glyph glyph-name="uni24BD" unicode="&#x24bd;" 
 />
    <glyph glyph-name="uni24BE" unicode="&#x24be;" 
 />
    <glyph glyph-name="uni24BF" unicode="&#x24bf;" 
 />
    <glyph glyph-name="uni24C0" unicode="&#x24c0;" 
 />
    <glyph glyph-name="uni24C1" unicode="&#x24c1;" 
 />
    <glyph glyph-name="uni24C2" unicode="&#x24c2;" 
 />
    <glyph glyph-name="uni24C3" unicode="&#x24c3;" 
 />
    <glyph glyph-name="uni24C4" unicode="&#x24c4;" 
 />
    <glyph glyph-name="uni24C5" unicode="&#x24c5;" 
 />
    <glyph glyph-name="uni24C6" unicode="&#x24c6;" 
 />
    <glyph glyph-name="uni24C7" unicode="&#x24c7;" 
 />
    <glyph glyph-name="uni24C8" unicode="&#x24c8;" 
 />
    <glyph glyph-name="uni24C9" unicode="&#x24c9;" 
 />
    <glyph glyph-name="uni24CA" unicode="&#x24ca;" 
 />
    <glyph glyph-name="uni24CB" unicode="&#x24cb;" 
 />
    <glyph glyph-name="uni24CC" unicode="&#x24cc;" 
 />
    <glyph glyph-name="uni24CD" unicode="&#x24cd;" 
 />
    <glyph glyph-name="uni24CE" unicode="&#x24ce;" 
 />
    <glyph glyph-name="uni24CF" unicode="&#x24cf;" 
 />
    <glyph glyph-name="uni24D0" unicode="&#x24d0;" 
 />
    <glyph glyph-name="uni24D1" unicode="&#x24d1;" 
 />
    <glyph glyph-name="uni24D2" unicode="&#x24d2;" 
 />
    <glyph glyph-name="uni24D3" unicode="&#x24d3;" 
 />
    <glyph glyph-name="uni24D4" unicode="&#x24d4;" 
 />
    <glyph glyph-name="uni24D5" unicode="&#x24d5;" 
 />
    <glyph glyph-name="uni24D6" unicode="&#x24d6;" 
 />
    <glyph glyph-name="uni24D7" unicode="&#x24d7;" 
 />
    <glyph glyph-name="uni24D8" unicode="&#x24d8;" 
 />
    <glyph glyph-name="uni24D9" unicode="&#x24d9;" 
 />
    <glyph glyph-name="uni24DA" unicode="&#x24da;" 
 />
    <glyph glyph-name="uni24DB" unicode="&#x24db;" 
 />
    <glyph glyph-name="uni24DC" unicode="&#x24dc;" 
 />
    <glyph glyph-name="uni24DD" unicode="&#x24dd;" 
 />
    <glyph glyph-name="uni24DE" unicode="&#x24de;" 
 />
    <glyph glyph-name="uni24DF" unicode="&#x24df;" 
 />
    <glyph glyph-name="uni24E0" unicode="&#x24e0;" 
 />
    <glyph glyph-name="uni24E1" unicode="&#x24e1;" 
 />
    <glyph glyph-name="uni24E2" unicode="&#x24e2;" 
 />
    <glyph glyph-name="uni24E3" unicode="&#x24e3;" 
 />
    <glyph glyph-name="uni24E4" unicode="&#x24e4;" 
 />
    <glyph glyph-name="uni24E5" unicode="&#x24e5;" 
 />
    <glyph glyph-name="uni24E6" unicode="&#x24e6;" 
 />
    <glyph glyph-name="uni24E7" unicode="&#x24e7;" 
 />
    <glyph glyph-name="uni24E8" unicode="&#x24e8;" 
 />
    <glyph glyph-name="uni24E9" unicode="&#x24e9;" 
 />
    <glyph glyph-name="uni24EA" unicode="&#x24ea;" 
 />
    <glyph glyph-name="SF100000" unicode="&#x2500;" 
 />
    <glyph glyph-name="uni2501" unicode="&#x2501;" 
 />
    <glyph glyph-name="SF110000" unicode="&#x2502;" 
 />
    <glyph glyph-name="uni2503" unicode="&#x2503;" 
 />
    <glyph glyph-name="uni2504" unicode="&#x2504;" horiz-adv-x="512" 
 />
    <glyph glyph-name="uni2505" unicode="&#x2505;" horiz-adv-x="512" 
 />
    <glyph glyph-name="uni2506" unicode="&#x2506;" horiz-adv-x="512" 
 />
    <glyph glyph-name="uni2507" unicode="&#x2507;" horiz-adv-x="512" 
 />
    <glyph glyph-name="uni2508" unicode="&#x2508;" horiz-adv-x="512" 
 />
    <glyph glyph-name="uni2509" unicode="&#x2509;" horiz-adv-x="512" 
 />
    <glyph glyph-name="uni250A" unicode="&#x250a;" horiz-adv-x="512" 
 />
    <glyph glyph-name="uni250B" unicode="&#x250b;" horiz-adv-x="512" 
 />
    <glyph glyph-name="SF010000" unicode="&#x250c;" 
 />
    <glyph glyph-name="uni250D" unicode="&#x250d;" horiz-adv-x="512" 
 />
    <glyph glyph-name="uni250E" unicode="&#x250e;" horiz-adv-x="512" 
 />
    <glyph glyph-name="uni250F" unicode="&#x250f;" 
 />
    <glyph glyph-name="SF030000" unicode="&#x2510;" 
 />
    <glyph glyph-name="uni2511" unicode="&#x2511;" horiz-adv-x="512" 
 />
    <glyph glyph-name="uni2512" unicode="&#x2512;" horiz-adv-x="512" 
 />
    <glyph glyph-name="uni2513" unicode="&#x2513;" 
 />
    <glyph glyph-name="SF020000" unicode="&#x2514;" 
 />
    <glyph glyph-name="uni2515" unicode="&#x2515;" horiz-adv-x="512" 
 />
    <glyph glyph-name="uni2516" unicode="&#x2516;" horiz-adv-x="512" 
 />
    <glyph glyph-name="uni2517" unicode="&#x2517;" 
 />
    <glyph glyph-name="SF040000" unicode="&#x2518;" 
 />
    <glyph glyph-name="uni2519" unicode="&#x2519;" horiz-adv-x="512" 
 />
    <glyph glyph-name="uni251A" unicode="&#x251a;" horiz-adv-x="512" 
 />
    <glyph glyph-name="uni251B" unicode="&#x251b;" 
 />
    <glyph glyph-name="SF080000" unicode="&#x251c;" 
 />
    <glyph glyph-name="uni251D" unicode="&#x251d;" 
 />
    <glyph glyph-name="uni251E" unicode="&#x251e;" horiz-adv-x="512" 
 />
    <glyph glyph-name="uni251F" unicode="&#x251f;" horiz-adv-x="512" 
 />
    <glyph glyph-name="uni2520" unicode="&#x2520;" 
 />
    <glyph glyph-name="uni2521" unicode="&#x2521;" horiz-adv-x="512" 
 />
    <glyph glyph-name="uni2522" unicode="&#x2522;" horiz-adv-x="512" 
 />
    <glyph glyph-name="uni2523" unicode="&#x2523;" 
 />
    <glyph glyph-name="SF090000" unicode="&#x2524;" 
 />
    <glyph glyph-name="uni2525" unicode="&#x2525;" 
 />
    <glyph glyph-name="uni2526" unicode="&#x2526;" horiz-adv-x="512" 
 />
    <glyph glyph-name="uni2527" unicode="&#x2527;" horiz-adv-x="512" 
 />
    <glyph glyph-name="uni2528" unicode="&#x2528;" 
 />
    <glyph glyph-name="uni2529" unicode="&#x2529;" horiz-adv-x="512" 
 />
    <glyph glyph-name="uni252A" unicode="&#x252a;" horiz-adv-x="512" 
 />
    <glyph glyph-name="uni252B" unicode="&#x252b;" 
 />
    <glyph glyph-name="SF060000" unicode="&#x252c;" 
 />
    <glyph glyph-name="uni252D" unicode="&#x252d;" horiz-adv-x="512" 
 />
    <glyph glyph-name="uni252E" unicode="&#x252e;" horiz-adv-x="512" 
 />
    <glyph glyph-name="uni252F" unicode="&#x252f;" 
 />
    <glyph glyph-name="uni2530" unicode="&#x2530;" 
 />
    <glyph glyph-name="uni2531" unicode="&#x2531;" horiz-adv-x="512" 
 />
    <glyph glyph-name="uni2532" unicode="&#x2532;" horiz-adv-x="512" 
 />
    <glyph glyph-name="uni2533" unicode="&#x2533;" 
 />
    <glyph glyph-name="SF070000" unicode="&#x2534;" 
 />
    <glyph glyph-name="uni2535" unicode="&#x2535;" horiz-adv-x="512" 
 />
    <glyph glyph-name="uni2536" unicode="&#x2536;" horiz-adv-x="512" 
 />
    <glyph glyph-name="uni2537" unicode="&#x2537;" 
 />
    <glyph glyph-name="uni2538" unicode="&#x2538;" 
 />
    <glyph glyph-name="uni2539" unicode="&#x2539;" horiz-adv-x="512" 
 />
    <glyph glyph-name="uni253A" unicode="&#x253a;" horiz-adv-x="512" 
 />
    <glyph glyph-name="uni253B" unicode="&#x253b;" 
 />
    <glyph glyph-name="SF050000" unicode="&#x253c;" 
 />
    <glyph glyph-name="uni253D" unicode="&#x253d;" horiz-adv-x="512" 
 />
    <glyph glyph-name="uni253E" unicode="&#x253e;" horiz-adv-x="512" 
 />
    <glyph glyph-name="uni253F" unicode="&#x253f;" 
 />
    <glyph glyph-name="uni2540" unicode="&#x2540;" horiz-adv-x="512" 
 />
    <glyph glyph-name="uni2541" unicode="&#x2541;" horiz-adv-x="512" 
 />
    <glyph glyph-name="uni2542" unicode="&#x2542;" 
 />
    <glyph glyph-name="uni2543" unicode="&#x2543;" horiz-adv-x="512" 
 />
    <glyph glyph-name="uni2544" unicode="&#x2544;" horiz-adv-x="512" 
 />
    <glyph glyph-name="uni2545" unicode="&#x2545;" horiz-adv-x="512" 
 />
    <glyph glyph-name="uni2546" unicode="&#x2546;" horiz-adv-x="512" 
 />
    <glyph glyph-name="uni2547" unicode="&#x2547;" horiz-adv-x="512" 
 />
    <glyph glyph-name="uni2548" unicode="&#x2548;" horiz-adv-x="512" 
 />
    <glyph glyph-name="uni2549" unicode="&#x2549;" horiz-adv-x="512" 
 />
    <glyph glyph-name="uni254A" unicode="&#x254a;" horiz-adv-x="512" 
 />
    <glyph glyph-name="uni254B" unicode="&#x254b;" 
 />
    <glyph glyph-name="uni254C" unicode="&#x254c;" horiz-adv-x="512" 
 />
    <glyph glyph-name="uni254D" unicode="&#x254d;" horiz-adv-x="512" 
 />
    <glyph glyph-name="uni254E" unicode="&#x254e;" horiz-adv-x="512" 
 />
    <glyph glyph-name="uni254F" unicode="&#x254f;" horiz-adv-x="512" 
 />
    <glyph glyph-name="SF430000" unicode="&#x2550;" horiz-adv-x="512" 
 />
    <glyph glyph-name="SF240000" unicode="&#x2551;" horiz-adv-x="512" 
 />
    <glyph glyph-name="SF510000" unicode="&#x2552;" horiz-adv-x="512" 
 />
    <glyph glyph-name="SF520000" unicode="&#x2553;" horiz-adv-x="512" 
 />
    <glyph glyph-name="SF390000" unicode="&#x2554;" horiz-adv-x="512" 
 />
    <glyph glyph-name="SF220000" unicode="&#x2555;" horiz-adv-x="512" 
 />
    <glyph glyph-name="SF210000" unicode="&#x2556;" horiz-adv-x="512" 
 />
    <glyph glyph-name="SF250000" unicode="&#x2557;" horiz-adv-x="512" 
 />
    <glyph glyph-name="SF500000" unicode="&#x2558;" horiz-adv-x="512" 
 />
    <glyph glyph-name="SF490000" unicode="&#x2559;" horiz-adv-x="512" 
 />
    <glyph glyph-name="SF380000" unicode="&#x255a;" horiz-adv-x="512" 
 />
    <glyph glyph-name="SF280000" unicode="&#x255b;" horiz-adv-x="512" 
 />
    <glyph glyph-name="SF270000" unicode="&#x255c;" horiz-adv-x="512" 
 />
    <glyph glyph-name="SF260000" unicode="&#x255d;" horiz-adv-x="512" 
 />
    <glyph glyph-name="SF360000" unicode="&#x255e;" horiz-adv-x="512" 
 />
    <glyph glyph-name="SF370000" unicode="&#x255f;" horiz-adv-x="512" 
 />
    <glyph glyph-name="SF420000" unicode="&#x2560;" horiz-adv-x="512" 
 />
    <glyph glyph-name="SF190000" unicode="&#x2561;" horiz-adv-x="512" 
 />
    <glyph glyph-name="SF200000" unicode="&#x2562;" horiz-adv-x="512" 
 />
    <glyph glyph-name="SF230000" unicode="&#x2563;" horiz-adv-x="512" 
 />
    <glyph glyph-name="SF470000" unicode="&#x2564;" horiz-adv-x="512" 
 />
    <glyph glyph-name="SF480000" unicode="&#x2565;" horiz-adv-x="512" 
 />
    <glyph glyph-name="SF410000" unicode="&#x2566;" horiz-adv-x="512" 
 />
    <glyph glyph-name="SF450000" unicode="&#x2567;" horiz-adv-x="512" 
 />
    <glyph glyph-name="SF460000" unicode="&#x2568;" horiz-adv-x="512" 
 />
    <glyph glyph-name="SF400000" unicode="&#x2569;" horiz-adv-x="512" 
 />
    <glyph glyph-name="SF540000" unicode="&#x256a;" horiz-adv-x="512" 
 />
    <glyph glyph-name="SF530000" unicode="&#x256b;" horiz-adv-x="512" 
 />
    <glyph glyph-name="SF440000" unicode="&#x256c;" horiz-adv-x="512" 
 />
    <glyph glyph-name="uni256D" unicode="&#x256d;" horiz-adv-x="512" 
 />
    <glyph glyph-name="uni256E" unicode="&#x256e;" horiz-adv-x="512" 
 />
    <glyph glyph-name="uni256F" unicode="&#x256f;" horiz-adv-x="512" 
 />
    <glyph glyph-name="uni2570" unicode="&#x2570;" horiz-adv-x="512" 
 />
    <glyph glyph-name="uni2571" unicode="&#x2571;" horiz-adv-x="512" 
 />
    <glyph glyph-name="uni2572" unicode="&#x2572;" horiz-adv-x="512" 
 />
    <glyph glyph-name="uni2573" unicode="&#x2573;" horiz-adv-x="512" 
 />
    <glyph glyph-name="uni2574" unicode="&#x2574;" horiz-adv-x="512" 
 />
    <glyph glyph-name="uni2575" unicode="&#x2575;" horiz-adv-x="512" 
 />
    <glyph glyph-name="uni2576" unicode="&#x2576;" horiz-adv-x="512" 
 />
    <glyph glyph-name="uni2577" unicode="&#x2577;" horiz-adv-x="512" 
 />
    <glyph glyph-name="uni2578" unicode="&#x2578;" horiz-adv-x="512" 
 />
    <glyph glyph-name="uni2579" unicode="&#x2579;" horiz-adv-x="512" 
 />
    <glyph glyph-name="uni257A" unicode="&#x257a;" horiz-adv-x="512" 
 />
    <glyph glyph-name="uni257B" unicode="&#x257b;" horiz-adv-x="512" 
 />
    <glyph glyph-name="uni257C" unicode="&#x257c;" horiz-adv-x="512" 
 />
    <glyph glyph-name="uni257D" unicode="&#x257d;" horiz-adv-x="512" 
 />
    <glyph glyph-name="uni257E" unicode="&#x257e;" horiz-adv-x="512" 
 />
    <glyph glyph-name="uni257F" unicode="&#x257f;" horiz-adv-x="512" 
 />
    <glyph glyph-name="upblock" unicode="&#x2580;" horiz-adv-x="512" 
 />
    <glyph glyph-name="uni2581" unicode="&#x2581;" horiz-adv-x="512" 
 />
    <glyph glyph-name="uni2582" unicode="&#x2582;" horiz-adv-x="512" 
 />
    <glyph glyph-name="uni2583" unicode="&#x2583;" horiz-adv-x="512" 
 />
    <glyph glyph-name="dnblock" unicode="&#x2584;" horiz-adv-x="512" 
 />
    <glyph glyph-name="uni2585" unicode="&#x2585;" horiz-adv-x="512" 
 />
    <glyph glyph-name="uni2586" unicode="&#x2586;" horiz-adv-x="512" 
 />
    <glyph glyph-name="uni2587" unicode="&#x2587;" horiz-adv-x="512" 
 />
    <glyph glyph-name="block" unicode="&#x2588;" horiz-adv-x="512" 
 />
    <glyph glyph-name="uni2589" unicode="&#x2589;" horiz-adv-x="512" 
 />
    <glyph glyph-name="uni258A" unicode="&#x258a;" horiz-adv-x="512" 
 />
    <glyph glyph-name="uni258B" unicode="&#x258b;" horiz-adv-x="512" 
 />
    <glyph glyph-name="lfblock" unicode="&#x258c;" horiz-adv-x="512" 
 />
    <glyph glyph-name="uni258D" unicode="&#x258d;" horiz-adv-x="512" 
 />
    <glyph glyph-name="uni258E" unicode="&#x258e;" horiz-adv-x="512" 
 />
    <glyph glyph-name="uni258F" unicode="&#x258f;" horiz-adv-x="512" 
 />
    <glyph glyph-name="rtblock" unicode="&#x2590;" horiz-adv-x="512" 
 />
    <glyph glyph-name="ltshade" unicode="&#x2591;" horiz-adv-x="512" 
 />
    <glyph glyph-name="shade" unicode="&#x2592;" horiz-adv-x="512" 
 />
    <glyph glyph-name="dkshade" unicode="&#x2593;" horiz-adv-x="512" 
 />
    <glyph glyph-name="uni2594" unicode="&#x2594;" horiz-adv-x="512" 
 />
    <glyph glyph-name="uni2595" unicode="&#x2595;" horiz-adv-x="512" 
 />
    <glyph glyph-name="filledbox" unicode="&#x25a0;" 
 />
    <glyph glyph-name="H22073" unicode="&#x25a1;" 
 />
    <glyph glyph-name="uni25A2" unicode="&#x25a2;" horiz-adv-x="512" 
 />
    <glyph glyph-name="uni25A3" unicode="&#x25a3;" horiz-adv-x="512" 
 />
    <glyph glyph-name="uni25A4" unicode="&#x25a4;" horiz-adv-x="512" 
 />
    <glyph glyph-name="uni25A5" unicode="&#x25a5;" horiz-adv-x="512" 
 />
    <glyph glyph-name="uni25A6" unicode="&#x25a6;" horiz-adv-x="512" 
 />
    <glyph glyph-name="uni25A7" unicode="&#x25a7;" horiz-adv-x="512" 
 />
    <glyph glyph-name="uni25A8" unicode="&#x25a8;" horiz-adv-x="512" 
 />
    <glyph glyph-name="uni25A9" unicode="&#x25a9;" horiz-adv-x="512" 
 />
    <glyph glyph-name="H18543" unicode="&#x25aa;" horiz-adv-x="512" 
 />
    <glyph glyph-name="H18551" unicode="&#x25ab;" horiz-adv-x="512" 
 />
    <glyph glyph-name="filledrect" unicode="&#x25ac;" horiz-adv-x="512" 
 />
    <glyph glyph-name="uni25AD" unicode="&#x25ad;" horiz-adv-x="512" 
 />
    <glyph glyph-name="uni25AE" unicode="&#x25ae;" horiz-adv-x="512" 
 />
    <glyph glyph-name="uni25AF" unicode="&#x25af;" horiz-adv-x="512" 
 />
    <glyph glyph-name="uni25B0" unicode="&#x25b0;" horiz-adv-x="512" 
 />
    <glyph glyph-name="uni25B1" unicode="&#x25b1;" horiz-adv-x="512" 
 />
    <glyph glyph-name="triagup" unicode="&#x25b2;" 
 />
    <glyph glyph-name="uni25B3" unicode="&#x25b3;" 
 />
    <glyph glyph-name="uni25B4" unicode="&#x25b4;" horiz-adv-x="512" 
 />
    <glyph glyph-name="uni25B5" unicode="&#x25b5;" horiz-adv-x="512" 
 />
    <glyph glyph-name="uni25B6" unicode="&#x25b6;" horiz-adv-x="512" 
 />
    <glyph glyph-name="uni25B7" unicode="&#x25b7;" horiz-adv-x="512" 
 />
    <glyph glyph-name="uni25B8" unicode="&#x25b8;" horiz-adv-x="512" 
 />
    <glyph glyph-name="uni25B9" unicode="&#x25b9;" horiz-adv-x="512" 
 />
    <glyph glyph-name="triagrt" unicode="&#x25ba;" horiz-adv-x="512" 
 />
    <glyph glyph-name="uni25BB" unicode="&#x25bb;" horiz-adv-x="512" 
 />
    <glyph glyph-name="triagdn" unicode="&#x25bc;" 
 />
    <glyph glyph-name="uni25BD" unicode="&#x25bd;" 
 />
    <glyph glyph-name="uni25BE" unicode="&#x25be;" horiz-adv-x="512" 
 />
    <glyph glyph-name="uni25BF" unicode="&#x25bf;" horiz-adv-x="512" 
 />
    <glyph glyph-name="uni25C0" unicode="&#x25c0;" horiz-adv-x="512" 
 />
    <glyph glyph-name="uni25C1" unicode="&#x25c1;" horiz-adv-x="512" 
 />
    <glyph glyph-name="uni25C2" unicode="&#x25c2;" horiz-adv-x="512" 
 />
    <glyph glyph-name="uni25C3" unicode="&#x25c3;" horiz-adv-x="512" 
 />
    <glyph glyph-name="triaglf" unicode="&#x25c4;" horiz-adv-x="512" 
 />
    <glyph glyph-name="uni25C5" unicode="&#x25c5;" horiz-adv-x="512" 
 />
    <glyph glyph-name="uni25C6" unicode="&#x25c6;" 
 />
    <glyph glyph-name="uni25C7" unicode="&#x25c7;" 
 />
    <glyph glyph-name="uni25C8" unicode="&#x25c8;" horiz-adv-x="512" 
 />
    <glyph glyph-name="uni25C9" unicode="&#x25c9;" horiz-adv-x="512" 
 />
    <glyph glyph-name="lozenge" unicode="&#x25ca;" horiz-adv-x="512" 
 />
    <glyph glyph-name="circle" unicode="&#x25cb;" 
 />
    <glyph glyph-name="uni25CC" unicode="&#x25cc;" horiz-adv-x="512" 
 />
    <glyph glyph-name="uni25CD" unicode="&#x25cd;" horiz-adv-x="512" 
 />
    <glyph glyph-name="uni25CE" unicode="&#x25ce;" 
 />
    <glyph glyph-name="H18533" unicode="&#x25cf;" 
 />
    <glyph glyph-name="uni25D0" unicode="&#x25d0;" horiz-adv-x="512" 
 />
    <glyph glyph-name="uni25D1" unicode="&#x25d1;" horiz-adv-x="512" 
 />
    <glyph glyph-name="uni25D2" unicode="&#x25d2;" horiz-adv-x="512" 
 />
    <glyph glyph-name="uni25D3" unicode="&#x25d3;" horiz-adv-x="512" 
 />
    <glyph glyph-name="uni25D4" unicode="&#x25d4;" horiz-adv-x="512" 
 />
    <glyph glyph-name="uni25D5" unicode="&#x25d5;" horiz-adv-x="512" 
 />
    <glyph glyph-name="uni25D6" unicode="&#x25d6;" horiz-adv-x="512" 
 />
    <glyph glyph-name="uni25D7" unicode="&#x25d7;" horiz-adv-x="512" 
 />
    <glyph glyph-name="invbullet" unicode="&#x25d8;" horiz-adv-x="512" 
 />
    <glyph glyph-name="invcircle" unicode="&#x25d9;" horiz-adv-x="512" 
 />
    <glyph glyph-name="uni25DA" unicode="&#x25da;" horiz-adv-x="512" 
 />
    <glyph glyph-name="uni25DB" unicode="&#x25db;" horiz-adv-x="512" 
 />
    <glyph glyph-name="uni25DC" unicode="&#x25dc;" horiz-adv-x="512" 
 />
    <glyph glyph-name="uni25DD" unicode="&#x25dd;" horiz-adv-x="512" 
 />
    <glyph glyph-name="uni25DE" unicode="&#x25de;" horiz-adv-x="512" 
 />
    <glyph glyph-name="uni25DF" unicode="&#x25df;" horiz-adv-x="512" 
 />
    <glyph glyph-name="uni25E0" unicode="&#x25e0;" horiz-adv-x="512" 
 />
    <glyph glyph-name="uni25E1" unicode="&#x25e1;" horiz-adv-x="512" 
 />
    <glyph glyph-name="uni25E2" unicode="&#x25e2;" horiz-adv-x="512" 
 />
    <glyph glyph-name="uni25E3" unicode="&#x25e3;" horiz-adv-x="512" 
 />
    <glyph glyph-name="uni25E4" unicode="&#x25e4;" horiz-adv-x="512" 
 />
    <glyph glyph-name="uni25E5" unicode="&#x25e5;" horiz-adv-x="512" 
 />
    <glyph glyph-name="openbullet" unicode="&#x25e6;" horiz-adv-x="512" 
 />
    <glyph glyph-name="uni25E7" unicode="&#x25e7;" horiz-adv-x="512" 
 />
    <glyph glyph-name="uni25E8" unicode="&#x25e8;" horiz-adv-x="512" 
 />
    <glyph glyph-name="uni25E9" unicode="&#x25e9;" horiz-adv-x="512" 
 />
    <glyph glyph-name="uni25EA" unicode="&#x25ea;" horiz-adv-x="512" 
 />
    <glyph glyph-name="uni25EB" unicode="&#x25eb;" horiz-adv-x="512" 
 />
    <glyph glyph-name="uni25EC" unicode="&#x25ec;" horiz-adv-x="512" 
 />
    <glyph glyph-name="uni25ED" unicode="&#x25ed;" horiz-adv-x="512" 
 />
    <glyph glyph-name="uni25EE" unicode="&#x25ee;" horiz-adv-x="512" 
 />
    <glyph glyph-name="uni25EF" unicode="&#x25ef;" 
 />
    <glyph glyph-name="uni2600" unicode="&#x2600;" 
 />
    <glyph glyph-name="uni2601" unicode="&#x2601;" 
 />
    <glyph glyph-name="uni2602" unicode="&#x2602;" 
 />
    <glyph glyph-name="uni2603" unicode="&#x2603;" 
 />
    <glyph glyph-name="uni2604" unicode="&#x2604;" 
 />
    <glyph glyph-name="uni2605" unicode="&#x2605;" 
 />
    <glyph glyph-name="uni2606" unicode="&#x2606;" 
 />
    <glyph glyph-name="uni2607" unicode="&#x2607;" 
 />
    <glyph glyph-name="uni2608" unicode="&#x2608;" 
 />
    <glyph glyph-name="uni2609" unicode="&#x2609;" 
 />
    <glyph glyph-name="uni260A" unicode="&#x260a;" 
 />
    <glyph glyph-name="uni260B" unicode="&#x260b;" 
 />
    <glyph glyph-name="uni260C" unicode="&#x260c;" 
 />
    <glyph glyph-name="uni260D" unicode="&#x260d;" 
 />
    <glyph glyph-name="uni260E" unicode="&#x260e;" 
 />
    <glyph glyph-name="uni260F" unicode="&#x260f;" 
 />
    <glyph glyph-name="uni2610" unicode="&#x2610;" 
 />
    <glyph glyph-name="uni2611" unicode="&#x2611;" 
 />
    <glyph glyph-name="uni2612" unicode="&#x2612;" 
 />
    <glyph glyph-name="uni2613" unicode="&#x2613;" 
 />
    <glyph glyph-name="uni261A" unicode="&#x261a;" 
 />
    <glyph glyph-name="uni261B" unicode="&#x261b;" 
 />
    <glyph glyph-name="uni261C" unicode="&#x261c;" 
 />
    <glyph glyph-name="uni261D" unicode="&#x261d;" 
 />
    <glyph glyph-name="uni261E" unicode="&#x261e;" 
 />
    <glyph glyph-name="uni261F" unicode="&#x261f;" 
 />
    <glyph glyph-name="uni2620" unicode="&#x2620;" 
 />
    <glyph glyph-name="uni2621" unicode="&#x2621;" 
 />
    <glyph glyph-name="uni2622" unicode="&#x2622;" 
 />
    <glyph glyph-name="uni2623" unicode="&#x2623;" 
 />
    <glyph glyph-name="uni2624" unicode="&#x2624;" 
 />
    <glyph glyph-name="uni2625" unicode="&#x2625;" 
 />
    <glyph glyph-name="uni2626" unicode="&#x2626;" 
 />
    <glyph glyph-name="uni2627" unicode="&#x2627;" 
 />
    <glyph glyph-name="uni2628" unicode="&#x2628;" 
 />
    <glyph glyph-name="uni2629" unicode="&#x2629;" 
 />
    <glyph glyph-name="uni262A" unicode="&#x262a;" 
 />
    <glyph glyph-name="uni262B" unicode="&#x262b;" 
 />
    <glyph glyph-name="uni262C" unicode="&#x262c;" 
 />
    <glyph glyph-name="uni262D" unicode="&#x262d;" 
 />
    <glyph glyph-name="uni262E" unicode="&#x262e;" 
 />
    <glyph glyph-name="uni262F" unicode="&#x262f;" 
 />
    <glyph glyph-name="uni2630" unicode="&#x2630;" 
 />
    <glyph glyph-name="uni2631" unicode="&#x2631;" 
 />
    <glyph glyph-name="uni2632" unicode="&#x2632;" 
 />
    <glyph glyph-name="uni2633" unicode="&#x2633;" 
 />
    <glyph glyph-name="uni2634" unicode="&#x2634;" 
 />
    <glyph glyph-name="uni2635" unicode="&#x2635;" 
 />
    <glyph glyph-name="uni2636" unicode="&#x2636;" 
 />
    <glyph glyph-name="uni2637" unicode="&#x2637;" 
 />
    <glyph glyph-name="uni2638" unicode="&#x2638;" 
 />
    <glyph glyph-name="uni2639" unicode="&#x2639;" horiz-adv-x="512" 
 />
    <glyph glyph-name="smileface" unicode="&#x263a;" horiz-adv-x="512" 
 />
    <glyph glyph-name="invsmileface" unicode="&#x263b;" horiz-adv-x="512" 
 />
    <glyph glyph-name="sun" unicode="&#x263c;" horiz-adv-x="512" 
 />
    <glyph glyph-name="uni263D" unicode="&#x263d;" 
 />
    <glyph glyph-name="uni263E" unicode="&#x263e;" 
 />
    <glyph glyph-name="uni263F" unicode="&#x263f;" 
 />
    <glyph glyph-name="female" unicode="&#x2640;" 
 />
    <glyph glyph-name="uni2641" unicode="&#x2641;" 
 />
    <glyph glyph-name="male" unicode="&#x2642;" 
 />
    <glyph glyph-name="uni2643" unicode="&#x2643;" 
 />
    <glyph glyph-name="uni2644" unicode="&#x2644;" 
 />
    <glyph glyph-name="uni2645" unicode="&#x2645;" 
 />
    <glyph glyph-name="uni2646" unicode="&#x2646;" 
 />
    <glyph glyph-name="uni2647" unicode="&#x2647;" 
 />
    <glyph glyph-name="uni2648" unicode="&#x2648;" 
 />
    <glyph glyph-name="uni2649" unicode="&#x2649;" 
 />
    <glyph glyph-name="uni264A" unicode="&#x264a;" 
 />
    <glyph glyph-name="uni264B" unicode="&#x264b;" 
 />
    <glyph glyph-name="uni264C" unicode="&#x264c;" 
 />
    <glyph glyph-name="uni264D" unicode="&#x264d;" 
 />
    <glyph glyph-name="uni264E" unicode="&#x264e;" 
 />
    <glyph glyph-name="uni264F" unicode="&#x264f;" 
 />
    <glyph glyph-name="uni2650" unicode="&#x2650;" 
 />
    <glyph glyph-name="uni2651" unicode="&#x2651;" 
 />
    <glyph glyph-name="uni2652" unicode="&#x2652;" 
 />
    <glyph glyph-name="uni2653" unicode="&#x2653;" 
 />
    <glyph glyph-name="uni2654" unicode="&#x2654;" 
 />
    <glyph glyph-name="uni2655" unicode="&#x2655;" 
 />
    <glyph glyph-name="uni2656" unicode="&#x2656;" 
 />
    <glyph glyph-name="uni2657" unicode="&#x2657;" 
 />
    <glyph glyph-name="uni2658" unicode="&#x2658;" 
 />
    <glyph glyph-name="uni2659" unicode="&#x2659;" 
 />
    <glyph glyph-name="uni265A" unicode="&#x265a;" 
 />
    <glyph glyph-name="uni265B" unicode="&#x265b;" 
 />
    <glyph glyph-name="uni265C" unicode="&#x265c;" 
 />
    <glyph glyph-name="uni265D" unicode="&#x265d;" 
 />
    <glyph glyph-name="uni265E" unicode="&#x265e;" 
 />
    <glyph glyph-name="uni265F" unicode="&#x265f;" 
 />
    <glyph glyph-name="spade" unicode="&#x2660;" horiz-adv-x="512" 
 />
    <glyph glyph-name="uni2661" unicode="&#x2661;" horiz-adv-x="512" 
 />
    <glyph glyph-name="uni2662" unicode="&#x2662;" horiz-adv-x="512" 
 />
    <glyph glyph-name="club" unicode="&#x2663;" horiz-adv-x="512" 
 />
    <glyph glyph-name="uni2664" unicode="&#x2664;" horiz-adv-x="512" 
 />
    <glyph glyph-name="heart" unicode="&#x2665;" horiz-adv-x="512" 
 />
    <glyph glyph-name="diamond" unicode="&#x2666;" horiz-adv-x="512" 
 />
    <glyph glyph-name="uni2667" unicode="&#x2667;" horiz-adv-x="512" 
 />
    <glyph glyph-name="uni2668" unicode="&#x2668;" 
 />
    <glyph glyph-name="uni2669" unicode="&#x2669;" horiz-adv-x="512" 
 />
    <glyph glyph-name="musicalnote" unicode="&#x266a;" 
 />
    <glyph glyph-name="musicalnotedbl" unicode="&#x266b;" horiz-adv-x="512" 
 />
    <glyph glyph-name="uni266C" unicode="&#x266c;" horiz-adv-x="512" 
 />
    <glyph glyph-name="uni266D" unicode="&#x266d;" 
 />
    <glyph glyph-name="uni266E" unicode="&#x266e;" horiz-adv-x="512" 
 />
    <glyph glyph-name="uni266F" unicode="&#x266f;" 
 />
    <glyph glyph-name="uni2701" unicode="&#x2701;" 
 />
    <glyph glyph-name="uni2702" unicode="&#x2702;" 
 />
    <glyph glyph-name="uni2703" unicode="&#x2703;" 
 />
    <glyph glyph-name="uni2704" unicode="&#x2704;" 
 />
    <glyph glyph-name="uni2706" unicode="&#x2706;" 
 />
    <glyph glyph-name="uni2707" unicode="&#x2707;" 
 />
    <glyph glyph-name="uni2708" unicode="&#x2708;" 
 />
    <glyph glyph-name="uni2709" unicode="&#x2709;" 
 />
    <glyph glyph-name="uni270C" unicode="&#x270c;" 
 />
    <glyph glyph-name="uni270D" unicode="&#x270d;" 
 />
    <glyph glyph-name="uni270E" unicode="&#x270e;" 
 />
    <glyph glyph-name="uni270F" unicode="&#x270f;" 
 />
    <glyph glyph-name="uni2710" unicode="&#x2710;" 
 />
    <glyph glyph-name="uni2711" unicode="&#x2711;" 
 />
    <glyph glyph-name="uni2712" unicode="&#x2712;" 
 />
    <glyph glyph-name="uni2713" unicode="&#x2713;" 
 />
    <glyph glyph-name="uni2714" unicode="&#x2714;" 
 />
    <glyph glyph-name="uni2715" unicode="&#x2715;" 
 />
    <glyph glyph-name="uni2716" unicode="&#x2716;" 
 />
    <glyph glyph-name="uni2717" unicode="&#x2717;" 
 />
    <glyph glyph-name="uni2718" unicode="&#x2718;" 
 />
    <glyph glyph-name="uni2719" unicode="&#x2719;" 
 />
    <glyph glyph-name="uni271A" unicode="&#x271a;" 
 />
    <glyph glyph-name="uni271B" unicode="&#x271b;" 
 />
    <glyph glyph-name="uni271C" unicode="&#x271c;" 
 />
    <glyph glyph-name="uni271D" unicode="&#x271d;" 
 />
    <glyph glyph-name="uni271E" unicode="&#x271e;" 
 />
    <glyph glyph-name="uni271F" unicode="&#x271f;" 
 />
    <glyph glyph-name="uni2720" unicode="&#x2720;" 
 />
    <glyph glyph-name="uni2721" unicode="&#x2721;" 
 />
    <glyph glyph-name="uni2722" unicode="&#x2722;" 
 />
    <glyph glyph-name="uni2723" unicode="&#x2723;" 
 />
    <glyph glyph-name="uni2724" unicode="&#x2724;" 
 />
    <glyph glyph-name="uni2725" unicode="&#x2725;" 
 />
    <glyph glyph-name="uni2726" unicode="&#x2726;" 
 />
    <glyph glyph-name="uni2727" unicode="&#x2727;" 
 />
    <glyph glyph-name="uni2729" unicode="&#x2729;" 
 />
    <glyph glyph-name="uni272A" unicode="&#x272a;" 
 />
    <glyph glyph-name="uni272B" unicode="&#x272b;" 
 />
    <glyph glyph-name="uni272C" unicode="&#x272c;" 
 />
    <glyph glyph-name="uni272D" unicode="&#x272d;" 
 />
    <glyph glyph-name="uni272E" unicode="&#x272e;" 
 />
    <glyph glyph-name="uni272F" unicode="&#x272f;" 
 />
    <glyph glyph-name="uni2730" unicode="&#x2730;" 
 />
    <glyph glyph-name="uni2731" unicode="&#x2731;" 
 />
    <glyph glyph-name="uni2732" unicode="&#x2732;" 
 />
    <glyph glyph-name="uni2733" unicode="&#x2733;" 
 />
    <glyph glyph-name="uni2734" unicode="&#x2734;" 
 />
    <glyph glyph-name="uni2735" unicode="&#x2735;" 
 />
    <glyph glyph-name="uni2736" unicode="&#x2736;" 
 />
    <glyph glyph-name="uni2737" unicode="&#x2737;" 
 />
    <glyph glyph-name="uni2738" unicode="&#x2738;" 
 />
    <glyph glyph-name="uni2739" unicode="&#x2739;" 
 />
    <glyph glyph-name="uni273A" unicode="&#x273a;" 
 />
    <glyph glyph-name="uni273B" unicode="&#x273b;" 
 />
    <glyph glyph-name="uni273C" unicode="&#x273c;" 
 />
    <glyph glyph-name="uni273D" unicode="&#x273d;" 
 />
    <glyph glyph-name="uni273E" unicode="&#x273e;" 
 />
    <glyph glyph-name="uni273F" unicode="&#x273f;" 
 />
    <glyph glyph-name="uni2740" unicode="&#x2740;" 
 />
    <glyph glyph-name="uni2741" unicode="&#x2741;" 
 />
    <glyph glyph-name="uni2742" unicode="&#x2742;" 
 />
    <glyph glyph-name="uni2743" unicode="&#x2743;" 
 />
    <glyph glyph-name="uni2744" unicode="&#x2744;" 
 />
    <glyph glyph-name="uni2745" unicode="&#x2745;" 
 />
    <glyph glyph-name="uni2746" unicode="&#x2746;" 
 />
    <glyph glyph-name="uni2747" unicode="&#x2747;" 
 />
    <glyph glyph-name="uni2748" unicode="&#x2748;" 
 />
    <glyph glyph-name="uni2749" unicode="&#x2749;" 
 />
    <glyph glyph-name="uni274A" unicode="&#x274a;" 
 />
    <glyph glyph-name="uni274B" unicode="&#x274b;" 
 />
    <glyph glyph-name="uni274D" unicode="&#x274d;" 
 />
    <glyph glyph-name="uni274F" unicode="&#x274f;" 
 />
    <glyph glyph-name="uni2750" unicode="&#x2750;" 
 />
    <glyph glyph-name="uni2751" unicode="&#x2751;" 
 />
    <glyph glyph-name="uni2752" unicode="&#x2752;" 
 />
    <glyph glyph-name="uni2756" unicode="&#x2756;" 
 />
    <glyph glyph-name="uni2758" unicode="&#x2758;" 
 />
    <glyph glyph-name="uni2759" unicode="&#x2759;" 
 />
    <glyph glyph-name="uni275A" unicode="&#x275a;" 
 />
    <glyph glyph-name="uni275B" unicode="&#x275b;" 
 />
    <glyph glyph-name="uni275C" unicode="&#x275c;" 
 />
    <glyph glyph-name="uni275D" unicode="&#x275d;" 
 />
    <glyph glyph-name="uni275E" unicode="&#x275e;" 
 />
    <glyph glyph-name="uni2761" unicode="&#x2761;" 
 />
    <glyph glyph-name="uni2762" unicode="&#x2762;" 
 />
    <glyph glyph-name="uni2763" unicode="&#x2763;" 
 />
    <glyph glyph-name="uni2764" unicode="&#x2764;" 
 />
    <glyph glyph-name="uni2765" unicode="&#x2765;" 
 />
    <glyph glyph-name="uni2766" unicode="&#x2766;" 
 />
    <glyph glyph-name="uni2767" unicode="&#x2767;" 
 />
    <glyph glyph-name="uni2776" unicode="&#x2776;" 
 />
    <glyph glyph-name="uni2777" unicode="&#x2777;" 
 />
    <glyph glyph-name="uni2778" unicode="&#x2778;" 
 />
    <glyph glyph-name="uni2779" unicode="&#x2779;" 
 />
    <glyph glyph-name="uni277A" unicode="&#x277a;" 
 />
    <glyph glyph-name="uni277B" unicode="&#x277b;" 
 />
    <glyph glyph-name="uni277C" unicode="&#x277c;" 
 />
    <glyph glyph-name="uni277D" unicode="&#x277d;" 
 />
    <glyph glyph-name="uni277E" unicode="&#x277e;" 
 />
    <glyph glyph-name="uni277F" unicode="&#x277f;" 
 />
    <glyph glyph-name="uni2780" unicode="&#x2780;" 
 />
    <glyph glyph-name="uni2781" unicode="&#x2781;" 
 />
    <glyph glyph-name="uni2782" unicode="&#x2782;" 
 />
    <glyph glyph-name="uni2783" unicode="&#x2783;" 
 />
    <glyph glyph-name="uni2784" unicode="&#x2784;" 
 />
    <glyph glyph-name="uni2785" unicode="&#x2785;" 
 />
    <glyph glyph-name="uni2786" unicode="&#x2786;" 
 />
    <glyph glyph-name="uni2787" unicode="&#x2787;" 
 />
    <glyph glyph-name="uni2788" unicode="&#x2788;" 
 />
    <glyph glyph-name="uni2789" unicode="&#x2789;" 
 />
    <glyph glyph-name="uni278A" unicode="&#x278a;" 
 />
    <glyph glyph-name="uni278B" unicode="&#x278b;" 
 />
    <glyph glyph-name="uni278C" unicode="&#x278c;" 
 />
    <glyph glyph-name="uni278D" unicode="&#x278d;" 
 />
    <glyph glyph-name="uni278E" unicode="&#x278e;" 
 />
    <glyph glyph-name="uni278F" unicode="&#x278f;" 
 />
    <glyph glyph-name="uni2790" unicode="&#x2790;" 
 />
    <glyph glyph-name="uni2791" unicode="&#x2791;" 
 />
    <glyph glyph-name="uni2792" unicode="&#x2792;" 
 />
    <glyph glyph-name="uni2793" unicode="&#x2793;" 
 />
    <glyph glyph-name="uni2794" unicode="&#x2794;" 
 />
    <glyph glyph-name="uni2798" unicode="&#x2798;" 
 />
    <glyph glyph-name="uni2799" unicode="&#x2799;" 
 />
    <glyph glyph-name="uni279A" unicode="&#x279a;" 
 />
    <glyph glyph-name="uni279B" unicode="&#x279b;" 
 />
    <glyph glyph-name="uni279C" unicode="&#x279c;" 
 />
    <glyph glyph-name="uni279D" unicode="&#x279d;" 
 />
    <glyph glyph-name="uni279E" unicode="&#x279e;" 
 />
    <glyph glyph-name="uni279F" unicode="&#x279f;" 
 />
    <glyph glyph-name="uni27A0" unicode="&#x27a0;" 
 />
    <glyph glyph-name="uni27A1" unicode="&#x27a1;" 
 />
    <glyph glyph-name="uni27A2" unicode="&#x27a2;" 
 />
    <glyph glyph-name="uni27A3" unicode="&#x27a3;" 
 />
    <glyph glyph-name="uni27A4" unicode="&#x27a4;" 
 />
    <glyph glyph-name="uni27A5" unicode="&#x27a5;" 
 />
    <glyph glyph-name="uni27A6" unicode="&#x27a6;" 
 />
    <glyph glyph-name="uni27A7" unicode="&#x27a7;" 
 />
    <glyph glyph-name="uni27A8" unicode="&#x27a8;" 
 />
    <glyph glyph-name="uni27A9" unicode="&#x27a9;" 
 />
    <glyph glyph-name="uni27AA" unicode="&#x27aa;" 
 />
    <glyph glyph-name="uni27AB" unicode="&#x27ab;" 
 />
    <glyph glyph-name="uni27AC" unicode="&#x27ac;" 
 />
    <glyph glyph-name="uni27AD" unicode="&#x27ad;" 
 />
    <glyph glyph-name="uni27AE" unicode="&#x27ae;" 
 />
    <glyph glyph-name="uni27AF" unicode="&#x27af;" 
 />
    <glyph glyph-name="uni27B1" unicode="&#x27b1;" 
 />
    <glyph glyph-name="uni27B2" unicode="&#x27b2;" 
 />
    <glyph glyph-name="uni27B3" unicode="&#x27b3;" 
 />
    <glyph glyph-name="uni27B4" unicode="&#x27b4;" 
 />
    <glyph glyph-name="uni27B5" unicode="&#x27b5;" 
 />
    <glyph glyph-name="uni27B6" unicode="&#x27b6;" 
 />
    <glyph glyph-name="uni27B7" unicode="&#x27b7;" 
 />
    <glyph glyph-name="uni27B8" unicode="&#x27b8;" 
 />
    <glyph glyph-name="uni27B9" unicode="&#x27b9;" 
 />
    <glyph glyph-name="uni27BA" unicode="&#x27ba;" 
 />
    <glyph glyph-name="uni27BB" unicode="&#x27bb;" 
 />
    <glyph glyph-name="uni27BC" unicode="&#x27bc;" 
 />
    <glyph glyph-name="uni27BD" unicode="&#x27bd;" 
 />
    <glyph glyph-name="uni27BE" unicode="&#x27be;" 
 />
    <glyph glyph-name="uni3000" unicode="&#x3000;" 
 />
    <glyph glyph-name="uni3001" unicode="&#x3001;" 
d="M128 256h-128v128h256v-128h128v-256h-256v256z" />
    <glyph glyph-name="uni3002" unicode="&#x3002;" 
d="M128 0v128h-128v256h128v128h256v-128h128v-256h-128v-128h-256zM128 128h256v256h-256v-256z" />
    <glyph glyph-name="uni3003" unicode="&#x3003;" 
 />
    <glyph glyph-name="uni3004" unicode="&#x3004;" 
 />
    <glyph glyph-name="uni3005" unicode="&#x3005;" 
 />
    <glyph glyph-name="uni3006" unicode="&#x3006;" 
 />
    <glyph glyph-name="uni3007" unicode="&#x3007;" 
 />
    <glyph glyph-name="uni3008" unicode="&#x3008;" 
 />
    <glyph glyph-name="uni3009" unicode="&#x3009;" 
 />
    <glyph glyph-name="uni300A" unicode="&#x300a;" 
 />
    <glyph glyph-name="uni300B" unicode="&#x300b;" 
 />
    <glyph glyph-name="uni300C" unicode="&#x300c;" 
 />
    <glyph glyph-name="uni300D" unicode="&#x300d;" 
 />
    <glyph glyph-name="uni300E" unicode="&#x300e;" 
 />
    <glyph glyph-name="uni300F" unicode="&#x300f;" 
 />
    <glyph glyph-name="uni3010" unicode="&#x3010;" 
 />
    <glyph glyph-name="uni3011" unicode="&#x3011;" 
 />
    <glyph glyph-name="uni3012" unicode="&#x3012;" 
 />
    <glyph glyph-name="uni3013" unicode="&#x3013;" 
 />
    <glyph glyph-name="uni3014" unicode="&#x3014;" 
 />
    <glyph glyph-name="uni3015" unicode="&#x3015;" 
 />
    <glyph glyph-name="uni3016" unicode="&#x3016;" 
 />
    <glyph glyph-name="uni3017" unicode="&#x3017;" 
 />
    <glyph glyph-name="uni3018" unicode="&#x3018;" 
 />
    <glyph glyph-name="uni3019" unicode="&#x3019;" 
 />
    <glyph glyph-name="uni301A" unicode="&#x301a;" 
 />
    <glyph glyph-name="uni301B" unicode="&#x301b;" 
 />
    <glyph glyph-name="uni301C" unicode="&#x301c;" 
 />
    <glyph glyph-name="uni301D" unicode="&#x301d;" 
 />
    <glyph glyph-name="uni301E" unicode="&#x301e;" 
 />
    <glyph glyph-name="uni301F" unicode="&#x301f;" 
 />
    <glyph glyph-name="uni3020" unicode="&#x3020;" 
 />
    <glyph glyph-name="uni3030" unicode="&#x3030;" 
 />
    <glyph glyph-name="uni3031" unicode="&#x3031;" 
 />
    <glyph glyph-name="uni3032" unicode="&#x3032;" 
 />
    <glyph glyph-name="uni3033" unicode="&#x3033;" 
 />
    <glyph glyph-name="uni3034" unicode="&#x3034;" 
 />
    <glyph glyph-name="uni3035" unicode="&#x3035;" 
 />
    <glyph glyph-name="uni3036" unicode="&#x3036;" 
 />
    <glyph glyph-name="uni3037" unicode="&#x3037;" 
 />
    <glyph glyph-name="uni3041" unicode="&#x3041;" 
d="M128 640h640v-128h-256v-128h256v-384h-256v128h128v128h-128v-128h-128v-128h-256v256h128v256h-128v128zM256 128h128v128h128v128h-128v-128h-128v-128z" />
    <glyph glyph-name="uni3042" unicode="&#x3042;" 
d="M0 896h896v-128h-512v-128h384v-128h128v-384h-128v-128h-256v128h128v256h-128v-128h-128v-128h-128v-128h-128v128h-128v384h128v128h128v128h-256v128zM384 384h128v128h-128v-128zM128 128h128v384h-128v-384z" />
    <glyph glyph-name="uni3043" unicode="&#x3043;" 
d="M128 640h128v-384h128v-256h-128v128h-128v512zM512 640h128v-128h128v-256h-128v128h-128v256z" />
    <glyph glyph-name="uni3044" unicode="&#x3044;" 
d="M0 896h128v-512h128v-128h128v-128h-128v-128h-128v128h-128v768zM512 896h128v-128h128v-128h128v-384h-256v512h-128v128z" />
    <glyph glyph-name="uni3045" unicode="&#x3045;" 
d="M256 640h384v-128h-384v128zM128 384h512v-128h128v-128h-128v-128h-384v128h256v128h-384v128z" />
    <glyph glyph-name="uni3046" unicode="&#x3046;" 
d="M256 896h384v-128h-384v128zM0 640h768v-128h128v-256h-128v-128h-128v-128h-512v128h384v128h128v256h-640v128z" />
    <glyph glyph-name="uni3047" unicode="&#x3047;" 
d="M384 512v128h256v-128h128v-128h-128v-128h-128v-128h256v-128h-384v128h-128v-128h-128v128h128v128h128v128h-256v128h256z" />
    <glyph glyph-name="uni3048" unicode="&#x3048;" 
d="M256 896h384v-128h-384v128zM0 640h896v-128h-128v-128h-128v-256h256v-128h-384v128h-256v-128h-256v128h128v128h128v128h128v128h-384v128z" />
    <glyph glyph-name="uni3049" unicode="&#x3049;" 
d="M128 640h512v-128h-128v-128h128v128h128v-128h-128v-128h128v-256h-128v256h-128v-128h-128v-128h-128v128h-128v128h128v128h128v128h-256v128zM256 128h128v128h-128v-128z" />
    <glyph glyph-name="uni304A" unicode="&#x304a;" 
d="M0 896h640v-128h-128v-128h256v-128h128v-384h-128v-128h-256v128h128v384h-128v-384h-128v-128h-256v128h-128v384h128v128h128v128h-256v128zM768 640v256h128v-256h-128zM128 128h128v384h-128v-384z" />
    <glyph glyph-name="uni304B" unicode="&#x304b;" 
d="M0 768h128v128h128v-128h256v-128h128v-512h-128v-128h-256v128h128v512h-128v-384h-128v-128h-128v128h128v384h-128v128zM640 896h128v-128h128v-256h-128v256h-128v128z" />
    <glyph glyph-name="uni304C" unicode="&#x304c;" 
 />
    <glyph glyph-name="uni304D" unicode="&#x304d;" 
d="M0 896h896v-128h-128v-128h128v-128h-128v-128h128v-128h-256v128h-128v128h-512v128h512v128h-512v128zM0 384h256v-256h384v-128h-512v128h-128v256z" />
    <glyph glyph-name="uni304E" unicode="&#x304e;" 
 />
    <glyph glyph-name="uni304F" unicode="&#x304f;" 
d="M384 896h256v-128h-128v-128h-128v-256h128v-128h128v-128h128v-128h-256v128h-128v128h-128v128h-128v256h128v128h128v128z" />
    <glyph glyph-name="uni3050" unicode="&#x3050;" 
 />
    <glyph glyph-name="uni3051" unicode="&#x3051;" 
d="M0 896h128v-640h-128v640zM256 768h256v128h256v-128h128v-128h-128v-512h-128v-128h-384v128h256v512h-256v128z" />
    <glyph glyph-name="uni3052" unicode="&#x3052;" 
 />
    <glyph glyph-name="uni3053" unicode="&#x3053;" 
d="M128 896h640v-128h128v-128h-256v128h-512v128zM0 384h128v-128h128v-128h640v-128h-768v128h-128v256z" />
    <glyph glyph-name="uni3054" unicode="&#x3054;" 
 />
    <glyph glyph-name="uni3055" unicode="&#x3055;" 
d="M0 768h512v128h256v-128h128v-128h-128v-256h128v-128h-256v128h-128v256h-512v128zM0 384h256v-256h384v-128h-512v128h-128v256z" />
    <glyph glyph-name="uni3056" unicode="&#x3056;" 
 />
    <glyph glyph-name="uni3057" unicode="&#x3057;" 
d="M0 896h256v-640h128v-128h384v128h128v-128h-128v-128h-512v128h-128v128h-128v640z" />
    <glyph glyph-name="uni3058" unicode="&#x3058;" 
 />
    <glyph glyph-name="uni3059" unicode="&#x3059;" 
d="M0 896h896v-128h-128v-640h-128v-128h-512v128h384v128h-256v128h-128v256h128v128h-256v128zM384 384h128v256h-128v-256z" />
    <glyph glyph-name="uni305A" unicode="&#x305a;" 
 />
    <glyph glyph-name="uni305B" unicode="&#x305b;" 
d="M0 768h128v128h256v-128h128v128h256v-128h128v-128h-128v-256h-256v256h-128v-512h384v-128h-512v128h-128v512h-128v128z" />
    <glyph glyph-name="uni305C" unicode="&#x305c;" 
 />
    <glyph glyph-name="uni305D" unicode="&#x305d;" 
d="M0 896h896v-128h-128v-128h128v-128h-384v-128h-128v-256h512v-128h-640v128h-128v256h128v128h-256v128h512v128h-512v128z" />
    <glyph glyph-name="uni305E" unicode="&#x305e;" 
 />
    <glyph glyph-name="uni305F" unicode="&#x305f;" 
d="M0 768h128v128h256v-128h512v-128h-640v-640h-256v512h128v128h-128v128zM384 512h512v-128h-512v128zM384 256h128v-128h384v-128h-384v128h-128v128z" />
    <glyph glyph-name="uni3060" unicode="&#x3060;" 
 />
    <glyph glyph-name="uni3061" unicode="&#x3061;" 
d="M0 768h128v128h256v-128h512v-128h-512v-128h384v-128h128v-256h-128v-128h-768v128h640v256h-512v256h-128v128z" />
    <glyph glyph-name="uni3062" unicode="&#x3062;" 
 />
    <glyph glyph-name="uni3063" unicode="&#x3063;" 
d="M128 640h512v-128h128v-384h-128v-128h-384v128h256v384h-384v128z" />
    <glyph glyph-name="uni3064" unicode="&#x3064;" 
d="M0 896h768v-128h128v-512h-128v-128h-128v-128h-512v128h384v128h128v512h-640v128z" />
    <glyph glyph-name="uni3065" unicode="&#x3065;" 
 />
    <glyph glyph-name="uni3066" unicode="&#x3066;" 
d="M0 896h896v-128h-256v-128h-128v-128h-128v-384h384v-128h-512v128h-128v384h128v128h128v128h-384v128z" />
    <glyph glyph-name="uni3067" unicode="&#x3067;" 
 />
    <glyph glyph-name="uni3068" unicode="&#x3068;" 
d="M128 896h256v-256h512v-128h-512v-128h-128v-256h640v-128h-768v128h-128v384h128v384z" />
    <glyph glyph-name="uni3069" unicode="&#x3069;" 
 />
    <glyph glyph-name="uni306A" unicode="&#x306a;" 
d="M0 768h128v128h256v-128h512v-128h-256v-128h256v-128h-128v-128h128v-128h-256v-128h-256v128h-384v384h128v128h-128v128zM256 640v-384h128v128h128v256h-256zM512 128h128v128h-128v-128z" />
    <glyph glyph-name="uni306B" unicode="&#x306b;" 
d="M0 896h256v-640h256v-128h384v-128h-384v128h-256v-128h-128v128h-128v768zM384 768h128v128h384v-128h-384v-128h-128v128z" />
    <glyph glyph-name="uni306C" unicode="&#x306c;" 
d="M128 896h128v-128h256v128h128v-128h128v-128h128v-640h-128v128h-128v-128h-128v128h-128v128h-128v-256h-128v128h-128v512h128v256zM128 256h128v256h128v128h-128v-128h-128v-256zM512 640v-256h-128v-128h128v-128h128v128h-128v128h128v256h-128z" />
    <glyph glyph-name="uni306D" unicode="&#x306d;" 
d="M256 896h128v-128h384v-128h128v-640h-128v128h-128v-128h-128v128h-128v-128h-128v128h-128v-128h-128v256h128v256h128v128h-256v128h256v128zM512 128h128v128h-128v128h128v256h-256v-384h128v-128z" />
    <glyph glyph-name="uni306E" unicode="&#x306e;" 
d="M256 896h384v-128h128v-128h128v-512h-128v-128h-256v128h128v512h-128v128h-128v-640h-128v-128h-128v128h-128v512h128v128h128v128zM128 128h128v512h-128v-512z" />
    <glyph glyph-name="uni306F" unicode="&#x306f;" 
d="M0 896h128v-640h128v128h256v256h-256v128h256v128h256v-128h128v-128h-128v-384h128v-256h-128v128h-128v-128h-384v128h-128v-128h-128v896zM384 128h128v128h-128v-128z" />
    <glyph glyph-name="uni3070" unicode="&#x3070;" 
 />
    <glyph glyph-name="uni3071" unicode="&#x3071;" 
 />
    <glyph glyph-name="uni3072" unicode="&#x3072;" 
d="M0 896h512v-128h-128v-128h-128v-512h384v384h-128v128h384v-128h-128v-128h128v-256h-128v-128h-640v128h-128v384h128v128h128v128h-256v128z" />
    <glyph glyph-name="uni3073" unicode="&#x3073;" 
 />
    <glyph glyph-name="uni3074" unicode="&#x3074;" 
 />
    <glyph glyph-name="uni3075" unicode="&#x3075;" 
d="M128 896h512v-128h128v-128h-128v-512h-128v-128h-256v128h128v384h-128v128h256v128h-384v128zM0 512h128v-384h-128v384zM768 512h128v-384h-128v384z" />
    <glyph glyph-name="uni3076" unicode="&#x3076;" 
 />
    <glyph glyph-name="uni3077" unicode="&#x3077;" 
 />
    <glyph glyph-name="uni3078" unicode="&#x3078;" 
d="M256 768h256v-128h128v-128h128v-128h128v-256h-128v128h-128v128h-128v128h-256v-128h-128v-128h-128v256h128v128h128v128z" />
    <glyph glyph-name="uni3079" unicode="&#x3079;" 
 />
    <glyph glyph-name="uni307A" unicode="&#x307a;" 
 />
    <glyph glyph-name="uni307B" unicode="&#x307b;" 
d="M0 896h128v-640h128v128h256v128h-256v128h256v128h-256v128h640v-128h-128v-128h128v-128h-128v-256h128v-256h-256v128h-128v-128h-256v128h-128v-128h-128v896zM256 128h256v128h-256v-128z" />
    <glyph glyph-name="uni307C" unicode="&#x307c;" 
 />
    <glyph glyph-name="uni307D" unicode="&#x307d;" 
 />
    <glyph glyph-name="uni307E" unicode="&#x307e;" 
d="M0 896h896v-128h-128v-128h128v-128h-128v-256h128v-256h-128v128h-128v-128h-512v128h-128v128h128v128h384v128h-512v128h512v128h-512v128zM256 128h256v128h-256v-128z" />
    <glyph glyph-name="uni307F" unicode="&#x307f;" 
d="M0 896h512v-384h128v256h128v-256h128v-128h-128v-384h-128v384h-128v-256h-128v-128h-256v128h-128v256h128v128h128v256h-256v128zM128 128h128v256h-128v-256z" />
    <glyph glyph-name="uni3080" unicode="&#x3080;" 
d="M0 768h256v128h256v-128h128v128h128v-128h128v-256h-128v256h-128v-128h-128v-512h256v256h128v-256h-128v-128h-640v128h-128v256h128v128h128v128h-256v128zM128 128h128v256h-128v-256z" />
    <glyph glyph-name="uni3081" unicode="&#x3081;" 
d="M128 896h640v-256h128v-512h-128v-128h-256v128h128v256h-128v-128h-128v-128h-128v-128h-128v128h-128v512h128v256zM128 128h128v512h-128v-512zM384 512h128v256h-128v-256z" />
    <glyph glyph-name="uni3082" unicode="&#x3082;" 
d="M0 768h256v128h256v-128h384v-128h-384v-128h384v-128h-384v-256h384v-128h-512v128h-128v256h-256v128h256v128h-256v128z" />
    <glyph glyph-name="uni3083" unicode="&#x3083;" 
d="M128 512h128v128h128v-128h128v128h128v-256h128v-128h-128v-128h-128v128h128v128h-256v-384h-128v384h-128v128z" />
    <glyph glyph-name="uni3084" unicode="&#x3084;" 
d="M0 768h128v128h256v-128h128v128h256v-256h128v-256h-128v-128h-256v128h128v256h-256v-640h-256v640h-128v128z" />
    <glyph glyph-name="uni3085" unicode="&#x3085;" 
d="M128 512h128v-128h128v256h128v-128h128v-128h128v-256h-128v-128h-256v256h-128v-256h-128v512zM512 128h128v256h-128v-256z" />
    <glyph glyph-name="uni3086" unicode="&#x3086;" 
d="M0 768h128v-128h128v128h128v128h128v-128h256v-128h128v-512h-128v-128h-384v128h-128v128h128v384h-128v-128h-128v-512h-128v768zM512 128h128v512h-128v-512z" />
    <glyph glyph-name="uni3087" unicode="&#x3087;" 
d="M384 640h256v-128h128v-128h-128v-256h128v-128h-128v128h-128v-128h-256v128h-128v128h128v128h128v256zM256 128h128v128h-128v-128z" />
    <glyph glyph-name="uni3088" unicode="&#x3088;" 
d="M384 896h256v-128h256v-128h-256v-256h128v-128h128v-256h-256v128h-128v-128h-384v128h-128v128h128v128h256v512zM128 128h256v128h-256v-128z" />
    <glyph glyph-name="uni3089" unicode="&#x3089;" 
d="M0 896h384v-128h-384v128zM0 640h256v-128h512v-128h128v-256h-128v-128h-768v128h640v256h-640v256z" />
    <glyph glyph-name="uni308A" unicode="&#x308a;" 
d="M0 896h256v-256h128v-128h-128v-128h-256v512zM640 896h256v-640h-128v-128h-128v-128h-384v128h256v128h128v640z" />
    <glyph glyph-name="uni308B" unicode="&#x308b;" 
d="M0 896h896v-128h-128v-256h128v-384h-128v-128h-640v128h-128v128h128v128h384v-128h128v256h-384v128h256v128h-512v128zM256 128h128v128h-128v-128z" />
    <glyph glyph-name="uni308C" unicode="&#x308c;" 
d="M256 896h128v-256h128v128h128v128h128v-640h128v-128h-128v-128h-128v128h-128v384h-128v-512h-128v128h-128v-128h-128v256h128v256h128v128h-256v128h256v128z" />
    <glyph glyph-name="uni308D" unicode="&#x308d;" 
d="M0 896h896v-128h-128v-256h128v-384h-128v-128h-640v128h-128v128h128v-128h512v384h-384v128h256v128h-512v128z" />
    <glyph glyph-name="uni308E" unicode="&#x308e;" 
 />
    <glyph glyph-name="uni308F" unicode="&#x308f;" 
d="M256 896h128v-128h384v-128h128v-512h-128v-128h-256v128h128v512h-256v-640h-128v128h-128v-128h-128v256h128v256h128v128h-256v128h256v128z" />
    <glyph glyph-name="uni3090" unicode="&#x3090;" 
 />
    <glyph glyph-name="uni3091" unicode="&#x3091;" 
 />
    <glyph glyph-name="uni3092" unicode="&#x3092;" 
d="M0 896h896v-128h-512v-128h512v-128h-128v-256h-256v128h-256v-256h640v-128h-768v128h-128v256h128v128h-128v128h128v128h-128v128z" />
    <glyph glyph-name="uni3093" unicode="&#x3093;" 
d="M256 896h256v-256h-128v-256h128v-256h256v256h128v-256h-128v-128h-256v128h-128v128h-128v-256h-256v384h128v256h128v256z" />
    <glyph glyph-name="uni3094" unicode="&#x3094;" 
 />
    <glyph glyph-name="uni309B" unicode="&#x309b;" 
d="M512 384h128v-128h128v-256h-128v256h-128v128zM768 512h128v-128h128v-256h-128v256h-128v128z" />
    <glyph glyph-name="uni309C" unicode="&#x309c;" 
d="M640 512h256v-128h128v-256h-128v-128h-256v128h-128v256h128v128zM640 128h256v256h-256v-256z" />
    <glyph glyph-name="uni309D" unicode="&#x309d;" 
 />
    <glyph glyph-name="uni309E" unicode="&#x309e;" 
 />
    <glyph glyph-name="uni30A1" unicode="&#x30a1;" 
d="M128 640h640v-256h-128v-128h-128v-128h-128v-128h-256v128h128v384h-128v128zM512 512v-128h128v128h-128z" />
    <glyph glyph-name="uni30A2" unicode="&#x30a2;" 
d="M0 896h896v-256h-128v-128h-128v-128h-128v-256h-128v-128h-256v128h128v512h256v-128h128v256h-640v128z" />
    <glyph glyph-name="uni30A3" unicode="&#x30a3;" 
d="M128 384h256v128h128v128h256v-128h-128v-512h-256v256h-256v128z" />
    <glyph glyph-name="uni30A4" unicode="&#x30a4;" 
d="M640 896h256v-128h-128v-128h-128v-640h-256v256h-384v128h256v128h128v128h128v128h128v128z" />
    <glyph glyph-name="uni30A5" unicode="&#x30a5;" 
d="M384 640h128v-128h256v-384h-128v-128h-256v128h128v256h-256v-128h-128v256h256v128z" />
    <glyph glyph-name="uni30A6" unicode="&#x30a6;" 
d="M256 896h256v-128h384v-512h-128v-128h-128v-128h-512v128h384v128h128v384h-384v-256h-256v384h256v128z" />
    <glyph glyph-name="uni30A7" unicode="&#x30a7;" 
d="M256 640h512v-128h-128v-384h128v-128h-640v128h256v384h-128v128z" />
    <glyph glyph-name="uni30A8" unicode="&#x30a8;" 
d="M128 896h768v-128h-256v-640h256v-128h-896v128h384v640h-256v128z" />
    <glyph glyph-name="uni30A9" unicode="&#x30a9;" 
d="M384 640h256v-128h128v-128h-128v-384h-128v128h-256v-128h-128v128h128v128h128v128h-256v128h256v128z" />
    <glyph glyph-name="uni30AA" unicode="&#x30aa;" 
d="M0 768h512v128h256v-128h128v-128h-128v-640h-256v256h-128v-128h-128v-128h-256v128h128v128h128v128h128v128h128v128h-512v128z" />
    <glyph glyph-name="uni30AB" unicode="&#x30ab;" 
d="M0 768h256v128h256v-128h384v-640h-128v-128h-128v128h-128v128h128v384h-128v-256h-128v-128h-128v-128h-128v-128h-128v128h128v256h128v256h-256v128z" />
    <glyph glyph-name="uni30AC" unicode="&#x30ac;" 
 />
    <glyph glyph-name="uni30AD" unicode="&#x30ad;" 
d="M0 768h256v128h256v-128h384v-128h-256v-256h256v-128h-256v-256h-256v256h-384v128h256v256h-256v128z" />
    <glyph glyph-name="uni30AE" unicode="&#x30ae;" 
 />
    <glyph glyph-name="uni30AF" unicode="&#x30af;" 
d="M128 896h768v-640h-128v-128h-128v-128h-384v128h256v128h128v512h-256v-256h-128v-128h-256v128h128v384z" />
    <glyph glyph-name="uni30B0" unicode="&#x30b0;" 
 />
    <glyph glyph-name="uni30B1" unicode="&#x30b1;" 
d="M128 896h256v-128h512v-128h-128v-512h-128v-128h-256v128h128v512h-128v-128h-128v-128h-256v128h128v384z" />
    <glyph glyph-name="uni30B2" unicode="&#x30b2;" 
 />
    <glyph glyph-name="uni30B3" unicode="&#x30b3;" 
d="M0 896h896v-896h-896v128h640v640h-640v128z" />
    <glyph glyph-name="uni30B4" unicode="&#x30b4;" 
 />
    <glyph glyph-name="uni30B5" unicode="&#x30b5;" 
d="M0 768h128v128h256v-128h128v128h256v-128h128v-128h-128v-512h-128v-128h-256v128h128v512h-128v-256h-256v256h-128v128z" />
    <glyph glyph-name="uni30B6" unicode="&#x30b6;" 
 />
    <glyph glyph-name="uni30B7" unicode="&#x30b7;" 
d="M0 896h384v-128h-384v128zM0 640h384v-128h-384v128zM0 128h512v128h128v640h256v-768h-128v-128h-768v128z" />
    <glyph glyph-name="uni30B8" unicode="&#x30b8;" 
 />
    <glyph glyph-name="uni30B9" unicode="&#x30b9;" 
d="M0 896h896v-256h-128v-128h-128v-128h128v-128h128v-256h-256v256h-256v-128h-256v-128h-128v128h128v128h128v128h128v128h128v128h128v128h-640v128z" />
    <glyph glyph-name="uni30BA" unicode="&#x30ba;" 
 />
    <glyph glyph-name="uni30BB" unicode="&#x30bb;" 
d="M0 768h128v128h256v-128h512v-256h-128v-128h-256v128h128v128h-256v-512h512v-128h-640v128h-128v512h-128v128z" />
    <glyph glyph-name="uni30BC" unicode="&#x30bc;" 
 />
    <glyph glyph-name="uni30BD" unicode="&#x30bd;" 
d="M0 896h256v-256h128v-128h-256v128h-128v256zM640 896h256v-512h-128v-128h-128v-128h-128v-128h-384v128h256v128h128v128h128v512z" />
    <glyph glyph-name="uni30BE" unicode="&#x30be;" 
 />
    <glyph glyph-name="uni30BF" unicode="&#x30bf;" 
d="M128 896h768v-640h-128v-128h-128v-128h-384v128h256v256h-256v128h-256v128h128v256zM384 512h256v256h-256v-256z" />
    <glyph glyph-name="uni30C0" unicode="&#x30c0;" 
 />
    <glyph glyph-name="uni30C1" unicode="&#x30c1;" 
d="M128 768h384v128h256v-256h-128v-128h256v-128h-256v-256h-128v-128h-384v128h256v256h-384v128h384v128h-256v128z" />
    <glyph glyph-name="uni30C2" unicode="&#x30c2;" 
 />
    <glyph glyph-name="uni30C3" unicode="&#x30c3;" 
d="M128 640h128v-256h-128v256zM384 640h128v-256h-128v256zM640 640h128v-512h-128v-128h-384v128h256v128h128v384z" />
    <glyph glyph-name="uni30C4" unicode="&#x30c4;" 
d="M0 896h128v-384h-128v384zM256 896h256v-384h-256v384zM640 896h256v-640h-128v-128h-128v-128h-512v128h384v128h128v640z" />
    <glyph glyph-name="uni30C5" unicode="&#x30c5;" 
 />
    <glyph glyph-name="uni30C6" unicode="&#x30c6;" 
d="M128 896h640v-128h-640v128zM0 640h896v-128h-256v-384h-128v-128h-256v128h128v384h-384v128z" />
    <glyph glyph-name="uni30C7" unicode="&#x30c7;" 
 />
    <glyph glyph-name="uni30C8" unicode="&#x30c8;" 
d="M128 896h256v-384h256v-128h256v-256h-256v128h-128v128h-128v-384h-256v896z" />
    <glyph glyph-name="uni30C9" unicode="&#x30c9;" 
 />
    <glyph glyph-name="uni30CA" unicode="&#x30ca;" 
d="M0 768h384v128h256v-128h256v-128h-256v-512h-128v-128h-256v128h128v512h-384v128z" />
    <glyph glyph-name="uni30CB" unicode="&#x30cb;" 
d="M128 896h640v-128h-640v128zM0 128h896v-128h-896v128z" />
    <glyph glyph-name="uni30CC" unicode="&#x30cc;" 
d="M0 896h896v-512h-128v-256h128v-128h-256v128h-256v-128h-384v128h256v128h128v128h-256v128h256v-128h256v384h-640v128z" />
    <glyph glyph-name="uni30CD" unicode="&#x30cd;" 
d="M384 896h256v-128h256v-256h-128v-128h128v-256h-128v128h-128v-256h-256v128h-384v128h256v128h128v128h256v128h-640v128h384v128z" />
    <glyph glyph-name="uni30CE" unicode="&#x30ce;" 
d="M640 896h256v-512h-128v-128h-128v-128h-256v-128h-384v128h256v128h128v128h128v128h128v384z" />
    <glyph glyph-name="uni30CF" unicode="&#x30cf;" 
d="M0 0v128h128v768h256v-640h-128v-128h-128v-128h-128zM512 896h128v-128h128v-128h128v-640h-256v640h-128v256z" />
    <glyph glyph-name="uni30D0" unicode="&#x30d0;" 
 />
    <glyph glyph-name="uni30D1" unicode="&#x30d1;" 
 />
    <glyph glyph-name="uni30D2" unicode="&#x30d2;" 
d="M0 896h256v-128h640v-128h-640v-512h384v128h256v-256h-768v128h-128v768z" />
    <glyph glyph-name="uni30D3" unicode="&#x30d3;" 
 />
    <glyph glyph-name="uni30D4" unicode="&#x30d4;" 
 />
    <glyph glyph-name="uni30D5" unicode="&#x30d5;" 
d="M0 896h896v-512h-128v-128h-128v-128h-256v-128h-384v128h256v128h256v128h128v384h-640v128z" />
    <glyph glyph-name="uni30D6" unicode="&#x30d6;" 
 />
    <glyph glyph-name="uni30D7" unicode="&#x30d7;" 
 />
    <glyph glyph-name="uni30D8" unicode="&#x30d8;" 
d="M256 768h256v-128h128v-128h128v-128h128v-256h-128v128h-128v128h-128v128h-256v-128h-128v-128h-128v256h128v128h128v128z" />
    <glyph glyph-name="uni30D9" unicode="&#x30d9;" 
 />
    <glyph glyph-name="uni30DA" unicode="&#x30da;" 
 />
    <glyph glyph-name="uni30DB" unicode="&#x30db;" 
d="M0 768h256v128h256v-128h384v-128h-384v-640h-256v640h-256v128zM0 384h128v-384h-128v384zM640 384h128v-128h128v-256h-256v384z" />
    <glyph glyph-name="uni30DC" unicode="&#x30dc;" 
 />
    <glyph glyph-name="uni30DD" unicode="&#x30dd;" 
 />
    <glyph glyph-name="uni30DE" unicode="&#x30de;" 
d="M0 896h896v-384h-128v-128h-128v-128h128v-256h-256v256h-128v128h-128v128h-128v128h128v-128h384v256h-640v128z" />
    <glyph glyph-name="uni30DF" unicode="&#x30df;" 
d="M0 896h768v-128h128v-128h-256v128h-640v128zM128 640h384v-128h256v-128h-384v128h-256v128zM0 256h768v-128h128v-128h-384v128h-512v128z" />
    <glyph glyph-name="uni30E0" unicode="&#x30e0;" 
d="M256 896h256v-256h-128v-256h-128v-256h128v128h256v128h-128v128h256v-128h128v-384h-256v128h-256v-128h-384v384h128v256h128v256z" />
    <glyph glyph-name="uni30E1" unicode="&#x30e1;" 
d="M640 896h256v-384h-128v-256h128v-256h-128v128h-128v128h-128v-128h-256v-128h-256v128h256v128h128v256h-128v128h128v-128h256v384z" />
    <glyph glyph-name="uni30E2" unicode="&#x30e2;" 
d="M128 896h640v-128h-256v-128h384v-128h-384v-384h256v-128h-384v128h-128v384h-256v128h256v128h-128v128z" />
    <glyph glyph-name="uni30E3" unicode="&#x30e3;" 
d="M128 512h128v128h128v-128h384v-128h-128v-128h-128v-256h-256v384h-128v128zM384 256h128v128h-128v-128z" />
    <glyph glyph-name="uni30E4" unicode="&#x30e4;" 
d="M0 768h128v128h256v-128h512v-256h-128v-128h-256v-384h-256v384h-128v256h-128v128zM384 640v-256h128v128h128v128h-256z" />
    <glyph glyph-name="uni30E5" unicode="&#x30e5;" 
d="M256 640h384v-512h128v-128h-640v128h256v384h-128v128z" />
    <glyph glyph-name="uni30E6" unicode="&#x30e6;" 
d="M128 896h512v-768h256v-128h-896v128h384v640h-256v128z" />
    <glyph glyph-name="uni30E7" unicode="&#x30e7;" 
d="M128 640h640v-640h-640v128h384v128h-384v128h384v128h-384v128z" />
    <glyph glyph-name="uni30E8" unicode="&#x30e8;" 
d="M0 896h896v-896h-896v128h640v256h-640v128h640v256h-640v128z" />
    <glyph glyph-name="uni30E9" unicode="&#x30e9;" 
d="M128 896h640v-128h-640v128zM0 640h896v-384h-128v-128h-128v-128h-512v128h384v128h128v256h-640v128z" />
    <glyph glyph-name="uni30EA" unicode="&#x30ea;" 
d="M0 896v-512h256v512h-256zM640 896h256v-640h-128v-128h-128v-128h-384v128h256v128h128v640z" />
    <glyph glyph-name="uni30EB" unicode="&#x30eb;" 
d="M128 896h128v-768h-128v-128h-128v128h128v768zM384 896h256v-640h128v128h128v-256h-128v-128h-384v896z" />
    <glyph glyph-name="uni30EC" unicode="&#x30ec;" 
d="M0 896h256v-768h384v128h128v256h128v-256h-128v-128h-128v-128h-640v896z" />
    <glyph glyph-name="uni30ED" unicode="&#x30ed;" 
d="M0 896h896v-896h-896v896zM256 768v-640h384v640h-384z" />
    <glyph glyph-name="uni30EE" unicode="&#x30ee;" 
 />
    <glyph glyph-name="uni30EF" unicode="&#x30ef;" 
d="M0 896h896v-640h-128v-128h-128v-128h-512v128h384v128h128v512h-384v-384h-256v512z" />
    <glyph glyph-name="uni30F0" unicode="&#x30f0;" 
 />
    <glyph glyph-name="uni30F1" unicode="&#x30f1;" 
 />
    <glyph glyph-name="uni30F2" unicode="&#x30f2;" 
d="M0 896h896v-640h-128v-128h-128v-128h-384v128h256v128h128v128h-640v128h640v256h-640v128z" />
    <glyph glyph-name="uni30F3" unicode="&#x30f3;" 
d="M0 896h384v-128h-384v128zM640 896h256v-640h-128v-128h-128v-128h-640v128h512v128h128v640z" />
    <glyph glyph-name="uni30F4" unicode="&#x30f4;" 
 />
    <glyph glyph-name="uni30F5" unicode="&#x30f5;" 
 />
    <glyph glyph-name="uni30F6" unicode="&#x30f6;" 
 />
    <glyph glyph-name="uni30F7" unicode="&#x30f7;" 
 />
    <glyph glyph-name="uni30F8" unicode="&#x30f8;" 
 />
    <glyph glyph-name="uni30F9" unicode="&#x30f9;" 
 />
    <glyph glyph-name="uni30FA" unicode="&#x30fa;" 
 />
    <glyph glyph-name="uni30FB" unicode="&#x30fb;" 
 />
    <glyph glyph-name="uni30FC" unicode="&#x30fc;" 
d="M0 512h896v-128h-896v128z" />
    <glyph glyph-name="uni30FD" unicode="&#x30fd;" 
 />
    <glyph glyph-name="uni30FE" unicode="&#x30fe;" 
 />
    <glyph glyph-name="uni3220" unicode="&#x3220;" 
 />
    <glyph glyph-name="uni3221" unicode="&#x3221;" 
 />
    <glyph glyph-name="uni3222" unicode="&#x3222;" 
 />
    <glyph glyph-name="uni3223" unicode="&#x3223;" 
 />
    <glyph glyph-name="uni3224" unicode="&#x3224;" 
 />
    <glyph glyph-name="uni3225" unicode="&#x3225;" 
 />
    <glyph glyph-name="uni3226" unicode="&#x3226;" 
 />
    <glyph glyph-name="uni3227" unicode="&#x3227;" 
 />
    <glyph glyph-name="uni3228" unicode="&#x3228;" 
 />
    <glyph glyph-name="uni3229" unicode="&#x3229;" 
 />
    <glyph glyph-name="uni322A" unicode="&#x322a;" 
 />
    <glyph glyph-name="uni322B" unicode="&#x322b;" 
 />
    <glyph glyph-name="uni322C" unicode="&#x322c;" 
 />
    <glyph glyph-name="uni322D" unicode="&#x322d;" 
 />
    <glyph glyph-name="uni322E" unicode="&#x322e;" 
 />
    <glyph glyph-name="uni322F" unicode="&#x322f;" 
 />
    <glyph glyph-name="uni3230" unicode="&#x3230;" 
 />
    <glyph glyph-name="uni3231" unicode="&#x3231;" 
 />
    <glyph glyph-name="uni3232" unicode="&#x3232;" 
 />
    <glyph glyph-name="uni3233" unicode="&#x3233;" 
 />
    <glyph glyph-name="uni3234" unicode="&#x3234;" 
 />
    <glyph glyph-name="uni3235" unicode="&#x3235;" 
 />
    <glyph glyph-name="uni3236" unicode="&#x3236;" 
 />
    <glyph glyph-name="uni3237" unicode="&#x3237;" 
 />
    <glyph glyph-name="uni3238" unicode="&#x3238;" 
 />
    <glyph glyph-name="uni3239" unicode="&#x3239;" 
 />
    <glyph glyph-name="uni323A" unicode="&#x323a;" 
 />
    <glyph glyph-name="uni323B" unicode="&#x323b;" 
 />
    <glyph glyph-name="uni323C" unicode="&#x323c;" 
 />
    <glyph glyph-name="uni323D" unicode="&#x323d;" 
 />
    <glyph glyph-name="uni323E" unicode="&#x323e;" 
 />
    <glyph glyph-name="uni323F" unicode="&#x323f;" 
 />
    <glyph glyph-name="uni3240" unicode="&#x3240;" 
 />
    <glyph glyph-name="uni3241" unicode="&#x3241;" 
 />
    <glyph glyph-name="uni3242" unicode="&#x3242;" 
 />
    <glyph glyph-name="uni3243" unicode="&#x3243;" 
 />
    <glyph glyph-name="uni3280" unicode="&#x3280;" 
 />
    <glyph glyph-name="uni3281" unicode="&#x3281;" 
 />
    <glyph glyph-name="uni3282" unicode="&#x3282;" 
 />
    <glyph glyph-name="uni3283" unicode="&#x3283;" 
 />
    <glyph glyph-name="uni3284" unicode="&#x3284;" 
 />
    <glyph glyph-name="uni3285" unicode="&#x3285;" 
 />
    <glyph glyph-name="uni3286" unicode="&#x3286;" 
 />
    <glyph glyph-name="uni3287" unicode="&#x3287;" 
 />
    <glyph glyph-name="uni3288" unicode="&#x3288;" 
 />
    <glyph glyph-name="uni3289" unicode="&#x3289;" 
 />
    <glyph glyph-name="uni328A" unicode="&#x328a;" 
 />
    <glyph glyph-name="uni328B" unicode="&#x328b;" 
 />
    <glyph glyph-name="uni328C" unicode="&#x328c;" 
 />
    <glyph glyph-name="uni328D" unicode="&#x328d;" 
 />
    <glyph glyph-name="uni328E" unicode="&#x328e;" 
 />
    <glyph glyph-name="uni328F" unicode="&#x328f;" 
 />
    <glyph glyph-name="uni3290" unicode="&#x3290;" 
 />
    <glyph glyph-name="uni3291" unicode="&#x3291;" 
 />
    <glyph glyph-name="uni3292" unicode="&#x3292;" 
 />
    <glyph glyph-name="uni3293" unicode="&#x3293;" 
 />
    <glyph glyph-name="uni3294" unicode="&#x3294;" 
 />
    <glyph glyph-name="uni3295" unicode="&#x3295;" 
 />
    <glyph glyph-name="uni3296" unicode="&#x3296;" 
 />
    <glyph glyph-name="uni3297" unicode="&#x3297;" 
 />
    <glyph glyph-name="uni3298" unicode="&#x3298;" 
 />
    <glyph glyph-name="uni3299" unicode="&#x3299;" 
 />
    <glyph glyph-name="uni329A" unicode="&#x329a;" 
 />
    <glyph glyph-name="uni329B" unicode="&#x329b;" 
 />
    <glyph glyph-name="uni329C" unicode="&#x329c;" 
 />
    <glyph glyph-name="uni329D" unicode="&#x329d;" 
 />
    <glyph glyph-name="uni329E" unicode="&#x329e;" 
 />
    <glyph glyph-name="uni329F" unicode="&#x329f;" 
 />
    <glyph glyph-name="uni32A0" unicode="&#x32a0;" 
 />
    <glyph glyph-name="uni32A1" unicode="&#x32a1;" 
 />
    <glyph glyph-name="uni32A2" unicode="&#x32a2;" 
 />
    <glyph glyph-name="uni32A3" unicode="&#x32a3;" 
 />
    <glyph glyph-name="uni32A4" unicode="&#x32a4;" 
 />
    <glyph glyph-name="uni32A5" unicode="&#x32a5;" 
 />
    <glyph glyph-name="uni32A6" unicode="&#x32a6;" 
 />
    <glyph glyph-name="uni32A7" unicode="&#x32a7;" 
 />
    <glyph glyph-name="uni32A8" unicode="&#x32a8;" 
 />
    <glyph glyph-name="uni32A9" unicode="&#x32a9;" 
 />
    <glyph glyph-name="uni32AA" unicode="&#x32aa;" 
 />
    <glyph glyph-name="uni32AB" unicode="&#x32ab;" 
 />
    <glyph glyph-name="uni32AC" unicode="&#x32ac;" 
 />
    <glyph glyph-name="uni32AD" unicode="&#x32ad;" 
 />
    <glyph glyph-name="uni32AE" unicode="&#x32ae;" 
 />
    <glyph glyph-name="uni32AF" unicode="&#x32af;" 
 />
    <glyph glyph-name="uni32B0" unicode="&#x32b0;" 
 />
    <glyph glyph-name="uni32C0" unicode="&#x32c0;" 
 />
    <glyph glyph-name="uni32C1" unicode="&#x32c1;" 
 />
    <glyph glyph-name="uni32C2" unicode="&#x32c2;" 
 />
    <glyph glyph-name="uni32C3" unicode="&#x32c3;" 
 />
    <glyph glyph-name="uni32C4" unicode="&#x32c4;" 
 />
    <glyph glyph-name="uni32C5" unicode="&#x32c5;" 
 />
    <glyph glyph-name="uni32C6" unicode="&#x32c6;" 
 />
    <glyph glyph-name="uni32C7" unicode="&#x32c7;" 
 />
    <glyph glyph-name="uni32C8" unicode="&#x32c8;" 
 />
    <glyph glyph-name="uni32C9" unicode="&#x32c9;" 
 />
    <glyph glyph-name="uni32CA" unicode="&#x32ca;" 
 />
    <glyph glyph-name="uni32CB" unicode="&#x32cb;" 
 />
    <glyph glyph-name="uni32D0" unicode="&#x32d0;" 
 />
    <glyph glyph-name="uni32D1" unicode="&#x32d1;" 
 />
    <glyph glyph-name="uni32D2" unicode="&#x32d2;" 
 />
    <glyph glyph-name="uni32D3" unicode="&#x32d3;" 
 />
    <glyph glyph-name="uni32D4" unicode="&#x32d4;" 
 />
    <glyph glyph-name="uni32D5" unicode="&#x32d5;" 
 />
    <glyph glyph-name="uni32D6" unicode="&#x32d6;" 
 />
    <glyph glyph-name="uni32D7" unicode="&#x32d7;" 
 />
    <glyph glyph-name="uni32D8" unicode="&#x32d8;" 
 />
    <glyph glyph-name="uni32D9" unicode="&#x32d9;" 
 />
    <glyph glyph-name="uni32DA" unicode="&#x32da;" 
 />
    <glyph glyph-name="uni32DB" unicode="&#x32db;" 
 />
    <glyph glyph-name="uni32DC" unicode="&#x32dc;" 
 />
    <glyph glyph-name="uni32DD" unicode="&#x32dd;" 
 />
    <glyph glyph-name="uni32DE" unicode="&#x32de;" 
 />
    <glyph glyph-name="uni32DF" unicode="&#x32df;" 
 />
    <glyph glyph-name="uni32E0" unicode="&#x32e0;" 
 />
    <glyph glyph-name="uni32E1" unicode="&#x32e1;" 
 />
    <glyph glyph-name="uni32E2" unicode="&#x32e2;" 
 />
    <glyph glyph-name="uni32E3" unicode="&#x32e3;" 
 />
    <glyph glyph-name="uni32E4" unicode="&#x32e4;" 
 />
    <glyph glyph-name="uni32E5" unicode="&#x32e5;" 
 />
    <glyph glyph-name="uni32E6" unicode="&#x32e6;" 
 />
    <glyph glyph-name="uni32E7" unicode="&#x32e7;" 
 />
    <glyph glyph-name="uni32E8" unicode="&#x32e8;" 
 />
    <glyph glyph-name="uni32E9" unicode="&#x32e9;" 
 />
    <glyph glyph-name="uni32EA" unicode="&#x32ea;" 
 />
    <glyph glyph-name="uni32EB" unicode="&#x32eb;" 
 />
    <glyph glyph-name="uni32EC" unicode="&#x32ec;" 
 />
    <glyph glyph-name="uni32ED" unicode="&#x32ed;" 
 />
    <glyph glyph-name="uni32EE" unicode="&#x32ee;" 
 />
    <glyph glyph-name="uni32EF" unicode="&#x32ef;" 
 />
    <glyph glyph-name="uni32F0" unicode="&#x32f0;" 
 />
    <glyph glyph-name="uni32F1" unicode="&#x32f1;" 
 />
    <glyph glyph-name="uni32F2" unicode="&#x32f2;" 
 />
    <glyph glyph-name="uni32F3" unicode="&#x32f3;" 
 />
    <glyph glyph-name="uni32F4" unicode="&#x32f4;" 
 />
    <glyph glyph-name="uni32F5" unicode="&#x32f5;" 
 />
    <glyph glyph-name="uni32F6" unicode="&#x32f6;" 
 />
    <glyph glyph-name="uni32F7" unicode="&#x32f7;" 
 />
    <glyph glyph-name="uni32F8" unicode="&#x32f8;" 
 />
    <glyph glyph-name="uni32F9" unicode="&#x32f9;" 
 />
    <glyph glyph-name="uni32FA" unicode="&#x32fa;" 
 />
    <glyph glyph-name="uni32FB" unicode="&#x32fb;" 
 />
    <glyph glyph-name="uni32FC" unicode="&#x32fc;" 
 />
    <glyph glyph-name="uni32FD" unicode="&#x32fd;" 
 />
    <glyph glyph-name="uni32FE" unicode="&#x32fe;" 
 />
    <glyph glyph-name="uni3300" unicode="&#x3300;" 
 />
    <glyph glyph-name="uni3301" unicode="&#x3301;" 
 />
    <glyph glyph-name="uni3302" unicode="&#x3302;" 
 />
    <glyph glyph-name="uni3303" unicode="&#x3303;" 
 />
    <glyph glyph-name="uni3304" unicode="&#x3304;" 
 />
    <glyph glyph-name="uni3305" unicode="&#x3305;" 
 />
    <glyph glyph-name="uni3306" unicode="&#x3306;" 
 />
    <glyph glyph-name="uni3307" unicode="&#x3307;" 
 />
    <glyph glyph-name="uni3308" unicode="&#x3308;" 
 />
    <glyph glyph-name="uni3309" unicode="&#x3309;" 
 />
    <glyph glyph-name="uni330A" unicode="&#x330a;" 
 />
    <glyph glyph-name="uni330B" unicode="&#x330b;" 
 />
    <glyph glyph-name="uni330C" unicode="&#x330c;" 
 />
    <glyph glyph-name="uni330D" unicode="&#x330d;" 
 />
    <glyph glyph-name="uni330E" unicode="&#x330e;" 
 />
    <glyph glyph-name="uni330F" unicode="&#x330f;" 
 />
    <glyph glyph-name="uni3310" unicode="&#x3310;" 
 />
    <glyph glyph-name="uni3311" unicode="&#x3311;" 
 />
    <glyph glyph-name="uni3312" unicode="&#x3312;" 
 />
    <glyph glyph-name="uni3313" unicode="&#x3313;" 
 />
    <glyph glyph-name="uni3314" unicode="&#x3314;" 
 />
    <glyph glyph-name="uni3315" unicode="&#x3315;" 
 />
    <glyph glyph-name="uni3316" unicode="&#x3316;" 
 />
    <glyph glyph-name="uni3317" unicode="&#x3317;" 
 />
    <glyph glyph-name="uni3318" unicode="&#x3318;" 
 />
    <glyph glyph-name="uni3319" unicode="&#x3319;" 
 />
    <glyph glyph-name="uni331A" unicode="&#x331a;" 
 />
    <glyph glyph-name="uni331B" unicode="&#x331b;" 
 />
    <glyph glyph-name="uni331C" unicode="&#x331c;" 
 />
    <glyph glyph-name="uni331D" unicode="&#x331d;" 
 />
    <glyph glyph-name="uni331E" unicode="&#x331e;" 
 />
    <glyph glyph-name="uni331F" unicode="&#x331f;" 
 />
    <glyph glyph-name="uni3320" unicode="&#x3320;" 
 />
    <glyph glyph-name="uni3321" unicode="&#x3321;" 
 />
    <glyph glyph-name="uni3322" unicode="&#x3322;" 
 />
    <glyph glyph-name="uni3323" unicode="&#x3323;" 
 />
    <glyph glyph-name="uni3324" unicode="&#x3324;" 
 />
    <glyph glyph-name="uni3325" unicode="&#x3325;" 
 />
    <glyph glyph-name="uni3326" unicode="&#x3326;" 
 />
    <glyph glyph-name="uni3327" unicode="&#x3327;" 
 />
    <glyph glyph-name="uni3328" unicode="&#x3328;" 
 />
    <glyph glyph-name="uni3329" unicode="&#x3329;" 
 />
    <glyph glyph-name="uni332A" unicode="&#x332a;" 
 />
    <glyph glyph-name="uni332B" unicode="&#x332b;" 
 />
    <glyph glyph-name="uni332C" unicode="&#x332c;" 
 />
    <glyph glyph-name="uni332D" unicode="&#x332d;" 
 />
    <glyph glyph-name="uni332E" unicode="&#x332e;" 
 />
    <glyph glyph-name="uni332F" unicode="&#x332f;" 
 />
    <glyph glyph-name="uni3330" unicode="&#x3330;" 
 />
    <glyph glyph-name="uni3331" unicode="&#x3331;" 
 />
    <glyph glyph-name="uni3332" unicode="&#x3332;" 
 />
    <glyph glyph-name="uni3333" unicode="&#x3333;" 
 />
    <glyph glyph-name="uni3334" unicode="&#x3334;" 
 />
    <glyph glyph-name="uni3335" unicode="&#x3335;" 
 />
    <glyph glyph-name="uni3336" unicode="&#x3336;" 
 />
    <glyph glyph-name="uni3337" unicode="&#x3337;" 
 />
    <glyph glyph-name="uni3338" unicode="&#x3338;" 
 />
    <glyph glyph-name="uni3339" unicode="&#x3339;" 
 />
    <glyph glyph-name="uni333A" unicode="&#x333a;" 
 />
    <glyph glyph-name="uni333B" unicode="&#x333b;" 
 />
    <glyph glyph-name="uni333C" unicode="&#x333c;" 
 />
    <glyph glyph-name="uni333D" unicode="&#x333d;" 
 />
    <glyph glyph-name="uni333E" unicode="&#x333e;" 
 />
    <glyph glyph-name="uni333F" unicode="&#x333f;" 
 />
    <glyph glyph-name="uni3340" unicode="&#x3340;" 
 />
    <glyph glyph-name="uni3341" unicode="&#x3341;" 
 />
    <glyph glyph-name="uni3342" unicode="&#x3342;" 
 />
    <glyph glyph-name="uni3343" unicode="&#x3343;" 
 />
    <glyph glyph-name="uni3344" unicode="&#x3344;" 
 />
    <glyph glyph-name="uni3345" unicode="&#x3345;" 
 />
    <glyph glyph-name="uni3346" unicode="&#x3346;" 
 />
    <glyph glyph-name="uni3347" unicode="&#x3347;" 
 />
    <glyph glyph-name="uni3348" unicode="&#x3348;" 
 />
    <glyph glyph-name="uni3349" unicode="&#x3349;" 
 />
    <glyph glyph-name="uni334A" unicode="&#x334a;" 
 />
    <glyph glyph-name="uni334B" unicode="&#x334b;" 
 />
    <glyph glyph-name="uni334C" unicode="&#x334c;" 
 />
    <glyph glyph-name="uni334D" unicode="&#x334d;" 
 />
    <glyph glyph-name="uni334E" unicode="&#x334e;" 
 />
    <glyph glyph-name="uni334F" unicode="&#x334f;" 
 />
    <glyph glyph-name="uni3350" unicode="&#x3350;" 
 />
    <glyph glyph-name="uni3351" unicode="&#x3351;" 
 />
    <glyph glyph-name="uni3352" unicode="&#x3352;" 
 />
    <glyph glyph-name="uni3353" unicode="&#x3353;" 
 />
    <glyph glyph-name="uni3354" unicode="&#x3354;" 
 />
    <glyph glyph-name="uni3355" unicode="&#x3355;" 
 />
    <glyph glyph-name="uni3356" unicode="&#x3356;" 
 />
    <glyph glyph-name="uni3357" unicode="&#x3357;" 
 />
    <glyph glyph-name="uni3358" unicode="&#x3358;" 
 />
    <glyph glyph-name="uni3359" unicode="&#x3359;" 
 />
    <glyph glyph-name="uni335A" unicode="&#x335a;" 
 />
    <glyph glyph-name="uni335B" unicode="&#x335b;" 
 />
    <glyph glyph-name="uni335C" unicode="&#x335c;" 
 />
    <glyph glyph-name="uni335D" unicode="&#x335d;" 
 />
    <glyph glyph-name="uni335E" unicode="&#x335e;" 
 />
    <glyph glyph-name="uni335F" unicode="&#x335f;" 
 />
    <glyph glyph-name="uni3360" unicode="&#x3360;" 
 />
    <glyph glyph-name="uni3361" unicode="&#x3361;" 
 />
    <glyph glyph-name="uni3362" unicode="&#x3362;" 
 />
    <glyph glyph-name="uni3363" unicode="&#x3363;" 
 />
    <glyph glyph-name="uni3364" unicode="&#x3364;" 
 />
    <glyph glyph-name="uni3365" unicode="&#x3365;" 
 />
    <glyph glyph-name="uni3366" unicode="&#x3366;" 
 />
    <glyph glyph-name="uni3367" unicode="&#x3367;" 
 />
    <glyph glyph-name="uni3368" unicode="&#x3368;" 
 />
    <glyph glyph-name="uni3369" unicode="&#x3369;" 
 />
    <glyph glyph-name="uni336A" unicode="&#x336a;" 
 />
    <glyph glyph-name="uni336B" unicode="&#x336b;" 
 />
    <glyph glyph-name="uni336C" unicode="&#x336c;" 
 />
    <glyph glyph-name="uni336D" unicode="&#x336d;" 
 />
    <glyph glyph-name="uni336E" unicode="&#x336e;" 
 />
    <glyph glyph-name="uni336F" unicode="&#x336f;" 
 />
    <glyph glyph-name="uni3370" unicode="&#x3370;" 
 />
    <glyph glyph-name="uni3371" unicode="&#x3371;" 
 />
    <glyph glyph-name="uni3372" unicode="&#x3372;" 
 />
    <glyph glyph-name="uni3373" unicode="&#x3373;" 
 />
    <glyph glyph-name="uni3374" unicode="&#x3374;" 
 />
    <glyph glyph-name="uni3375" unicode="&#x3375;" 
 />
    <glyph glyph-name="uni3376" unicode="&#x3376;" 
 />
    <glyph glyph-name="uni337B" unicode="&#x337b;" 
 />
    <glyph glyph-name="uni337C" unicode="&#x337c;" 
 />
    <glyph glyph-name="uni337D" unicode="&#x337d;" 
 />
    <glyph glyph-name="uni337E" unicode="&#x337e;" 
 />
    <glyph glyph-name="uni337F" unicode="&#x337f;" 
 />
    <glyph glyph-name="uni3380" unicode="&#x3380;" 
 />
    <glyph glyph-name="uni3381" unicode="&#x3381;" 
 />
    <glyph glyph-name="uni3382" unicode="&#x3382;" 
 />
    <glyph glyph-name="uni3383" unicode="&#x3383;" 
 />
    <glyph glyph-name="uni3384" unicode="&#x3384;" 
 />
    <glyph glyph-name="uni3385" unicode="&#x3385;" 
 />
    <glyph glyph-name="uni3386" unicode="&#x3386;" 
 />
    <glyph glyph-name="uni3387" unicode="&#x3387;" 
 />
    <glyph glyph-name="uni3388" unicode="&#x3388;" 
 />
    <glyph glyph-name="uni3389" unicode="&#x3389;" 
 />
    <glyph glyph-name="uni338A" unicode="&#x338a;" 
 />
    <glyph glyph-name="uni338B" unicode="&#x338b;" 
 />
    <glyph glyph-name="uni338C" unicode="&#x338c;" 
 />
    <glyph glyph-name="uni338D" unicode="&#x338d;" 
 />
    <glyph glyph-name="uni338E" unicode="&#x338e;" 
 />
    <glyph glyph-name="uni338F" unicode="&#x338f;" 
 />
    <glyph glyph-name="uni3390" unicode="&#x3390;" 
 />
    <glyph glyph-name="uni3391" unicode="&#x3391;" 
 />
    <glyph glyph-name="uni3392" unicode="&#x3392;" 
 />
    <glyph glyph-name="uni3393" unicode="&#x3393;" 
 />
    <glyph glyph-name="uni3394" unicode="&#x3394;" 
 />
    <glyph glyph-name="uni3395" unicode="&#x3395;" 
 />
    <glyph glyph-name="uni3396" unicode="&#x3396;" 
 />
    <glyph glyph-name="uni3397" unicode="&#x3397;" 
 />
    <glyph glyph-name="uni3398" unicode="&#x3398;" 
 />
    <glyph glyph-name="uni3399" unicode="&#x3399;" 
 />
    <glyph glyph-name="uni339A" unicode="&#x339a;" 
 />
    <glyph glyph-name="uni339B" unicode="&#x339b;" 
 />
    <glyph glyph-name="uni339C" unicode="&#x339c;" 
 />
    <glyph glyph-name="uni339D" unicode="&#x339d;" 
 />
    <glyph glyph-name="uni339E" unicode="&#x339e;" 
 />
    <glyph glyph-name="uni339F" unicode="&#x339f;" 
 />
    <glyph glyph-name="uni33A0" unicode="&#x33a0;" 
 />
    <glyph glyph-name="uni33A1" unicode="&#x33a1;" 
 />
    <glyph glyph-name="uni33A2" unicode="&#x33a2;" 
 />
    <glyph glyph-name="uni33A3" unicode="&#x33a3;" 
 />
    <glyph glyph-name="uni33A4" unicode="&#x33a4;" 
 />
    <glyph glyph-name="uni33A5" unicode="&#x33a5;" 
 />
    <glyph glyph-name="uni33A6" unicode="&#x33a6;" 
 />
    <glyph glyph-name="uni33A7" unicode="&#x33a7;" 
 />
    <glyph glyph-name="uni33A8" unicode="&#x33a8;" 
 />
    <glyph glyph-name="uni33A9" unicode="&#x33a9;" 
 />
    <glyph glyph-name="uni33AA" unicode="&#x33aa;" 
 />
    <glyph glyph-name="uni33AB" unicode="&#x33ab;" 
 />
    <glyph glyph-name="uni33AC" unicode="&#x33ac;" 
 />
    <glyph glyph-name="uni33AD" unicode="&#x33ad;" 
 />
    <glyph glyph-name="uni33AE" unicode="&#x33ae;" 
 />
    <glyph glyph-name="uni33AF" unicode="&#x33af;" 
 />
    <glyph glyph-name="uni33B0" unicode="&#x33b0;" 
 />
    <glyph glyph-name="uni33B1" unicode="&#x33b1;" 
 />
    <glyph glyph-name="uni33B2" unicode="&#x33b2;" 
 />
    <glyph glyph-name="uni33B3" unicode="&#x33b3;" 
 />
    <glyph glyph-name="uni33B4" unicode="&#x33b4;" 
 />
    <glyph glyph-name="uni33B5" unicode="&#x33b5;" 
 />
    <glyph glyph-name="uni33B6" unicode="&#x33b6;" 
 />
    <glyph glyph-name="uni33B7" unicode="&#x33b7;" 
 />
    <glyph glyph-name="uni33B8" unicode="&#x33b8;" 
 />
    <glyph glyph-name="uni33B9" unicode="&#x33b9;" 
 />
    <glyph glyph-name="uni33BA" unicode="&#x33ba;" 
 />
    <glyph glyph-name="uni33BB" unicode="&#x33bb;" 
 />
    <glyph glyph-name="uni33BC" unicode="&#x33bc;" 
 />
    <glyph glyph-name="uni33BD" unicode="&#x33bd;" 
 />
    <glyph glyph-name="uni33BE" unicode="&#x33be;" 
 />
    <glyph glyph-name="uni33BF" unicode="&#x33bf;" 
 />
    <glyph glyph-name="uni33C0" unicode="&#x33c0;" 
 />
    <glyph glyph-name="uni33C1" unicode="&#x33c1;" 
 />
    <glyph glyph-name="uni33C2" unicode="&#x33c2;" 
 />
    <glyph glyph-name="uni33C3" unicode="&#x33c3;" 
 />
    <glyph glyph-name="uni33C4" unicode="&#x33c4;" 
 />
    <glyph glyph-name="uni33C5" unicode="&#x33c5;" 
 />
    <glyph glyph-name="uni33C6" unicode="&#x33c6;" 
 />
    <glyph glyph-name="uni33C7" unicode="&#x33c7;" 
 />
    <glyph glyph-name="uni33C8" unicode="&#x33c8;" 
 />
    <glyph glyph-name="uni33C9" unicode="&#x33c9;" 
 />
    <glyph glyph-name="uni33CA" unicode="&#x33ca;" 
 />
    <glyph glyph-name="uni33CB" unicode="&#x33cb;" 
 />
    <glyph glyph-name="uni33CC" unicode="&#x33cc;" 
 />
    <glyph glyph-name="uni33CD" unicode="&#x33cd;" 
 />
    <glyph glyph-name="uni33CE" unicode="&#x33ce;" 
 />
    <glyph glyph-name="uni33CF" unicode="&#x33cf;" 
 />
    <glyph glyph-name="uni33D0" unicode="&#x33d0;" 
 />
    <glyph glyph-name="uni33D1" unicode="&#x33d1;" 
 />
    <glyph glyph-name="uni33D2" unicode="&#x33d2;" 
 />
    <glyph glyph-name="uni33D3" unicode="&#x33d3;" 
 />
    <glyph glyph-name="uni33D4" unicode="&#x33d4;" 
 />
    <glyph glyph-name="uni33D5" unicode="&#x33d5;" 
 />
    <glyph glyph-name="uni33D6" unicode="&#x33d6;" 
 />
    <glyph glyph-name="uni33D7" unicode="&#x33d7;" 
 />
    <glyph glyph-name="uni33D8" unicode="&#x33d8;" 
 />
    <glyph glyph-name="uni33D9" unicode="&#x33d9;" 
 />
    <glyph glyph-name="uni33DA" unicode="&#x33da;" 
 />
    <glyph glyph-name="uni33DB" unicode="&#x33db;" 
 />
    <glyph glyph-name="uni33DC" unicode="&#x33dc;" 
 />
    <glyph glyph-name="uni33DD" unicode="&#x33dd;" 
 />
    <glyph glyph-name="uni33E0" unicode="&#x33e0;" 
 />
    <glyph glyph-name="uni33E1" unicode="&#x33e1;" 
 />
    <glyph glyph-name="uni33E2" unicode="&#x33e2;" 
 />
    <glyph glyph-name="uni33E3" unicode="&#x33e3;" 
 />
    <glyph glyph-name="uni33E4" unicode="&#x33e4;" 
 />
    <glyph glyph-name="uni33E5" unicode="&#x33e5;" 
 />
    <glyph glyph-name="uni33E6" unicode="&#x33e6;" 
 />
    <glyph glyph-name="uni33E7" unicode="&#x33e7;" 
 />
    <glyph glyph-name="uni33E8" unicode="&#x33e8;" 
 />
    <glyph glyph-name="uni33E9" unicode="&#x33e9;" 
 />
    <glyph glyph-name="uni33EA" unicode="&#x33ea;" 
 />
    <glyph glyph-name="uni33EB" unicode="&#x33eb;" 
 />
    <glyph glyph-name="uni33EC" unicode="&#x33ec;" 
 />
    <glyph glyph-name="uni33ED" unicode="&#x33ed;" 
 />
    <glyph glyph-name="uni33EE" unicode="&#x33ee;" 
 />
    <glyph glyph-name="uni33EF" unicode="&#x33ef;" 
 />
    <glyph glyph-name="uni33F0" unicode="&#x33f0;" 
 />
    <glyph glyph-name="uni33F1" unicode="&#x33f1;" 
 />
    <glyph glyph-name="uni33F2" unicode="&#x33f2;" 
 />
    <glyph glyph-name="uni33F3" unicode="&#x33f3;" 
 />
    <glyph glyph-name="uni33F4" unicode="&#x33f4;" 
 />
    <glyph glyph-name="uni33F5" unicode="&#x33f5;" 
 />
    <glyph glyph-name="uni33F6" unicode="&#x33f6;" 
 />
    <glyph glyph-name="uni33F7" unicode="&#x33f7;" 
 />
    <glyph glyph-name="uni33F8" unicode="&#x33f8;" 
 />
    <glyph glyph-name="uni33F9" unicode="&#x33f9;" 
 />
    <glyph glyph-name="uni33FA" unicode="&#x33fa;" 
 />
    <glyph glyph-name="uni33FB" unicode="&#x33fb;" 
 />
    <glyph glyph-name="uni33FC" unicode="&#x33fc;" 
 />
    <glyph glyph-name="uni33FD" unicode="&#x33fd;" 
 />
    <glyph glyph-name="uni33FE" unicode="&#x33fe;" 
 />
    <glyph glyph-name="uni4E00" unicode="&#x4e00;" 
 />
    <glyph glyph-name="uni4E01" unicode="&#x4e01;" 
 />
    <glyph glyph-name="uni4E02" unicode="&#x4e02;" 
 />
    <glyph glyph-name="uni4E03" unicode="&#x4e03;" 
 />
    <glyph glyph-name="uni4E04" unicode="&#x4e04;" 
 />
    <glyph glyph-name="uni4E05" unicode="&#x4e05;" 
 />
    <glyph glyph-name="uni4E07" unicode="&#x4e07;" 
 />
    <glyph glyph-name="uni4E08" unicode="&#x4e08;" 
 />
    <glyph glyph-name="uni4E09" unicode="&#x4e09;" 
 />
    <glyph glyph-name="uni4E0A" unicode="&#x4e0a;" 
 />
    <glyph glyph-name="uni4E0B" unicode="&#x4e0b;" 
 />
    <glyph glyph-name="uni4E0C" unicode="&#x4e0c;" 
 />
    <glyph glyph-name="uni4E0D" unicode="&#x4e0d;" 
 />
    <glyph glyph-name="uni4E0E" unicode="&#x4e0e;" 
 />
    <glyph glyph-name="uni4E10" unicode="&#x4e10;" 
 />
    <glyph glyph-name="uni4E11" unicode="&#x4e11;" 
 />
    <glyph glyph-name="uni4E12" unicode="&#x4e12;" 
 />
    <glyph glyph-name="uni4E14" unicode="&#x4e14;" 
 />
    <glyph glyph-name="uni4E15" unicode="&#x4e15;" 
 />
    <glyph glyph-name="uni4E16" unicode="&#x4e16;" 
 />
    <glyph glyph-name="uni4E17" unicode="&#x4e17;" 
 />
    <glyph glyph-name="uni4E18" unicode="&#x4e18;" 
 />
    <glyph glyph-name="uni4E19" unicode="&#x4e19;" 
 />
    <glyph glyph-name="uni4E1E" unicode="&#x4e1e;" 
 />
    <glyph glyph-name="uni4E1F" unicode="&#x4e1f;" 
 />
    <glyph glyph-name="uni4E21" unicode="&#x4e21;" 
 />
    <glyph glyph-name="uni4E23" unicode="&#x4e23;" 
 />
    <glyph glyph-name="uni4E24" unicode="&#x4e24;" 
 />
    <glyph glyph-name="uni4E26" unicode="&#x4e26;" 
 />
    <glyph glyph-name="uni4E28" unicode="&#x4e28;" 
 />
    <glyph glyph-name="uni4E2A" unicode="&#x4e2a;" 
 />
    <glyph glyph-name="uni4E2B" unicode="&#x4e2b;" 
 />
    <glyph glyph-name="uni4E2D" unicode="&#x4e2d;" 
 />
    <glyph glyph-name="uni4E2E" unicode="&#x4e2e;" 
 />
    <glyph glyph-name="uni4E2F" unicode="&#x4e2f;" 
 />
    <glyph glyph-name="uni4E30" unicode="&#x4e30;" 
 />
    <glyph glyph-name="uni4E31" unicode="&#x4e31;" 
 />
    <glyph glyph-name="uni4E32" unicode="&#x4e32;" 
 />
    <glyph glyph-name="uni4E35" unicode="&#x4e35;" 
 />
    <glyph glyph-name="uni4E36" unicode="&#x4e36;" 
 />
    <glyph glyph-name="uni4E38" unicode="&#x4e38;" 
 />
    <glyph glyph-name="uni4E39" unicode="&#x4e39;" 
 />
    <glyph glyph-name="uni4E3B" unicode="&#x4e3b;" 
 />
    <glyph glyph-name="uni4E3C" unicode="&#x4e3c;" 
 />
    <glyph glyph-name="uni4E3F" unicode="&#x4e3f;" 
 />
    <glyph glyph-name="uni4E40" unicode="&#x4e40;" 
 />
    <glyph glyph-name="uni4E41" unicode="&#x4e41;" 
 />
    <glyph glyph-name="uni4E42" unicode="&#x4e42;" 
 />
    <glyph glyph-name="uni4E43" unicode="&#x4e43;" 
 />
    <glyph glyph-name="uni4E44" unicode="&#x4e44;" 
 />
    <glyph glyph-name="uni4E45" unicode="&#x4e45;" 
 />
    <glyph glyph-name="uni4E47" unicode="&#x4e47;" 
 />
    <glyph glyph-name="uni4E4B" unicode="&#x4e4b;" 
 />
    <glyph glyph-name="uni4E4D" unicode="&#x4e4d;" 
 />
    <glyph glyph-name="uni4E4E" unicode="&#x4e4e;" 
 />
    <glyph glyph-name="uni4E4F" unicode="&#x4e4f;" 
 />
    <glyph glyph-name="uni4E51" unicode="&#x4e51;" 
 />
    <glyph glyph-name="uni4E55" unicode="&#x4e55;" 
 />
    <glyph glyph-name="uni4E56" unicode="&#x4e56;" 
 />
    <glyph glyph-name="uni4E57" unicode="&#x4e57;" 
 />
    <glyph glyph-name="uni4E58" unicode="&#x4e58;" 
 />
    <glyph glyph-name="uni4E59" unicode="&#x4e59;" 
 />
    <glyph glyph-name="uni4E5A" unicode="&#x4e5a;" 
 />
    <glyph glyph-name="uni4E5C" unicode="&#x4e5c;" 
 />
    <glyph glyph-name="uni4E5D" unicode="&#x4e5d;" 
 />
    <glyph glyph-name="uni4E5E" unicode="&#x4e5e;" 
 />
    <glyph glyph-name="uni4E5F" unicode="&#x4e5f;" 
 />
    <glyph glyph-name="uni4E62" unicode="&#x4e62;" 
 />
    <glyph glyph-name="uni4E63" unicode="&#x4e63;" 
 />
    <glyph glyph-name="uni4E68" unicode="&#x4e68;" 
 />
    <glyph glyph-name="uni4E69" unicode="&#x4e69;" 
 />
    <glyph glyph-name="uni4E71" unicode="&#x4e71;" 
 />
    <glyph glyph-name="uni4E73" unicode="&#x4e73;" 
 />
    <glyph glyph-name="uni4E74" unicode="&#x4e74;" 
 />
    <glyph glyph-name="uni4E75" unicode="&#x4e75;" 
 />
    <glyph glyph-name="uni4E79" unicode="&#x4e79;" 
 />
    <glyph glyph-name="uni4E7E" unicode="&#x4e7e;" 
 />
    <glyph glyph-name="uni4E7F" unicode="&#x4e7f;" 
 />
    <glyph glyph-name="uni4E80" unicode="&#x4e80;" 
 />
    <glyph glyph-name="uni4E82" unicode="&#x4e82;" 
 />
    <glyph glyph-name="uni4E85" unicode="&#x4e85;" 
 />
    <glyph glyph-name="uni4E86" unicode="&#x4e86;" 
 />
    <glyph glyph-name="uni4E88" unicode="&#x4e88;" 
 />
    <glyph glyph-name="uni4E89" unicode="&#x4e89;" 
 />
    <glyph glyph-name="uni4E8A" unicode="&#x4e8a;" 
 />
    <glyph glyph-name="uni4E8B" unicode="&#x4e8b;" 
 />
    <glyph glyph-name="uni4E8C" unicode="&#x4e8c;" 
 />
    <glyph glyph-name="uni4E8D" unicode="&#x4e8d;" 
 />
    <glyph glyph-name="uni4E8E" unicode="&#x4e8e;" 
 />
    <glyph glyph-name="uni4E91" unicode="&#x4e91;" 
 />
    <glyph glyph-name="uni4E92" unicode="&#x4e92;" 
 />
    <glyph glyph-name="uni4E94" unicode="&#x4e94;" 
 />
    <glyph glyph-name="uni4E95" unicode="&#x4e95;" 
 />
    <glyph glyph-name="uni4E96" unicode="&#x4e96;" 
 />
    <glyph glyph-name="uni4E97" unicode="&#x4e97;" 
 />
    <glyph glyph-name="uni4E98" unicode="&#x4e98;" 
 />
    <glyph glyph-name="uni4E99" unicode="&#x4e99;" 
 />
    <glyph glyph-name="uni4E9B" unicode="&#x4e9b;" 
 />
    <glyph glyph-name="uni4E9C" unicode="&#x4e9c;" 
 />
    <glyph glyph-name="uni4E9D" unicode="&#x4e9d;" 
 />
    <glyph glyph-name="uni4E9E" unicode="&#x4e9e;" 
 />
    <glyph glyph-name="uni4E9F" unicode="&#x4e9f;" 
 />
    <glyph glyph-name="uni4EA0" unicode="&#x4ea0;" 
 />
    <glyph glyph-name="uni4EA1" unicode="&#x4ea1;" 
 />
    <glyph glyph-name="uni4EA2" unicode="&#x4ea2;" 
 />
    <glyph glyph-name="uni4EA4" unicode="&#x4ea4;" 
 />
    <glyph glyph-name="uni4EA5" unicode="&#x4ea5;" 
 />
    <glyph glyph-name="uni4EA6" unicode="&#x4ea6;" 
 />
    <glyph glyph-name="uni4EA8" unicode="&#x4ea8;" 
 />
    <glyph glyph-name="uni4EAB" unicode="&#x4eab;" 
 />
    <glyph glyph-name="uni4EAC" unicode="&#x4eac;" 
 />
    <glyph glyph-name="uni4EAD" unicode="&#x4ead;" 
 />
    <glyph glyph-name="uni4EAE" unicode="&#x4eae;" 
 />
    <glyph glyph-name="uni4EAF" unicode="&#x4eaf;" 
 />
    <glyph glyph-name="uni4EB0" unicode="&#x4eb0;" 
 />
    <glyph glyph-name="uni4EB3" unicode="&#x4eb3;" 
 />
    <glyph glyph-name="uni4EB6" unicode="&#x4eb6;" 
 />
    <glyph glyph-name="uni4EB9" unicode="&#x4eb9;" 
 />
    <glyph glyph-name="uni4EBA" unicode="&#x4eba;" 
 />
    <glyph glyph-name="uni4EC0" unicode="&#x4ec0;" 
 />
    <glyph glyph-name="uni4EC1" unicode="&#x4ec1;" 
 />
    <glyph glyph-name="uni4EC2" unicode="&#x4ec2;" 
 />
    <glyph glyph-name="uni4EC3" unicode="&#x4ec3;" 
 />
    <glyph glyph-name="uni4EC4" unicode="&#x4ec4;" 
 />
    <glyph glyph-name="uni4EC6" unicode="&#x4ec6;" 
 />
    <glyph glyph-name="uni4EC7" unicode="&#x4ec7;" 
 />
    <glyph glyph-name="uni4ECA" unicode="&#x4eca;" 
 />
    <glyph glyph-name="uni4ECB" unicode="&#x4ecb;" 
 />
    <glyph glyph-name="uni4ECD" unicode="&#x4ecd;" 
 />
    <glyph glyph-name="uni4ECE" unicode="&#x4ece;" 
 />
    <glyph glyph-name="uni4ECF" unicode="&#x4ecf;" 
 />
    <glyph glyph-name="uni4ED0" unicode="&#x4ed0;" 
 />
    <glyph glyph-name="uni4ED4" unicode="&#x4ed4;" 
 />
    <glyph glyph-name="uni4ED5" unicode="&#x4ed5;" 
 />
    <glyph glyph-name="uni4ED6" unicode="&#x4ed6;" 
 />
    <glyph glyph-name="uni4ED7" unicode="&#x4ed7;" 
 />
    <glyph glyph-name="uni4ED8" unicode="&#x4ed8;" 
 />
    <glyph glyph-name="uni4ED9" unicode="&#x4ed9;" 
 />
    <glyph glyph-name="uni4EDA" unicode="&#x4eda;" 
 />
    <glyph glyph-name="uni4EDB" unicode="&#x4edb;" 
 />
    <glyph glyph-name="uni4EDD" unicode="&#x4edd;" 
 />
    <glyph glyph-name="uni4EDE" unicode="&#x4ede;" 
 />
    <glyph glyph-name="uni4EDF" unicode="&#x4edf;" 
 />
    <glyph glyph-name="uni4EE0" unicode="&#x4ee0;" 
 />
    <glyph glyph-name="uni4EE1" unicode="&#x4ee1;" 
 />
    <glyph glyph-name="uni4EE2" unicode="&#x4ee2;" 
 />
    <glyph glyph-name="uni4EE3" unicode="&#x4ee3;" 
 />
    <glyph glyph-name="uni4EE4" unicode="&#x4ee4;" 
 />
    <glyph glyph-name="uni4EE5" unicode="&#x4ee5;" 
 />
    <glyph glyph-name="uni4EE8" unicode="&#x4ee8;" 
 />
    <glyph glyph-name="uni4EED" unicode="&#x4eed;" 
 />
    <glyph glyph-name="uni4EEE" unicode="&#x4eee;" 
 />
    <glyph glyph-name="uni4EEF" unicode="&#x4eef;" 
 />
    <glyph glyph-name="uni4EF0" unicode="&#x4ef0;" 
 />
    <glyph glyph-name="uni4EF1" unicode="&#x4ef1;" 
 />
    <glyph glyph-name="uni4EF2" unicode="&#x4ef2;" 
 />
    <glyph glyph-name="uni4EF3" unicode="&#x4ef3;" 
 />
    <glyph glyph-name="uni4EF5" unicode="&#x4ef5;" 
 />
    <glyph glyph-name="uni4EF6" unicode="&#x4ef6;" 
 />
    <glyph glyph-name="uni4EF7" unicode="&#x4ef7;" 
 />
    <glyph glyph-name="uni4EFB" unicode="&#x4efb;" 
 />
    <glyph glyph-name="uni4EFC" unicode="&#x4efc;" 
 />
    <glyph glyph-name="uni4EFD" unicode="&#x4efd;" 
 />
    <glyph glyph-name="uni4EFE" unicode="&#x4efe;" 
 />
    <glyph glyph-name="uni4EFF" unicode="&#x4eff;" 
 />
    <glyph glyph-name="uni4F00" unicode="&#x4f00;" 
 />
    <glyph glyph-name="uni4F01" unicode="&#x4f01;" 
 />
    <glyph glyph-name="uni4F02" unicode="&#x4f02;" 
 />
    <glyph glyph-name="uni4F03" unicode="&#x4f03;" 
 />
    <glyph glyph-name="uni4F08" unicode="&#x4f08;" 
 />
    <glyph glyph-name="uni4F09" unicode="&#x4f09;" 
 />
    <glyph glyph-name="uni4F0A" unicode="&#x4f0a;" 
 />
    <glyph glyph-name="uni4F0B" unicode="&#x4f0b;" 
 />
    <glyph glyph-name="uni4F0C" unicode="&#x4f0c;" 
 />
    <glyph glyph-name="uni4F0D" unicode="&#x4f0d;" 
 />
    <glyph glyph-name="uni4F0E" unicode="&#x4f0e;" 
 />
    <glyph glyph-name="uni4F0F" unicode="&#x4f0f;" 
 />
    <glyph glyph-name="uni4F10" unicode="&#x4f10;" 
 />
    <glyph glyph-name="uni4F11" unicode="&#x4f11;" 
 />
    <glyph glyph-name="uni4F12" unicode="&#x4f12;" 
 />
    <glyph glyph-name="uni4F15" unicode="&#x4f15;" 
 />
    <glyph glyph-name="uni4F16" unicode="&#x4f16;" 
 />
    <glyph glyph-name="uni4F17" unicode="&#x4f17;" 
 />
    <glyph glyph-name="uni4F19" unicode="&#x4f19;" 
 />
    <glyph glyph-name="uni4F1A" unicode="&#x4f1a;" 
 />
    <glyph glyph-name="uni4F1C" unicode="&#x4f1c;" 
 />
    <glyph glyph-name="uni4F1D" unicode="&#x4f1d;" 
 />
    <glyph glyph-name="uni4F2E" unicode="&#x4f2e;" 
 />
    <glyph glyph-name="uni4F2F" unicode="&#x4f2f;" 
 />
    <glyph glyph-name="uni4F30" unicode="&#x4f30;" 
 />
    <glyph glyph-name="uni4F31" unicode="&#x4f31;" 
 />
    <glyph glyph-name="uni4F33" unicode="&#x4f33;" 
 />
    <glyph glyph-name="uni4F34" unicode="&#x4f34;" 
 />
    <glyph glyph-name="uni4F35" unicode="&#x4f35;" 
 />
    <glyph glyph-name="uni4F36" unicode="&#x4f36;" 
 />
    <glyph glyph-name="uni4F37" unicode="&#x4f37;" 
 />
    <glyph glyph-name="uni4F38" unicode="&#x4f38;" 
 />
    <glyph glyph-name="uni4F39" unicode="&#x4f39;" 
 />
    <glyph glyph-name="uni4F3A" unicode="&#x4f3a;" 
 />
    <glyph glyph-name="uni4F3B" unicode="&#x4f3b;" 
 />
    <glyph glyph-name="uni4F3C" unicode="&#x4f3c;" 
 />
    <glyph glyph-name="uni4F3D" unicode="&#x4f3d;" 
 />
    <glyph glyph-name="uni4F3E" unicode="&#x4f3e;" 
 />
    <glyph glyph-name="uni4F40" unicode="&#x4f40;" 
 />
    <glyph glyph-name="uni4F42" unicode="&#x4f42;" 
 />
    <glyph glyph-name="uni4F43" unicode="&#x4f43;" 
 />
    <glyph glyph-name="uni4F46" unicode="&#x4f46;" 
 />
    <glyph glyph-name="uni4F47" unicode="&#x4f47;" 
 />
    <glyph glyph-name="uni4F48" unicode="&#x4f48;" 
 />
    <glyph glyph-name="uni4F49" unicode="&#x4f49;" 
 />
    <glyph glyph-name="uni4F4B" unicode="&#x4f4b;" 
 />
    <glyph glyph-name="uni4F4C" unicode="&#x4f4c;" 
 />
    <glyph glyph-name="uni4F4D" unicode="&#x4f4d;" 
 />
    <glyph glyph-name="uni4F4E" unicode="&#x4f4e;" 
 />
    <glyph glyph-name="uni4F4F" unicode="&#x4f4f;" 
 />
    <glyph glyph-name="uni4F50" unicode="&#x4f50;" 
 />
    <glyph glyph-name="uni4F51" unicode="&#x4f51;" 
 />
    <glyph glyph-name="uni4F52" unicode="&#x4f52;" 
 />
    <glyph glyph-name="uni4F53" unicode="&#x4f53;" 
 />
    <glyph glyph-name="uni4F54" unicode="&#x4f54;" 
 />
    <glyph glyph-name="uni4F55" unicode="&#x4f55;" 
 />
    <glyph glyph-name="uni4F56" unicode="&#x4f56;" 
 />
    <glyph glyph-name="uni4F57" unicode="&#x4f57;" 
 />
    <glyph glyph-name="uni4F58" unicode="&#x4f58;" 
 />
    <glyph glyph-name="uni4F59" unicode="&#x4f59;" 
 />
    <glyph glyph-name="uni4F5A" unicode="&#x4f5a;" 
 />
    <glyph glyph-name="uni4F5B" unicode="&#x4f5b;" 
 />
    <glyph glyph-name="uni4F5C" unicode="&#x4f5c;" 
 />
    <glyph glyph-name="uni4F5D" unicode="&#x4f5d;" 
 />
    <glyph glyph-name="uni4F5E" unicode="&#x4f5e;" 
 />
    <glyph glyph-name="uni4F5F" unicode="&#x4f5f;" 
 />
    <glyph glyph-name="uni4F60" unicode="&#x4f60;" 
 />
    <glyph glyph-name="uni4F63" unicode="&#x4f63;" 
 />
    <glyph glyph-name="uni4F69" unicode="&#x4f69;" 
 />
    <glyph glyph-name="uni4F6A" unicode="&#x4f6a;" 
 />
    <glyph glyph-name="uni4F6C" unicode="&#x4f6c;" 
 />
    <glyph glyph-name="uni4F6E" unicode="&#x4f6e;" 
 />
    <glyph glyph-name="uni4F6F" unicode="&#x4f6f;" 
 />
    <glyph glyph-name="uni4F70" unicode="&#x4f70;" 
 />
    <glyph glyph-name="uni4F71" unicode="&#x4f71;" 
 />
    <glyph glyph-name="uni4F73" unicode="&#x4f73;" 
 />
    <glyph glyph-name="uni4F75" unicode="&#x4f75;" 
 />
    <glyph glyph-name="uni4F76" unicode="&#x4f76;" 
 />
    <glyph glyph-name="uni4F77" unicode="&#x4f77;" 
 />
    <glyph glyph-name="uni4F78" unicode="&#x4f78;" 
 />
    <glyph glyph-name="uni4F79" unicode="&#x4f79;" 
 />
    <glyph glyph-name="uni4F7A" unicode="&#x4f7a;" 
 />
    <glyph glyph-name="uni4F7B" unicode="&#x4f7b;" 
 />
    <glyph glyph-name="uni4F7C" unicode="&#x4f7c;" 
 />
    <glyph glyph-name="uni4F7D" unicode="&#x4f7d;" 
 />
    <glyph glyph-name="uni4F7E" unicode="&#x4f7e;" 
 />
    <glyph glyph-name="uni4F7F" unicode="&#x4f7f;" 
 />
    <glyph glyph-name="uni4F81" unicode="&#x4f81;" 
 />
    <glyph glyph-name="uni4F82" unicode="&#x4f82;" 
 />
    <glyph glyph-name="uni4F83" unicode="&#x4f83;" 
 />
    <glyph glyph-name="uni4F84" unicode="&#x4f84;" 
 />
    <glyph glyph-name="uni4F85" unicode="&#x4f85;" 
 />
    <glyph glyph-name="uni4F86" unicode="&#x4f86;" 
 />
    <glyph glyph-name="uni4F88" unicode="&#x4f88;" 
 />
    <glyph glyph-name="uni4F89" unicode="&#x4f89;" 
 />
    <glyph glyph-name="uni4F8A" unicode="&#x4f8a;" 
 />
    </font>
</defs>
</svg>
